if (_typeface_js && _typeface_js.loadFace) _typeface_js.loadFace({"glyphs":{"0":{"ha":782,"x_min":134,"x_max":916,"o":"m 288 -3 q 174 53 214 -3 q 134 210 134 110 q 173 410 134 307 q 276 611 211 514 q 422 786 341 708 q 590 909 503 863 q 759 955 677 955 q 879 893 841 955 q 916 735 916 832 q 880 536 916 639 q 780 337 843 433 q 635 164 716 241 q 465 42 554 87 q 288 -3 376 -3 m 304 15 q 411 44 351 15 q 535 126 471 73 q 661 250 600 179 q 771 405 722 321 q 850 581 821 489 q 879 766 879 672 q 846 902 879 865 q 760 939 812 939 q 651 899 711 939 q 530 792 592 859 q 411 641 469 725 q 308 469 353 557 q 235 299 262 381 q 208 153 208 216 q 304 15 208 15 z "},"1":{"ha":540,"x_min":129,"x_max":800,"o":"m 129 9 q 231 157 175 75 q 347 328 288 239 q 462 502 406 416 q 564 659 518 587 q 404 500 471 562 q 277 396 336 439 q 245 375 261 385 q 217 364 229 364 q 201 378 201 364 q 224 399 201 391 q 239 406 232 402 q 256 414 246 409 q 348 484 293 436 q 465 592 403 531 q 585 717 526 653 q 690 838 644 781 q 758 931 736 895 q 777 959 771 953 q 789 966 783 966 q 800 956 800 966 q 774 911 800 945 q 710 815 751 881 q 616 658 669 749 q 504 460 563 567 q 385 238 445 353 q 268 12 324 123 q 232 15 256 13 q 193 16 208 16 q 156 14 173 16 q 129 9 139 12 z "},"2":{"ha":863,"x_min":9,"x_max":926,"o":"m 16 -39 q 9 -24 9 -39 q 27 24 9 -7 q 82 87 45 54 q 199 175 126 127 q 385 277 273 222 q 638 444 538 353 q 787 628 738 534 q 837 804 837 721 q 810 911 837 884 q 732 938 784 938 q 618 907 676 938 q 509 828 561 877 q 416 723 457 779 q 352 615 376 667 q 328 528 328 564 q 345 481 328 500 q 393 463 361 463 q 505 505 445 463 q 614 618 565 548 q 623 628 619 627 q 629 630 627 630 q 635 625 635 630 q 607 577 635 613 q 528 500 578 541 q 459 459 495 473 q 393 444 423 444 q 319 462 344 444 q 287 504 295 479 q 279 549 279 528 q 304 655 279 600 q 374 765 330 711 q 476 862 418 819 q 601 930 534 905 q 737 956 667 956 q 879 902 832 956 q 926 771 926 848 q 801 504 926 635 q 444 271 675 372 q 316 213 368 237 q 228 170 264 189 q 163 130 191 150 q 108 83 136 110 q 251 144 191 130 q 378 159 311 159 q 465 148 427 159 q 541 112 503 136 q 642 73 600 73 q 736 105 692 73 q 802 199 781 138 q 806 218 806 209 q 812 228 806 228 q 822 210 822 228 q 798 144 822 185 q 747 74 774 103 q 672 18 710 38 q 576 -1 633 -1 q 511 10 540 -1 q 449 49 483 22 q 354 103 397 91 q 281 115 311 115 q 186 96 236 115 q 97 47 137 77 q 38 -16 56 17 q 36 -22 37 -18 q 33 -32 35 -26 q 25 -38 31 -36 q 16 -39 18 -39 z "},"3":{"ha":823,"x_min":-54,"x_max":918,"o":"m 192 -161 q 71 -141 127 -161 q -20 -91 15 -121 q -54 -33 -54 -61 q -42 -1 -54 -14 q -12 12 -31 12 q 18 -1 7 12 q 30 -39 30 -14 q 26 -75 30 -56 q 96 -127 47 -108 q 189 -146 144 -146 q 366 -104 279 -146 q 520 7 452 -63 q 630 166 589 78 q 671 349 671 255 q 652 398 671 381 q 604 414 634 414 q 485 383 546 414 q 394 307 425 352 q 388 295 389 300 q 383 281 386 289 q 366 267 378 267 q 355 281 355 267 q 361 301 355 290 q 374 319 367 312 q 420 362 397 344 q 478 401 444 381 q 568 449 513 421 q 723 562 666 499 q 804 690 780 624 q 828 816 828 756 q 799 912 828 886 q 717 938 769 938 q 619 910 670 938 q 520 838 568 883 q 433 740 472 793 q 371 634 394 686 q 348 541 348 582 q 358 498 348 515 q 397 481 369 481 q 477 510 434 481 q 561 584 521 538 q 628 682 600 630 q 660 782 655 734 q 668 795 663 795 q 675 779 675 795 q 645 668 675 724 q 571 565 616 612 q 477 491 526 519 q 391 463 429 463 q 321 489 349 463 q 292 567 292 515 q 318 667 292 614 q 387 771 343 720 q 485 864 430 823 q 601 931 541 906 q 719 956 661 956 q 867 914 815 956 q 918 786 918 872 q 881 673 918 737 q 768 545 843 608 q 581 436 694 482 q 717 414 662 452 q 772 295 772 377 q 742 183 772 244 q 657 61 711 122 q 530 -50 603 1 q 371 -131 457 -100 q 192 -161 285 -161 z "},"4":{"ha":1015,"x_min":88,"x_max":1070,"o":"m 490 -78 l 398 -29 q 514 139 445 46 q 659 323 583 232 q 614 336 639 329 q 557 354 589 344 q 479 380 517 367 q 405 404 441 393 q 284 343 333 354 q 196 333 235 333 q 118 347 148 333 q 88 381 88 360 q 113 420 88 406 q 175 441 137 435 q 250 447 212 447 q 310 445 282 447 q 376 434 337 442 q 489 544 430 481 q 604 678 547 608 q 710 817 661 749 q 793 940 759 885 q 887 953 850 947 q 961 959 924 959 q 980 957 975 959 q 985 951 985 956 q 980 945 985 947 q 957 935 976 942 q 905 902 928 922 q 841 840 883 882 q 795 790 826 825 q 722 708 764 755 q 632 611 680 661 q 537 515 585 561 q 449 436 490 469 l 430 421 q 494 405 458 414 q 576 381 530 395 l 682 351 q 807 491 745 426 q 925 604 869 556 q 1021 672 980 652 q 1037 679 1027 675 q 1051 684 1046 684 q 1058 677 1058 684 q 1056 672 1058 675 q 1043 662 1053 669 q 963 591 1010 640 q 861 476 916 543 q 749 335 806 410 q 839 326 794 326 q 941 337 892 326 q 1016 363 989 348 q 1045 382 1034 372 q 1063 391 1057 391 q 1070 386 1070 391 q 1048 363 1070 382 q 971 325 1017 338 q 884 307 926 311 q 816 302 842 302 q 771 303 791 302 q 729 307 752 304 q 593 107 657 209 q 490 -78 529 5 m 204 350 q 257 357 229 350 q 320 390 285 365 q 338 403 329 396 q 356 417 347 410 q 304 427 330 423 q 256 431 279 431 q 161 416 191 431 q 132 378 132 401 q 157 355 132 360 q 204 350 183 350 z "},"5":{"ha":812,"x_min":-129,"x_max":1055,"o":"m 100 -215 q -5 -203 41 -215 q -81 -175 -50 -192 q -117 -143 -104 -160 q -129 -112 -129 -126 q -111 -92 -129 -92 q -97 -96 -101 -92 q -90 -109 -93 -101 q -74 -138 -85 -122 q -8 -180 -55 -165 q 104 -195 38 -195 q 274 -158 192 -195 q 425 -57 355 -120 q 547 84 495 7 q 629 242 600 162 q 659 394 659 323 q 621 506 659 473 q 519 539 584 539 q 421 519 471 539 q 332 465 372 498 q 265 390 291 431 q 254 376 258 378 q 245 374 249 373 q 239 381 237 374 q 273 434 243 399 q 336 495 302 468 q 417 637 372 557 q 505 800 462 718 q 579 947 549 882 l 635 949 q 624 924 633 945 q 601 880 614 903 q 682 935 637 913 q 768 956 726 956 q 804 952 785 956 q 838 943 823 948 q 908 929 879 929 q 970 940 941 929 q 1031 994 1000 951 q 1040 1010 1037 1003 q 1049 1017 1044 1017 q 1055 1010 1055 1017 q 1050 994 1055 1003 q 960 891 1020 932 q 817 851 900 851 q 784 853 801 851 q 747 862 768 856 q 708 874 724 869 q 673 878 691 878 q 623 866 650 878 q 578 835 597 854 q 552 785 570 818 q 512 714 534 753 q 469 637 490 675 q 432 572 448 600 q 410 535 416 545 q 471 558 435 550 q 536 567 506 567 q 698 510 641 567 q 751 344 755 452 q 710 183 748 263 q 609 32 673 103 q 464 -96 546 -40 q 289 -183 382 -151 q 100 -215 196 -215 z "},"6":{"ha":843,"x_min":186,"x_max":1006,"o":"m 356 -3 q 225 63 264 -3 q 188 231 186 130 q 218 385 189 304 q 295 548 246 467 q 409 702 345 629 q 548 833 473 776 q 701 923 622 890 q 856 956 779 956 q 970 925 935 956 q 1005 861 1006 893 q 984 802 1004 826 q 938 778 964 778 q 903 791 915 778 q 891 819 891 804 q 924 867 892 848 q 947 895 947 879 q 925 925 948 912 q 861 938 902 938 q 711 897 784 938 q 571 788 637 857 q 450 636 505 720 q 355 463 395 551 q 291 293 314 374 q 267 151 269 212 q 287 52 267 87 q 352 16 307 16 q 481 66 410 16 q 644 248 551 115 q 724 394 693 319 q 756 526 755 469 q 694 604 757 604 q 627 581 667 604 q 544 518 586 557 q 470 430 501 478 q 429 331 438 381 q 418 313 426 313 q 410 326 410 313 q 436 430 412 378 q 503 526 461 482 q 595 595 544 569 q 701 622 647 622 q 795 585 762 622 q 827 482 827 549 q 793 329 825 402 q 711 196 762 256 q 598 90 660 135 q 474 21 537 45 q 356 -3 411 -3 z "},"7":{"ha":711,"x_min":210,"x_max":1003,"o":"m 467 -370 q 449 -361 464 -370 q 384 -300 417 -342 q 329 -195 351 -258 q 307 -55 307 -133 q 430 333 307 119 q 792 778 553 547 q 822 806 800 785 q 867 848 844 827 q 732 808 802 808 q 677 817 699 808 q 624 847 655 826 q 578 875 598 865 q 527 885 558 884 q 485 882 510 886 q 432 864 459 879 q 379 815 404 850 q 279 668 324 723 q 218 614 233 614 q 210 620 210 614 q 229 643 210 623 q 282 709 250 666 q 342 809 314 753 q 378 926 370 865 q 391 952 380 952 q 399 949 395 952 q 404 934 404 946 q 399 901 404 923 q 390 859 395 878 q 479 932 430 909 q 583 956 528 956 q 661 940 630 956 q 729 899 691 924 q 827 869 774 869 q 897 887 871 869 q 962 942 922 905 q 978 951 971 949 q 988 954 985 954 q 1003 943 1003 954 q 998 932 1003 937 q 978 917 994 928 q 922 870 969 910 q 814 769 874 829 q 489 338 593 551 q 386 -60 386 126 q 407 -227 386 -155 q 451 -332 428 -298 q 467 -353 460 -345 q 475 -364 475 -360 q 467 -370 475 -370 z "},"8":{"ha":750,"x_min":143,"x_max":866,"o":"m 379 -3 q 244 25 296 -3 q 168 100 192 53 q 143 204 143 147 q 186 340 143 276 q 302 455 230 404 q 462 536 374 506 q 415 635 430 593 q 399 718 399 677 q 436 829 399 774 q 537 920 473 884 q 684 956 601 956 q 789 935 749 956 q 848 880 829 913 q 866 808 866 846 q 828 688 866 746 q 728 587 791 631 q 589 522 665 543 l 591 520 q 663 400 628 467 q 697 267 697 334 q 670 160 697 210 q 596 74 642 111 q 494 17 551 37 q 379 -3 437 -3 m 579 538 q 695 597 640 555 q 784 696 750 640 q 819 812 819 753 q 789 898 819 859 q 686 938 760 938 q 603 917 648 938 q 525 854 557 896 q 493 751 493 812 q 512 660 493 711 q 579 538 532 609 m 393 16 q 489 43 441 16 q 568 118 536 70 q 600 229 600 166 q 593 290 600 261 q 568 355 586 318 q 515 448 550 392 q 492 485 503 468 q 472 519 481 503 q 336 447 395 492 q 244 344 277 401 q 211 222 211 286 q 262 68 211 121 q 393 16 314 16 z "},"9":{"ha":820,"x_min":96,"x_max":904,"o":"m 286 -1 q 185 18 228 -1 q 119 66 142 37 q 96 125 96 96 q 112 167 97 151 q 153 183 127 183 q 185 170 175 183 q 195 143 196 156 q 193 130 195 135 q 184 116 190 124 q 177 89 177 105 q 193 56 176 73 q 236 27 210 39 q 290 16 262 16 q 472 84 383 16 q 638 274 562 151 q 770 563 715 397 q 617 427 688 469 q 484 386 547 386 q 347 438 401 386 q 304 581 293 490 q 346 721 311 654 q 433 841 380 789 q 551 924 486 894 q 686 955 616 955 q 851 886 799 955 q 892 695 904 817 q 849 510 884 607 q 757 322 814 414 q 624 157 700 231 q 456 38 547 83 q 370 8 413 17 q 286 -1 327 -1 m 483 402 q 597 439 538 402 q 706 535 656 475 q 788 663 756 594 q 821 795 819 732 q 793 905 823 876 q 700 935 763 935 q 610 906 656 935 q 521 831 564 878 q 445 728 479 784 q 391 615 411 671 q 369 511 370 558 q 396 433 368 465 q 483 402 424 402 z "},"A":{"ha":1104,"x_min":0,"x_max":1436,"o":"m 144 -3 q 36 25 72 -3 q 0 96 0 54 q 21 139 0 126 q 64 151 43 151 q 86 144 75 151 q 98 121 98 138 q 86 98 98 108 q 60 87 75 87 q 42 89 51 87 q 27 94 34 90 l 27 90 q 55 36 27 57 q 149 15 83 15 q 242 35 195 15 q 341 90 290 54 q 391 127 366 108 q 442 169 416 147 q 288 271 344 205 q 229 408 232 336 q 249 497 227 456 q 317 564 271 538 q 428 589 362 589 q 589 535 519 589 q 696 402 659 481 l 715 420 q 932 631 840 546 q 1091 769 1025 715 q 1206 855 1158 823 q 1292 907 1255 887 q 1375 943 1342 933 q 1424 952 1407 952 q 1436 946 1436 952 q 1423 938 1436 943 q 1394 915 1413 935 q 1338 848 1375 895 q 1238 716 1301 801 q 1077 501 1175 632 q 836 181 979 370 q 1052 297 959 218 q 1184 481 1145 376 q 1195 501 1192 501 q 1201 495 1197 501 q 1206 481 1206 490 q 1173 379 1202 423 q 1103 294 1143 334 q 973 206 1048 241 q 814 153 898 170 l 698 -1 q 655 2 677 1 q 619 3 633 3 q 598 2 608 3 q 580 -1 589 1 q 631 63 606 32 q 680 123 656 94 q 688 136 686 132 q 666 135 677 136 q 645 135 656 135 q 550 142 595 135 q 466 161 505 149 q 381 93 418 120 q 319 50 345 66 q 232 9 275 22 q 144 -3 189 -3 m 726 179 q 1047 566 917 414 q 1257 805 1178 719 q 1374 926 1337 892 q 1329 907 1352 918 q 1273 878 1305 897 q 1146 786 1218 844 q 976 638 1074 727 q 749 423 879 549 l 706 381 q 727 311 720 347 q 734 239 734 275 q 726 179 734 209 m 458 182 q 559 272 505 222 q 681 388 613 322 q 579 519 646 469 q 429 569 513 569 q 350 547 386 569 q 292 488 313 524 q 271 410 271 452 q 317 277 271 339 q 458 182 364 216 m 649 154 q 696 156 673 154 q 708 199 705 177 q 712 235 712 220 q 690 366 712 302 q 576 259 628 306 q 482 175 524 212 q 649 154 556 154 z "},"Á":{"ha":1104,"x_min":0,"x_max":1644,"o":"m 144 -3 q 36 25 72 -3 q 0 96 0 54 q 21 139 0 126 q 64 151 43 151 q 86 144 75 151 q 98 121 98 138 q 86 98 98 108 q 60 87 75 87 q 42 89 51 87 q 27 94 34 90 l 27 90 q 55 36 27 57 q 149 15 83 15 q 242 35 195 15 q 341 90 290 54 q 391 127 366 108 q 442 169 416 147 q 288 271 344 205 q 229 408 232 336 q 249 497 227 456 q 317 564 271 538 q 428 589 362 589 q 589 535 519 589 q 696 402 659 481 l 715 420 q 932 631 840 546 q 1091 769 1025 715 q 1206 855 1158 823 q 1292 907 1255 887 q 1375 943 1342 933 q 1424 952 1407 952 q 1436 946 1436 952 q 1423 938 1436 943 q 1394 915 1413 935 q 1338 848 1375 895 q 1238 716 1301 801 q 1077 501 1175 632 q 836 181 979 370 q 1052 297 959 218 q 1184 481 1145 376 q 1195 501 1192 501 q 1201 495 1197 501 q 1206 481 1206 490 q 1173 379 1202 423 q 1103 294 1143 334 q 973 206 1048 241 q 814 153 898 170 l 698 -1 q 655 2 677 1 q 619 3 633 3 q 598 2 608 3 q 580 -1 589 1 q 631 63 606 32 q 680 123 656 94 q 688 136 686 132 q 666 135 677 136 q 645 135 656 135 q 550 142 595 135 q 466 161 505 149 q 381 93 418 120 q 319 50 345 66 q 232 9 275 22 q 144 -3 189 -3 m 726 179 q 1047 566 917 414 q 1257 805 1178 719 q 1374 926 1337 892 q 1329 907 1352 918 q 1273 878 1305 897 q 1146 786 1218 844 q 976 638 1074 727 q 749 423 879 549 l 706 381 q 727 311 720 347 q 734 239 734 275 q 726 179 734 209 m 458 182 q 559 272 505 222 q 681 388 613 322 q 579 519 646 469 q 429 569 513 569 q 350 547 386 569 q 292 488 313 524 q 271 410 271 452 q 317 277 271 339 q 458 182 364 216 m 649 154 q 696 156 673 154 q 708 199 705 177 q 712 235 712 220 q 690 366 712 302 q 576 259 628 306 q 482 175 524 212 q 649 154 556 154 m 1458 1014 q 1450 1021 1450 1014 q 1454 1027 1450 1025 q 1467 1036 1458 1029 q 1511 1067 1487 1047 q 1552 1113 1535 1087 q 1567 1151 1561 1129 q 1579 1211 1573 1173 q 1615 1259 1585 1259 q 1644 1221 1644 1259 q 1624 1161 1644 1196 q 1570 1091 1604 1126 q 1491 1029 1535 1056 q 1458 1014 1466 1014 z "},"Ă":{"ha":1104,"x_min":0,"x_max":1703,"o":"m 144 -3 q 36 25 72 -3 q 0 96 0 54 q 21 139 0 126 q 64 151 43 151 q 86 144 75 151 q 98 121 98 138 q 86 98 98 108 q 60 87 75 87 q 42 89 51 87 q 27 94 34 90 l 27 90 q 55 36 27 57 q 149 15 83 15 q 242 35 195 15 q 341 90 290 54 q 391 127 366 108 q 442 169 416 147 q 288 271 344 205 q 229 408 232 336 q 249 497 227 456 q 317 564 271 538 q 428 589 362 589 q 589 535 519 589 q 696 402 659 481 l 715 420 q 932 631 840 546 q 1091 769 1025 715 q 1206 855 1158 823 q 1292 907 1255 887 q 1375 943 1342 933 q 1424 952 1407 952 q 1436 946 1436 952 q 1423 938 1436 943 q 1394 915 1413 935 q 1338 848 1375 895 q 1238 716 1301 801 q 1077 501 1175 632 q 836 181 979 370 q 1052 297 959 218 q 1184 481 1145 376 q 1195 501 1192 501 q 1201 495 1197 501 q 1206 481 1206 490 q 1173 379 1202 423 q 1103 294 1143 334 q 973 206 1048 241 q 814 153 898 170 l 698 -1 q 655 2 677 1 q 619 3 633 3 q 598 2 608 3 q 580 -1 589 1 q 631 63 606 32 q 680 123 656 94 q 688 136 686 132 q 666 135 677 136 q 645 135 656 135 q 550 142 595 135 q 466 161 505 149 q 381 93 418 120 q 319 50 345 66 q 232 9 275 22 q 144 -3 189 -3 m 726 179 q 1047 566 917 414 q 1257 805 1178 719 q 1374 926 1337 892 q 1329 907 1352 918 q 1273 878 1305 897 q 1146 786 1218 844 q 976 638 1074 727 q 749 423 879 549 l 706 381 q 727 311 720 347 q 734 239 734 275 q 726 179 734 209 m 458 182 q 559 272 505 222 q 681 388 613 322 q 579 519 646 469 q 429 569 513 569 q 350 547 386 569 q 292 488 313 524 q 271 410 271 452 q 317 277 271 339 q 458 182 364 216 m 649 154 q 696 156 673 154 q 708 199 705 177 q 712 235 712 220 q 690 366 712 302 q 576 259 628 306 q 482 175 524 212 q 649 154 556 154 m 1453 1034 q 1391 1052 1417 1034 q 1362 1112 1364 1071 q 1364 1160 1360 1137 l 1383 1160 q 1381 1117 1379 1139 q 1398 1071 1383 1084 q 1432 1058 1413 1058 q 1524 1084 1481 1058 q 1615 1160 1567 1110 l 1703 1160 q 1588 1071 1653 1108 q 1453 1034 1522 1034 z "},"Ắ":{"ha":1104,"x_min":0,"x_max":1717,"o":"m 144 -3 q 36 25 72 -3 q 0 96 0 54 q 21 139 0 126 q 64 151 43 151 q 86 144 75 151 q 98 121 98 138 q 86 98 98 108 q 60 87 75 87 q 42 89 51 87 q 27 94 34 90 l 27 90 q 55 36 27 57 q 149 15 83 15 q 242 35 195 15 q 341 90 290 54 q 391 127 366 108 q 442 169 416 147 q 288 271 344 205 q 229 408 232 336 q 249 497 227 456 q 317 564 271 538 q 428 589 362 589 q 589 535 519 589 q 696 402 659 481 l 715 420 q 932 631 840 546 q 1091 769 1025 715 q 1206 855 1158 823 q 1292 907 1255 887 q 1375 943 1342 933 q 1424 952 1407 952 q 1436 946 1436 952 q 1423 938 1436 943 q 1394 915 1413 935 q 1338 848 1375 895 q 1238 716 1301 801 q 1077 501 1175 632 q 836 181 979 370 q 1052 297 959 218 q 1184 481 1145 376 q 1195 501 1192 501 q 1201 495 1197 501 q 1206 481 1206 490 q 1173 379 1202 423 q 1103 294 1143 334 q 973 206 1048 241 q 814 153 898 170 l 698 -1 q 655 2 677 1 q 619 3 633 3 q 598 2 608 3 q 580 -1 589 1 q 631 63 606 32 q 680 123 656 94 q 688 136 686 132 q 666 135 677 136 q 645 135 656 135 q 550 142 595 135 q 466 161 505 149 q 381 93 418 120 q 319 50 345 66 q 232 9 275 22 q 144 -3 189 -3 m 726 179 q 1047 566 917 414 q 1257 805 1178 719 q 1374 926 1337 892 q 1329 907 1352 918 q 1273 878 1305 897 q 1146 786 1218 844 q 976 638 1074 727 q 749 423 879 549 l 706 381 q 727 311 720 347 q 734 239 734 275 q 726 179 734 209 m 458 182 q 559 272 505 222 q 681 388 613 322 q 579 519 646 469 q 429 569 513 569 q 350 547 386 569 q 292 488 313 524 q 271 410 271 452 q 317 277 271 339 q 458 182 364 216 m 649 154 q 696 156 673 154 q 708 199 705 177 q 712 235 712 220 q 690 366 712 302 q 576 259 628 306 q 482 175 524 212 q 649 154 556 154 m 1453 1034 q 1391 1052 1417 1034 q 1362 1112 1364 1071 q 1364 1160 1360 1137 l 1383 1160 q 1381 1117 1379 1139 q 1398 1071 1383 1084 q 1432 1058 1413 1058 q 1524 1084 1481 1058 q 1615 1160 1567 1110 l 1703 1160 q 1588 1071 1653 1108 q 1453 1034 1522 1034 m 1537 1208 q 1532 1212 1533 1208 q 1530 1216 1530 1216 q 1548 1232 1530 1219 q 1588 1261 1567 1243 q 1624 1300 1610 1278 q 1639 1328 1633 1313 q 1651 1369 1646 1342 q 1688 1417 1657 1417 q 1709 1409 1700 1417 q 1717 1380 1717 1400 q 1697 1331 1717 1359 q 1644 1274 1677 1303 q 1573 1223 1611 1246 q 1537 1208 1547 1208 z "},"Ặ":{"ha":1104,"x_min":0,"x_max":1703,"o":"m 144 -3 q 36 25 72 -3 q 0 96 0 54 q 21 139 0 126 q 64 151 43 151 q 86 144 75 151 q 98 121 98 138 q 86 98 98 108 q 60 87 75 87 q 42 89 51 87 q 27 94 34 90 l 27 90 q 55 36 27 57 q 149 15 83 15 q 242 35 195 15 q 341 90 290 54 q 391 127 366 108 q 442 169 416 147 q 288 271 344 205 q 229 408 232 336 q 249 497 227 456 q 317 564 271 538 q 428 589 362 589 q 589 535 519 589 q 696 402 659 481 l 715 420 q 932 631 840 546 q 1091 769 1025 715 q 1206 855 1158 823 q 1292 907 1255 887 q 1375 943 1342 933 q 1424 952 1407 952 q 1436 946 1436 952 q 1423 938 1436 943 q 1394 915 1413 935 q 1338 848 1375 895 q 1238 716 1301 801 q 1077 501 1175 632 q 836 181 979 370 q 1052 297 959 218 q 1184 481 1145 376 q 1195 501 1192 501 q 1201 495 1197 501 q 1206 481 1206 490 q 1173 379 1202 423 q 1103 294 1143 334 q 973 206 1048 241 q 814 153 898 170 l 698 -1 q 655 2 677 1 q 619 3 633 3 q 598 2 608 3 q 580 -1 589 1 q 631 63 606 32 q 680 123 656 94 q 688 136 686 132 q 666 135 677 136 q 645 135 656 135 q 550 142 595 135 q 466 161 505 149 q 381 93 418 120 q 319 50 345 66 q 232 9 275 22 q 144 -3 189 -3 m 726 179 q 1047 566 917 414 q 1257 805 1178 719 q 1374 926 1337 892 q 1329 907 1352 918 q 1273 878 1305 897 q 1146 786 1218 844 q 976 638 1074 727 q 749 423 879 549 l 706 381 q 727 311 720 347 q 734 239 734 275 q 726 179 734 209 m 458 182 q 559 272 505 222 q 681 388 613 322 q 579 519 646 469 q 429 569 513 569 q 350 547 386 569 q 292 488 313 524 q 271 410 271 452 q 317 277 271 339 q 458 182 364 216 m 649 154 q 696 156 673 154 q 708 199 705 177 q 712 235 712 220 q 690 366 712 302 q 576 259 628 306 q 482 175 524 212 q 649 154 556 154 m 340 -176 q 310 -164 321 -176 q 298 -134 298 -152 q 318 -90 298 -110 q 366 -70 338 -70 q 396 -82 385 -70 q 408 -113 408 -95 q 386 -157 408 -138 q 340 -176 365 -176 m 1453 1034 q 1391 1052 1417 1034 q 1362 1112 1364 1071 q 1364 1160 1360 1137 l 1383 1160 q 1381 1117 1379 1139 q 1398 1071 1383 1084 q 1432 1058 1413 1058 q 1524 1084 1481 1058 q 1615 1160 1567 1110 l 1703 1160 q 1588 1071 1653 1108 q 1453 1034 1522 1034 z "},"Ằ":{"ha":1104,"x_min":0,"x_max":1703,"o":"m 144 -3 q 36 25 72 -3 q 0 96 0 54 q 21 139 0 126 q 64 151 43 151 q 86 144 75 151 q 98 121 98 138 q 86 98 98 108 q 60 87 75 87 q 42 89 51 87 q 27 94 34 90 l 27 90 q 55 36 27 57 q 149 15 83 15 q 242 35 195 15 q 341 90 290 54 q 391 127 366 108 q 442 169 416 147 q 288 271 344 205 q 229 408 232 336 q 249 497 227 456 q 317 564 271 538 q 428 589 362 589 q 589 535 519 589 q 696 402 659 481 l 715 420 q 932 631 840 546 q 1091 769 1025 715 q 1206 855 1158 823 q 1292 907 1255 887 q 1375 943 1342 933 q 1424 952 1407 952 q 1436 946 1436 952 q 1423 938 1436 943 q 1394 915 1413 935 q 1338 848 1375 895 q 1238 716 1301 801 q 1077 501 1175 632 q 836 181 979 370 q 1052 297 959 218 q 1184 481 1145 376 q 1195 501 1192 501 q 1201 495 1197 501 q 1206 481 1206 490 q 1173 379 1202 423 q 1103 294 1143 334 q 973 206 1048 241 q 814 153 898 170 l 698 -1 q 655 2 677 1 q 619 3 633 3 q 598 2 608 3 q 580 -1 589 1 q 631 63 606 32 q 680 123 656 94 q 688 136 686 132 q 666 135 677 136 q 645 135 656 135 q 550 142 595 135 q 466 161 505 149 q 381 93 418 120 q 319 50 345 66 q 232 9 275 22 q 144 -3 189 -3 m 726 179 q 1047 566 917 414 q 1257 805 1178 719 q 1374 926 1337 892 q 1329 907 1352 918 q 1273 878 1305 897 q 1146 786 1218 844 q 976 638 1074 727 q 749 423 879 549 l 706 381 q 727 311 720 347 q 734 239 734 275 q 726 179 734 209 m 458 182 q 559 272 505 222 q 681 388 613 322 q 579 519 646 469 q 429 569 513 569 q 350 547 386 569 q 292 488 313 524 q 271 410 271 452 q 317 277 271 339 q 458 182 364 216 m 649 154 q 696 156 673 154 q 708 199 705 177 q 712 235 712 220 q 690 366 712 302 q 576 259 628 306 q 482 175 524 212 q 649 154 556 154 m 1453 1034 q 1391 1052 1417 1034 q 1362 1112 1364 1071 q 1364 1160 1360 1137 l 1383 1160 q 1381 1117 1379 1139 q 1398 1071 1383 1084 q 1432 1058 1413 1058 q 1524 1084 1481 1058 q 1615 1160 1567 1110 l 1703 1160 q 1588 1071 1653 1108 q 1453 1034 1522 1034 m 1563 1187 q 1527 1203 1554 1187 q 1456 1254 1489 1225 q 1403 1311 1423 1282 q 1383 1360 1383 1339 q 1413 1397 1383 1397 q 1450 1349 1442 1397 q 1462 1307 1455 1322 q 1477 1280 1468 1293 q 1512 1240 1491 1258 q 1554 1212 1534 1223 q 1571 1196 1571 1199 q 1569 1192 1571 1196 q 1563 1187 1568 1187 z "},"Ẳ":{"ha":1104,"x_min":0,"x_max":1703,"o":"m 144 -3 q 36 25 72 -3 q 0 96 0 54 q 21 139 0 126 q 64 151 43 151 q 86 144 75 151 q 98 121 98 138 q 86 98 98 108 q 60 87 75 87 q 42 89 51 87 q 27 94 34 90 l 27 90 q 55 36 27 57 q 149 15 83 15 q 242 35 195 15 q 341 90 290 54 q 391 127 366 108 q 442 169 416 147 q 288 271 344 205 q 229 408 232 336 q 249 497 227 456 q 317 564 271 538 q 428 589 362 589 q 589 535 519 589 q 696 402 659 481 l 715 420 q 932 631 840 546 q 1091 769 1025 715 q 1206 855 1158 823 q 1292 907 1255 887 q 1375 943 1342 933 q 1424 952 1407 952 q 1436 946 1436 952 q 1423 938 1436 943 q 1394 915 1413 935 q 1338 848 1375 895 q 1238 716 1301 801 q 1077 501 1175 632 q 836 181 979 370 q 1052 297 959 218 q 1184 481 1145 376 q 1195 501 1192 501 q 1201 495 1197 501 q 1206 481 1206 490 q 1173 379 1202 423 q 1103 294 1143 334 q 973 206 1048 241 q 814 153 898 170 l 698 -1 q 655 2 677 1 q 619 3 633 3 q 598 2 608 3 q 580 -1 589 1 q 631 63 606 32 q 680 123 656 94 q 688 136 686 132 q 666 135 677 136 q 645 135 656 135 q 550 142 595 135 q 466 161 505 149 q 381 93 418 120 q 319 50 345 66 q 232 9 275 22 q 144 -3 189 -3 m 726 179 q 1047 566 917 414 q 1257 805 1178 719 q 1374 926 1337 892 q 1329 907 1352 918 q 1273 878 1305 897 q 1146 786 1218 844 q 976 638 1074 727 q 749 423 879 549 l 706 381 q 727 311 720 347 q 734 239 734 275 q 726 179 734 209 m 458 182 q 559 272 505 222 q 681 388 613 322 q 579 519 646 469 q 429 569 513 569 q 350 547 386 569 q 292 488 313 524 q 271 410 271 452 q 317 277 271 339 q 458 182 364 216 m 649 154 q 696 156 673 154 q 708 199 705 177 q 712 235 712 220 q 690 366 712 302 q 576 259 628 306 q 482 175 524 212 q 649 154 556 154 m 1453 1034 q 1391 1052 1417 1034 q 1362 1112 1364 1071 q 1364 1160 1360 1137 l 1383 1160 q 1381 1117 1379 1139 q 1398 1071 1383 1084 q 1432 1058 1413 1058 q 1524 1084 1481 1058 q 1615 1160 1567 1110 l 1703 1160 q 1588 1071 1653 1108 q 1453 1034 1522 1034 m 1510 1143 q 1484 1152 1495 1144 q 1472 1176 1472 1160 q 1523 1266 1472 1215 q 1559 1304 1539 1284 q 1578 1345 1578 1324 q 1558 1373 1578 1366 q 1514 1381 1538 1381 q 1435 1364 1471 1381 q 1371 1325 1399 1348 q 1358 1316 1361 1316 q 1352 1322 1352 1316 q 1365 1344 1352 1335 q 1434 1382 1393 1367 q 1515 1397 1475 1397 q 1586 1381 1558 1397 q 1615 1331 1613 1365 q 1599 1276 1617 1309 q 1554 1217 1581 1244 q 1519 1177 1529 1192 q 1510 1143 1509 1163 z "},"Ẵ":{"ha":1104,"x_min":0,"x_max":1735,"o":"m 144 -3 q 36 25 72 -3 q 0 96 0 54 q 21 139 0 126 q 64 151 43 151 q 86 144 75 151 q 98 121 98 138 q 86 98 98 108 q 60 87 75 87 q 42 89 51 87 q 27 94 34 90 l 27 90 q 55 36 27 57 q 149 15 83 15 q 242 35 195 15 q 341 90 290 54 q 391 127 366 108 q 442 169 416 147 q 288 271 344 205 q 229 408 232 336 q 249 497 227 456 q 317 564 271 538 q 428 589 362 589 q 589 535 519 589 q 696 402 659 481 l 715 420 q 932 631 840 546 q 1091 769 1025 715 q 1206 855 1158 823 q 1292 907 1255 887 q 1375 943 1342 933 q 1424 952 1407 952 q 1436 946 1436 952 q 1423 938 1436 943 q 1394 915 1413 935 q 1338 848 1375 895 q 1238 716 1301 801 q 1077 501 1175 632 q 836 181 979 370 q 1052 297 959 218 q 1184 481 1145 376 q 1195 501 1192 501 q 1201 495 1197 501 q 1206 481 1206 490 q 1173 379 1202 423 q 1103 294 1143 334 q 973 206 1048 241 q 814 153 898 170 l 698 -1 q 655 2 677 1 q 619 3 633 3 q 598 2 608 3 q 580 -1 589 1 q 631 63 606 32 q 680 123 656 94 q 688 136 686 132 q 666 135 677 136 q 645 135 656 135 q 550 142 595 135 q 466 161 505 149 q 381 93 418 120 q 319 50 345 66 q 232 9 275 22 q 144 -3 189 -3 m 726 179 q 1047 566 917 414 q 1257 805 1178 719 q 1374 926 1337 892 q 1329 907 1352 918 q 1273 878 1305 897 q 1146 786 1218 844 q 976 638 1074 727 q 749 423 879 549 l 706 381 q 727 311 720 347 q 734 239 734 275 q 726 179 734 209 m 458 182 q 559 272 505 222 q 681 388 613 322 q 579 519 646 469 q 429 569 513 569 q 350 547 386 569 q 292 488 313 524 q 271 410 271 452 q 317 277 271 339 q 458 182 364 216 m 649 154 q 696 156 673 154 q 708 199 705 177 q 712 235 712 220 q 690 366 712 302 q 576 259 628 306 q 482 175 524 212 q 649 154 556 154 m 1453 1034 q 1391 1052 1417 1034 q 1362 1112 1364 1071 q 1364 1160 1360 1137 l 1383 1160 q 1381 1117 1379 1139 q 1398 1071 1383 1084 q 1432 1058 1413 1058 q 1524 1084 1481 1058 q 1615 1160 1567 1110 l 1703 1160 q 1588 1071 1653 1108 q 1453 1034 1522 1034 m 1407 1204 q 1400 1213 1400 1204 q 1408 1241 1400 1224 q 1435 1277 1417 1258 q 1474 1308 1454 1297 q 1510 1318 1495 1318 q 1539 1313 1523 1318 q 1579 1291 1555 1308 q 1622 1267 1605 1274 q 1651 1261 1639 1261 q 1714 1312 1693 1261 q 1727 1324 1721 1324 q 1735 1317 1735 1324 q 1698 1251 1735 1291 q 1659 1220 1680 1231 q 1623 1210 1638 1210 q 1593 1216 1608 1210 q 1547 1242 1577 1221 q 1510 1263 1524 1257 q 1483 1268 1497 1268 q 1419 1215 1440 1268 q 1407 1204 1413 1204 z "},"Ǎ":{"ha":1104,"x_min":0,"x_max":1706,"o":"m 144 -3 q 36 25 72 -3 q 0 96 0 54 q 21 139 0 126 q 64 151 43 151 q 86 144 75 151 q 98 121 98 138 q 86 98 98 108 q 60 87 75 87 q 42 89 51 87 q 27 94 34 90 l 27 90 q 55 36 27 57 q 149 15 83 15 q 242 35 195 15 q 341 90 290 54 q 391 127 366 108 q 442 169 416 147 q 288 271 344 205 q 229 408 232 336 q 249 497 227 456 q 317 564 271 538 q 428 589 362 589 q 589 535 519 589 q 696 402 659 481 l 715 420 q 932 631 840 546 q 1091 769 1025 715 q 1206 855 1158 823 q 1292 907 1255 887 q 1375 943 1342 933 q 1424 952 1407 952 q 1436 946 1436 952 q 1423 938 1436 943 q 1394 915 1413 935 q 1338 848 1375 895 q 1238 716 1301 801 q 1077 501 1175 632 q 836 181 979 370 q 1052 297 959 218 q 1184 481 1145 376 q 1195 501 1192 501 q 1201 495 1197 501 q 1206 481 1206 490 q 1173 379 1202 423 q 1103 294 1143 334 q 973 206 1048 241 q 814 153 898 170 l 698 -1 q 655 2 677 1 q 619 3 633 3 q 598 2 608 3 q 580 -1 589 1 q 631 63 606 32 q 680 123 656 94 q 688 136 686 132 q 666 135 677 136 q 645 135 656 135 q 550 142 595 135 q 466 161 505 149 q 381 93 418 120 q 319 50 345 66 q 232 9 275 22 q 144 -3 189 -3 m 726 179 q 1047 566 917 414 q 1257 805 1178 719 q 1374 926 1337 892 q 1329 907 1352 918 q 1273 878 1305 897 q 1146 786 1218 844 q 976 638 1074 727 q 749 423 879 549 l 706 381 q 727 311 720 347 q 734 239 734 275 q 726 179 734 209 m 458 182 q 559 272 505 222 q 681 388 613 322 q 579 519 646 469 q 429 569 513 569 q 350 547 386 569 q 292 488 313 524 q 271 410 271 452 q 317 277 271 339 q 458 182 364 216 m 649 154 q 696 156 673 154 q 708 199 705 177 q 712 235 712 220 q 690 366 712 302 q 576 259 628 306 q 482 175 524 212 q 649 154 556 154 m 1447 1000 q 1440 1006 1440 1000 q 1445 1023 1440 1010 q 1456 1061 1451 1036 q 1461 1126 1461 1086 q 1440 1222 1461 1193 q 1432 1231 1435 1227 q 1430 1237 1430 1234 q 1440 1245 1430 1245 q 1471 1224 1452 1245 q 1502 1162 1489 1204 q 1510 1132 1508 1147 q 1514 1102 1513 1117 q 1603 1178 1564 1148 q 1677 1233 1643 1208 q 1693 1243 1687 1240 q 1702 1245 1698 1245 q 1706 1242 1706 1245 q 1702 1234 1706 1238 q 1677 1211 1697 1229 q 1632 1173 1666 1202 q 1558 1105 1598 1143 q 1487 1034 1518 1067 q 1460 1006 1468 1013 q 1447 1000 1453 1000 z "},"Â":{"ha":1104,"x_min":0,"x_max":1560,"o":"m 144 -3 q 36 25 72 -3 q 0 96 0 54 q 21 139 0 126 q 64 151 43 151 q 86 144 75 151 q 98 121 98 138 q 86 98 98 108 q 60 87 75 87 q 42 89 51 87 q 27 94 34 90 l 27 90 q 55 36 27 57 q 149 15 83 15 q 242 35 195 15 q 341 90 290 54 q 391 127 366 108 q 442 169 416 147 q 288 271 344 205 q 229 408 232 336 q 249 497 227 456 q 317 564 271 538 q 428 589 362 589 q 589 535 519 589 q 696 402 659 481 l 715 420 q 932 631 840 546 q 1091 769 1025 715 q 1206 855 1158 823 q 1292 907 1255 887 q 1375 943 1342 933 q 1424 952 1407 952 q 1436 946 1436 952 q 1423 938 1436 943 q 1394 915 1413 935 q 1338 848 1375 895 q 1238 716 1301 801 q 1077 501 1175 632 q 836 181 979 370 q 1052 297 959 218 q 1184 481 1145 376 q 1195 501 1192 501 q 1201 495 1197 501 q 1206 481 1206 490 q 1173 379 1202 423 q 1103 294 1143 334 q 973 206 1048 241 q 814 153 898 170 l 698 -1 q 655 2 677 1 q 619 3 633 3 q 598 2 608 3 q 580 -1 589 1 q 631 63 606 32 q 680 123 656 94 q 688 136 686 132 q 666 135 677 136 q 645 135 656 135 q 550 142 595 135 q 466 161 505 149 q 381 93 418 120 q 319 50 345 66 q 232 9 275 22 q 144 -3 189 -3 m 726 179 q 1047 566 917 414 q 1257 805 1178 719 q 1374 926 1337 892 q 1329 907 1352 918 q 1273 878 1305 897 q 1146 786 1218 844 q 976 638 1074 727 q 749 423 879 549 l 706 381 q 727 311 720 347 q 734 239 734 275 q 726 179 734 209 m 458 182 q 559 272 505 222 q 681 388 613 322 q 579 519 646 469 q 429 569 513 569 q 350 547 386 569 q 292 488 313 524 q 271 410 271 452 q 317 277 271 339 q 458 182 364 216 m 649 154 q 696 156 673 154 q 708 199 705 177 q 712 235 712 220 q 690 366 712 302 q 576 259 628 306 q 482 175 524 212 q 649 154 556 154 m 1289 1014 q 1284 1017 1284 1014 q 1289 1025 1284 1021 q 1314 1048 1294 1030 q 1359 1087 1326 1057 q 1433 1154 1392 1116 q 1504 1225 1473 1192 q 1531 1253 1524 1247 q 1544 1259 1539 1259 q 1550 1253 1550 1259 q 1546 1236 1550 1249 q 1535 1198 1540 1223 q 1529 1132 1529 1173 q 1552 1037 1529 1065 q 1558 1028 1556 1031 q 1560 1022 1560 1025 q 1550 1014 1560 1014 q 1520 1035 1539 1014 q 1489 1097 1501 1056 q 1481 1126 1484 1111 q 1477 1156 1478 1141 q 1388 1080 1427 1109 q 1314 1026 1348 1050 q 1298 1016 1303 1019 q 1289 1014 1293 1014 z "},"Ấ":{"ha":1104,"x_min":0,"x_max":1809,"o":"m 144 -3 q 36 25 72 -3 q 0 96 0 54 q 21 139 0 126 q 64 151 43 151 q 86 144 75 151 q 98 121 98 138 q 86 98 98 108 q 60 87 75 87 q 42 89 51 87 q 27 94 34 90 l 27 90 q 55 36 27 57 q 149 15 83 15 q 242 35 195 15 q 341 90 290 54 q 391 127 366 108 q 442 169 416 147 q 288 271 344 205 q 229 408 232 336 q 249 497 227 456 q 317 564 271 538 q 428 589 362 589 q 589 535 519 589 q 696 402 659 481 l 715 420 q 932 631 840 546 q 1091 769 1025 715 q 1206 855 1158 823 q 1292 907 1255 887 q 1375 943 1342 933 q 1424 952 1407 952 q 1436 946 1436 952 q 1423 938 1436 943 q 1394 915 1413 935 q 1338 848 1375 895 q 1238 716 1301 801 q 1077 501 1175 632 q 836 181 979 370 q 1052 297 959 218 q 1184 481 1145 376 q 1195 501 1192 501 q 1201 495 1197 501 q 1206 481 1206 490 q 1173 379 1202 423 q 1103 294 1143 334 q 973 206 1048 241 q 814 153 898 170 l 698 -1 q 655 2 677 1 q 619 3 633 3 q 598 2 608 3 q 580 -1 589 1 q 631 63 606 32 q 680 123 656 94 q 688 136 686 132 q 666 135 677 136 q 645 135 656 135 q 550 142 595 135 q 466 161 505 149 q 381 93 418 120 q 319 50 345 66 q 232 9 275 22 q 144 -3 189 -3 m 726 179 q 1047 566 917 414 q 1257 805 1178 719 q 1374 926 1337 892 q 1329 907 1352 918 q 1273 878 1305 897 q 1146 786 1218 844 q 976 638 1074 727 q 749 423 879 549 l 706 381 q 727 311 720 347 q 734 239 734 275 q 726 179 734 209 m 458 182 q 559 272 505 222 q 681 388 613 322 q 579 519 646 469 q 429 569 513 569 q 350 547 386 569 q 292 488 313 524 q 271 410 271 452 q 317 277 271 339 q 458 182 364 216 m 649 154 q 696 156 673 154 q 708 199 705 177 q 712 235 712 220 q 690 366 712 302 q 576 259 628 306 q 482 175 524 212 q 649 154 556 154 m 1563 1014 q 1530 1036 1552 1014 q 1497 1099 1509 1057 q 1493 1119 1495 1109 q 1490 1138 1491 1129 q 1404 1076 1444 1103 q 1330 1027 1364 1049 q 1304 1015 1311 1015 q 1297 1018 1297 1015 q 1301 1027 1297 1022 q 1326 1048 1305 1032 q 1425 1125 1379 1088 q 1517 1206 1470 1162 q 1544 1233 1537 1227 q 1557 1239 1552 1239 q 1563 1234 1563 1239 q 1558 1216 1563 1225 q 1547 1178 1553 1203 q 1541 1112 1541 1152 q 1564 1038 1541 1061 q 1571 1029 1568 1032 q 1574 1023 1574 1027 q 1571 1018 1574 1021 q 1563 1014 1568 1014 m 1629 1097 q 1623 1101 1625 1097 q 1622 1105 1622 1105 q 1639 1121 1622 1107 q 1680 1149 1658 1132 q 1716 1189 1702 1167 q 1731 1216 1725 1202 q 1743 1258 1737 1231 q 1780 1306 1749 1306 q 1800 1297 1792 1306 q 1809 1269 1809 1289 q 1789 1220 1809 1248 q 1736 1163 1769 1192 q 1664 1112 1703 1135 q 1629 1097 1638 1097 z "},"Ậ":{"ha":1104,"x_min":0,"x_max":1560,"o":"m 144 -3 q 36 25 72 -3 q 0 96 0 54 q 21 139 0 126 q 64 151 43 151 q 86 144 75 151 q 98 121 98 138 q 86 98 98 108 q 60 87 75 87 q 42 89 51 87 q 27 94 34 90 l 27 90 q 55 36 27 57 q 149 15 83 15 q 242 35 195 15 q 341 90 290 54 q 391 127 366 108 q 442 169 416 147 q 288 271 344 205 q 229 408 232 336 q 249 497 227 456 q 317 564 271 538 q 428 589 362 589 q 589 535 519 589 q 696 402 659 481 l 715 420 q 932 631 840 546 q 1091 769 1025 715 q 1206 855 1158 823 q 1292 907 1255 887 q 1375 943 1342 933 q 1424 952 1407 952 q 1436 946 1436 952 q 1423 938 1436 943 q 1394 915 1413 935 q 1338 848 1375 895 q 1238 716 1301 801 q 1077 501 1175 632 q 836 181 979 370 q 1052 297 959 218 q 1184 481 1145 376 q 1195 501 1192 501 q 1201 495 1197 501 q 1206 481 1206 490 q 1173 379 1202 423 q 1103 294 1143 334 q 973 206 1048 241 q 814 153 898 170 l 698 -1 q 655 2 677 1 q 619 3 633 3 q 598 2 608 3 q 580 -1 589 1 q 631 63 606 32 q 680 123 656 94 q 688 136 686 132 q 666 135 677 136 q 645 135 656 135 q 550 142 595 135 q 466 161 505 149 q 381 93 418 120 q 319 50 345 66 q 232 9 275 22 q 144 -3 189 -3 m 726 179 q 1047 566 917 414 q 1257 805 1178 719 q 1374 926 1337 892 q 1329 907 1352 918 q 1273 878 1305 897 q 1146 786 1218 844 q 976 638 1074 727 q 749 423 879 549 l 706 381 q 727 311 720 347 q 734 239 734 275 q 726 179 734 209 m 458 182 q 559 272 505 222 q 681 388 613 322 q 579 519 646 469 q 429 569 513 569 q 350 547 386 569 q 292 488 313 524 q 271 410 271 452 q 317 277 271 339 q 458 182 364 216 m 649 154 q 696 156 673 154 q 708 199 705 177 q 712 235 712 220 q 690 366 712 302 q 576 259 628 306 q 482 175 524 212 q 649 154 556 154 m 340 -176 q 310 -164 321 -176 q 298 -134 298 -152 q 318 -90 298 -110 q 366 -70 338 -70 q 396 -82 385 -70 q 408 -113 408 -95 q 386 -157 408 -138 q 340 -176 365 -176 m 1289 1014 q 1284 1017 1284 1014 q 1289 1025 1284 1021 q 1314 1048 1294 1030 q 1359 1087 1326 1057 q 1433 1154 1392 1116 q 1504 1225 1473 1192 q 1531 1253 1524 1247 q 1544 1259 1539 1259 q 1550 1253 1550 1259 q 1546 1236 1550 1249 q 1535 1198 1540 1223 q 1529 1132 1529 1173 q 1552 1037 1529 1065 q 1558 1028 1556 1031 q 1560 1022 1560 1025 q 1550 1014 1560 1014 q 1520 1035 1539 1014 q 1489 1097 1501 1056 q 1481 1126 1484 1111 q 1477 1156 1478 1141 q 1388 1080 1427 1109 q 1314 1026 1348 1050 q 1298 1016 1303 1019 q 1289 1014 1293 1014 z "},"Ầ":{"ha":1104,"x_min":0,"x_max":1790,"o":"m 144 -3 q 36 25 72 -3 q 0 96 0 54 q 21 139 0 126 q 64 151 43 151 q 86 144 75 151 q 98 121 98 138 q 86 98 98 108 q 60 87 75 87 q 42 89 51 87 q 27 94 34 90 l 27 90 q 55 36 27 57 q 149 15 83 15 q 242 35 195 15 q 341 90 290 54 q 391 127 366 108 q 442 169 416 147 q 288 271 344 205 q 229 408 232 336 q 249 497 227 456 q 317 564 271 538 q 428 589 362 589 q 589 535 519 589 q 696 402 659 481 l 715 420 q 932 631 840 546 q 1091 769 1025 715 q 1206 855 1158 823 q 1292 907 1255 887 q 1375 943 1342 933 q 1424 952 1407 952 q 1436 946 1436 952 q 1423 938 1436 943 q 1394 915 1413 935 q 1338 848 1375 895 q 1238 716 1301 801 q 1077 501 1175 632 q 836 181 979 370 q 1052 297 959 218 q 1184 481 1145 376 q 1195 501 1192 501 q 1201 495 1197 501 q 1206 481 1206 490 q 1173 379 1202 423 q 1103 294 1143 334 q 973 206 1048 241 q 814 153 898 170 l 698 -1 q 655 2 677 1 q 619 3 633 3 q 598 2 608 3 q 580 -1 589 1 q 631 63 606 32 q 680 123 656 94 q 688 136 686 132 q 666 135 677 136 q 645 135 656 135 q 550 142 595 135 q 466 161 505 149 q 381 93 418 120 q 319 50 345 66 q 232 9 275 22 q 144 -3 189 -3 m 726 179 q 1047 566 917 414 q 1257 805 1178 719 q 1374 926 1337 892 q 1329 907 1352 918 q 1273 878 1305 897 q 1146 786 1218 844 q 976 638 1074 727 q 749 423 879 549 l 706 381 q 727 311 720 347 q 734 239 734 275 q 726 179 734 209 m 458 182 q 559 272 505 222 q 681 388 613 322 q 579 519 646 469 q 429 569 513 569 q 350 547 386 569 q 292 488 313 524 q 271 410 271 452 q 317 277 271 339 q 458 182 364 216 m 649 154 q 696 156 673 154 q 708 199 705 177 q 712 235 712 220 q 690 366 712 302 q 576 259 628 306 q 482 175 524 212 q 649 154 556 154 m 1563 1014 q 1530 1036 1552 1014 q 1497 1099 1509 1057 q 1493 1119 1495 1109 q 1490 1138 1491 1129 q 1404 1076 1444 1103 q 1330 1027 1364 1049 q 1304 1015 1311 1015 q 1297 1018 1297 1015 q 1301 1027 1297 1022 q 1326 1048 1305 1032 q 1425 1125 1379 1088 q 1517 1206 1470 1162 q 1544 1233 1537 1227 q 1557 1239 1552 1239 q 1563 1234 1563 1239 q 1558 1216 1563 1225 q 1547 1178 1553 1203 q 1541 1112 1541 1152 q 1564 1038 1541 1061 q 1571 1029 1568 1032 q 1574 1023 1574 1027 q 1571 1018 1574 1021 q 1563 1014 1568 1014 m 1782 1016 q 1747 1031 1774 1016 q 1676 1082 1709 1054 q 1623 1139 1643 1111 q 1603 1188 1603 1167 q 1632 1225 1603 1225 q 1670 1177 1662 1225 q 1682 1136 1675 1150 q 1697 1108 1688 1121 q 1732 1069 1710 1086 q 1773 1040 1754 1051 q 1790 1024 1790 1027 q 1789 1020 1790 1024 q 1782 1016 1788 1016 z "},"Ẩ":{"ha":1104,"x_min":0,"x_max":1789,"o":"m 144 -3 q 36 25 72 -3 q 0 96 0 54 q 21 139 0 126 q 64 151 43 151 q 86 144 75 151 q 98 121 98 138 q 86 98 98 108 q 60 87 75 87 q 42 89 51 87 q 27 94 34 90 l 27 90 q 55 36 27 57 q 149 15 83 15 q 242 35 195 15 q 341 90 290 54 q 391 127 366 108 q 442 169 416 147 q 288 271 344 205 q 229 408 232 336 q 249 497 227 456 q 317 564 271 538 q 428 589 362 589 q 589 535 519 589 q 696 402 659 481 l 715 420 q 932 631 840 546 q 1091 769 1025 715 q 1206 855 1158 823 q 1292 907 1255 887 q 1375 943 1342 933 q 1424 952 1407 952 q 1436 946 1436 952 q 1423 938 1436 943 q 1394 915 1413 935 q 1338 848 1375 895 q 1238 716 1301 801 q 1077 501 1175 632 q 836 181 979 370 q 1052 297 959 218 q 1184 481 1145 376 q 1195 501 1192 501 q 1201 495 1197 501 q 1206 481 1206 490 q 1173 379 1202 423 q 1103 294 1143 334 q 973 206 1048 241 q 814 153 898 170 l 698 -1 q 655 2 677 1 q 619 3 633 3 q 598 2 608 3 q 580 -1 589 1 q 631 63 606 32 q 680 123 656 94 q 688 136 686 132 q 666 135 677 136 q 645 135 656 135 q 550 142 595 135 q 466 161 505 149 q 381 93 418 120 q 319 50 345 66 q 232 9 275 22 q 144 -3 189 -3 m 726 179 q 1047 566 917 414 q 1257 805 1178 719 q 1374 926 1337 892 q 1329 907 1352 918 q 1273 878 1305 897 q 1146 786 1218 844 q 976 638 1074 727 q 749 423 879 549 l 706 381 q 727 311 720 347 q 734 239 734 275 q 726 179 734 209 m 458 182 q 559 272 505 222 q 681 388 613 322 q 579 519 646 469 q 429 569 513 569 q 350 547 386 569 q 292 488 313 524 q 271 410 271 452 q 317 277 271 339 q 458 182 364 216 m 649 154 q 696 156 673 154 q 708 199 705 177 q 712 235 712 220 q 690 366 712 302 q 576 259 628 306 q 482 175 524 212 q 649 154 556 154 m 1563 1014 q 1530 1036 1552 1014 q 1497 1099 1509 1057 q 1493 1119 1495 1109 q 1490 1138 1491 1129 q 1404 1076 1444 1103 q 1330 1027 1364 1049 q 1304 1015 1311 1015 q 1297 1018 1297 1015 q 1301 1027 1297 1022 q 1326 1048 1305 1032 q 1425 1125 1379 1088 q 1517 1206 1470 1162 q 1544 1233 1537 1227 q 1557 1239 1552 1239 q 1563 1234 1563 1239 q 1558 1216 1563 1225 q 1547 1178 1553 1203 q 1541 1112 1541 1152 q 1564 1038 1541 1061 q 1571 1029 1568 1032 q 1574 1023 1574 1027 q 1571 1018 1574 1021 q 1563 1014 1568 1014 m 1682 1123 q 1656 1132 1668 1124 q 1645 1156 1645 1140 q 1695 1246 1645 1195 q 1731 1284 1712 1264 q 1750 1326 1750 1304 q 1730 1354 1750 1346 q 1686 1361 1710 1361 q 1607 1345 1643 1361 q 1544 1305 1571 1329 q 1530 1297 1533 1297 q 1525 1303 1525 1297 q 1537 1324 1524 1316 q 1606 1362 1565 1348 q 1687 1377 1647 1377 q 1758 1361 1730 1377 q 1788 1312 1786 1345 q 1771 1257 1789 1289 q 1727 1197 1753 1224 q 1691 1158 1702 1172 q 1682 1123 1681 1143 z "},"Ẫ":{"ha":1104,"x_min":0,"x_max":1786,"o":"m 144 -3 q 36 25 72 -3 q 0 96 0 54 q 21 139 0 126 q 64 151 43 151 q 86 144 75 151 q 98 121 98 138 q 86 98 98 108 q 60 87 75 87 q 42 89 51 87 q 27 94 34 90 l 27 90 q 55 36 27 57 q 149 15 83 15 q 242 35 195 15 q 341 90 290 54 q 391 127 366 108 q 442 169 416 147 q 288 271 344 205 q 229 408 232 336 q 249 497 227 456 q 317 564 271 538 q 428 589 362 589 q 589 535 519 589 q 696 402 659 481 l 715 420 q 932 631 840 546 q 1091 769 1025 715 q 1206 855 1158 823 q 1292 907 1255 887 q 1375 943 1342 933 q 1424 952 1407 952 q 1436 946 1436 952 q 1423 938 1436 943 q 1394 915 1413 935 q 1338 848 1375 895 q 1238 716 1301 801 q 1077 501 1175 632 q 836 181 979 370 q 1052 297 959 218 q 1184 481 1145 376 q 1195 501 1192 501 q 1201 495 1197 501 q 1206 481 1206 490 q 1173 379 1202 423 q 1103 294 1143 334 q 973 206 1048 241 q 814 153 898 170 l 698 -1 q 655 2 677 1 q 619 3 633 3 q 598 2 608 3 q 580 -1 589 1 q 631 63 606 32 q 680 123 656 94 q 688 136 686 132 q 666 135 677 136 q 645 135 656 135 q 550 142 595 135 q 466 161 505 149 q 381 93 418 120 q 319 50 345 66 q 232 9 275 22 q 144 -3 189 -3 m 726 179 q 1047 566 917 414 q 1257 805 1178 719 q 1374 926 1337 892 q 1329 907 1352 918 q 1273 878 1305 897 q 1146 786 1218 844 q 976 638 1074 727 q 749 423 879 549 l 706 381 q 727 311 720 347 q 734 239 734 275 q 726 179 734 209 m 458 182 q 559 272 505 222 q 681 388 613 322 q 579 519 646 469 q 429 569 513 569 q 350 547 386 569 q 292 488 313 524 q 271 410 271 452 q 317 277 271 339 q 458 182 364 216 m 649 154 q 696 156 673 154 q 708 199 705 177 q 712 235 712 220 q 690 366 712 302 q 576 259 628 306 q 482 175 524 212 q 649 154 556 154 m 1563 1014 q 1530 1036 1552 1014 q 1497 1099 1509 1057 q 1493 1119 1495 1109 q 1490 1138 1491 1129 q 1404 1076 1444 1103 q 1330 1027 1364 1049 q 1304 1015 1311 1015 q 1297 1018 1297 1015 q 1301 1027 1297 1022 q 1326 1048 1305 1032 q 1425 1125 1379 1088 q 1517 1206 1470 1162 q 1544 1233 1537 1227 q 1557 1239 1552 1239 q 1563 1234 1563 1239 q 1558 1216 1563 1225 q 1547 1178 1553 1203 q 1541 1112 1541 1152 q 1564 1038 1541 1061 q 1571 1029 1568 1032 q 1574 1023 1574 1027 q 1571 1018 1574 1021 q 1563 1014 1568 1014 m 1458 1265 q 1451 1273 1451 1265 q 1460 1301 1451 1284 q 1487 1337 1468 1318 q 1526 1368 1506 1358 q 1562 1379 1546 1379 q 1591 1373 1575 1379 q 1630 1351 1607 1368 q 1673 1328 1656 1334 q 1703 1321 1691 1321 q 1765 1373 1744 1321 q 1778 1385 1773 1385 q 1786 1377 1786 1385 q 1750 1311 1786 1351 q 1711 1281 1731 1291 q 1674 1270 1690 1270 q 1644 1276 1659 1270 q 1598 1302 1629 1282 q 1562 1323 1575 1318 q 1535 1329 1548 1329 q 1471 1276 1491 1329 q 1458 1265 1465 1265 z "},"Ȁ":{"ha":1104,"x_min":0,"x_max":1525,"o":"m 144 -3 q 36 25 72 -3 q 0 96 0 54 q 21 139 0 126 q 64 151 43 151 q 86 144 75 151 q 98 121 98 138 q 86 98 98 108 q 60 87 75 87 q 42 89 51 87 q 27 94 34 90 l 27 90 q 55 36 27 57 q 149 15 83 15 q 242 35 195 15 q 341 90 290 54 q 391 127 366 108 q 442 169 416 147 q 288 271 344 205 q 229 408 232 336 q 249 497 227 456 q 317 564 271 538 q 428 589 362 589 q 589 535 519 589 q 696 402 659 481 l 715 420 q 932 631 840 546 q 1091 769 1025 715 q 1206 855 1158 823 q 1292 907 1255 887 q 1375 943 1342 933 q 1424 952 1407 952 q 1436 946 1436 952 q 1423 938 1436 943 q 1394 915 1413 935 q 1338 848 1375 895 q 1238 716 1301 801 q 1077 501 1175 632 q 836 181 979 370 q 1052 297 959 218 q 1184 481 1145 376 q 1195 501 1192 501 q 1201 495 1197 501 q 1206 481 1206 490 q 1173 379 1202 423 q 1103 294 1143 334 q 973 206 1048 241 q 814 153 898 170 l 698 -1 q 655 2 677 1 q 619 3 633 3 q 598 2 608 3 q 580 -1 589 1 q 631 63 606 32 q 680 123 656 94 q 688 136 686 132 q 666 135 677 136 q 645 135 656 135 q 550 142 595 135 q 466 161 505 149 q 381 93 418 120 q 319 50 345 66 q 232 9 275 22 q 144 -3 189 -3 m 726 179 q 1047 566 917 414 q 1257 805 1178 719 q 1374 926 1337 892 q 1329 907 1352 918 q 1273 878 1305 897 q 1146 786 1218 844 q 976 638 1074 727 q 749 423 879 549 l 706 381 q 727 311 720 347 q 734 239 734 275 q 726 179 734 209 m 458 182 q 559 272 505 222 q 681 388 613 322 q 579 519 646 469 q 429 569 513 569 q 350 547 386 569 q 292 488 313 524 q 271 410 271 452 q 317 277 271 339 q 458 182 364 216 m 649 154 q 696 156 673 154 q 708 199 705 177 q 712 235 712 220 q 690 366 712 302 q 576 259 628 306 q 482 175 524 212 q 649 154 556 154 m 1516 1009 q 1481 1025 1508 1009 q 1410 1076 1443 1047 q 1357 1132 1377 1104 q 1337 1181 1337 1160 q 1367 1219 1337 1219 q 1404 1171 1396 1219 q 1416 1129 1409 1143 q 1431 1101 1422 1114 q 1466 1062 1444 1080 q 1508 1034 1488 1044 q 1525 1017 1525 1021 q 1523 1013 1525 1017 q 1516 1009 1522 1009 m 1369 1009 q 1333 1025 1360 1009 q 1262 1076 1295 1047 q 1210 1132 1230 1104 q 1190 1181 1190 1160 q 1219 1219 1190 1219 q 1256 1171 1248 1219 q 1268 1129 1261 1143 q 1283 1101 1274 1114 q 1318 1062 1297 1080 q 1360 1034 1340 1044 q 1377 1017 1377 1021 q 1375 1013 1377 1017 q 1369 1009 1374 1009 z "},"Ä":{"ha":1104,"x_min":0,"x_max":1622,"o":"m 144 -3 q 36 25 72 -3 q 0 96 0 54 q 21 139 0 126 q 64 151 43 151 q 86 144 75 151 q 98 121 98 138 q 86 98 98 108 q 60 87 75 87 q 42 89 51 87 q 27 94 34 90 l 27 90 q 55 36 27 57 q 149 15 83 15 q 242 35 195 15 q 341 90 290 54 q 391 127 366 108 q 442 169 416 147 q 288 271 344 205 q 229 408 232 336 q 249 497 227 456 q 317 564 271 538 q 428 589 362 589 q 589 535 519 589 q 696 402 659 481 l 715 420 q 932 631 840 546 q 1091 769 1025 715 q 1206 855 1158 823 q 1292 907 1255 887 q 1375 943 1342 933 q 1424 952 1407 952 q 1436 946 1436 952 q 1423 938 1436 943 q 1394 915 1413 935 q 1338 848 1375 895 q 1238 716 1301 801 q 1077 501 1175 632 q 836 181 979 370 q 1052 297 959 218 q 1184 481 1145 376 q 1195 501 1192 501 q 1201 495 1197 501 q 1206 481 1206 490 q 1173 379 1202 423 q 1103 294 1143 334 q 973 206 1048 241 q 814 153 898 170 l 698 -1 q 655 2 677 1 q 619 3 633 3 q 598 2 608 3 q 580 -1 589 1 q 631 63 606 32 q 680 123 656 94 q 688 136 686 132 q 666 135 677 136 q 645 135 656 135 q 550 142 595 135 q 466 161 505 149 q 381 93 418 120 q 319 50 345 66 q 232 9 275 22 q 144 -3 189 -3 m 726 179 q 1047 566 917 414 q 1257 805 1178 719 q 1374 926 1337 892 q 1329 907 1352 918 q 1273 878 1305 897 q 1146 786 1218 844 q 976 638 1074 727 q 749 423 879 549 l 706 381 q 727 311 720 347 q 734 239 734 275 q 726 179 734 209 m 458 182 q 559 272 505 222 q 681 388 613 322 q 579 519 646 469 q 429 569 513 569 q 350 547 386 569 q 292 488 313 524 q 271 410 271 452 q 317 277 271 339 q 458 182 364 216 m 649 154 q 696 156 673 154 q 708 199 705 177 q 712 235 712 220 q 690 366 712 302 q 576 259 628 306 q 482 175 524 212 q 649 154 556 154 m 1554 1020 q 1524 1032 1535 1020 q 1512 1062 1512 1044 q 1533 1106 1512 1086 q 1581 1126 1553 1126 q 1611 1113 1600 1126 q 1622 1083 1622 1101 q 1600 1039 1622 1058 q 1554 1020 1579 1020 m 1351 1020 q 1322 1032 1333 1020 q 1310 1062 1310 1044 q 1330 1106 1310 1086 q 1377 1126 1350 1126 q 1408 1113 1397 1126 q 1418 1083 1418 1101 q 1397 1039 1418 1058 q 1351 1020 1376 1020 z "},"Ǟ":{"ha":1104,"x_min":0,"x_max":1718,"o":"m 144 -3 q 36 25 72 -3 q 0 96 0 54 q 21 139 0 126 q 64 151 43 151 q 86 144 75 151 q 98 121 98 138 q 86 98 98 108 q 60 87 75 87 q 42 89 51 87 q 27 94 34 90 l 27 90 q 55 36 27 57 q 149 15 83 15 q 242 35 195 15 q 341 90 290 54 q 391 127 366 108 q 442 169 416 147 q 288 271 344 205 q 229 408 232 336 q 249 497 227 456 q 317 564 271 538 q 428 589 362 589 q 589 535 519 589 q 696 402 659 481 l 715 420 q 932 631 840 546 q 1091 769 1025 715 q 1206 855 1158 823 q 1292 907 1255 887 q 1375 943 1342 933 q 1424 952 1407 952 q 1436 946 1436 952 q 1423 938 1436 943 q 1394 915 1413 935 q 1338 848 1375 895 q 1238 716 1301 801 q 1077 501 1175 632 q 836 181 979 370 q 1052 297 959 218 q 1184 481 1145 376 q 1195 501 1192 501 q 1201 495 1197 501 q 1206 481 1206 490 q 1173 379 1202 423 q 1103 294 1143 334 q 973 206 1048 241 q 814 153 898 170 l 698 -1 q 655 2 677 1 q 619 3 633 3 q 598 2 608 3 q 580 -1 589 1 q 631 63 606 32 q 680 123 656 94 q 688 136 686 132 q 666 135 677 136 q 645 135 656 135 q 550 142 595 135 q 466 161 505 149 q 381 93 418 120 q 319 50 345 66 q 232 9 275 22 q 144 -3 189 -3 m 726 179 q 1047 566 917 414 q 1257 805 1178 719 q 1374 926 1337 892 q 1329 907 1352 918 q 1273 878 1305 897 q 1146 786 1218 844 q 976 638 1074 727 q 749 423 879 549 l 706 381 q 727 311 720 347 q 734 239 734 275 q 726 179 734 209 m 458 182 q 559 272 505 222 q 681 388 613 322 q 579 519 646 469 q 429 569 513 569 q 350 547 386 569 q 292 488 313 524 q 271 410 271 452 q 317 277 271 339 q 458 182 364 216 m 649 154 q 696 156 673 154 q 708 199 705 177 q 712 235 712 220 q 690 366 712 302 q 576 259 628 306 q 482 175 524 212 q 649 154 556 154 m 1554 1020 q 1524 1032 1535 1020 q 1512 1062 1512 1044 q 1533 1106 1512 1086 q 1581 1126 1553 1126 q 1611 1113 1600 1126 q 1622 1083 1622 1101 q 1600 1039 1622 1058 q 1554 1020 1579 1020 m 1351 1020 q 1322 1032 1333 1020 q 1310 1062 1310 1044 q 1330 1106 1310 1086 q 1377 1126 1350 1126 q 1408 1113 1397 1126 q 1418 1083 1418 1101 q 1397 1039 1418 1058 q 1351 1020 1376 1020 m 1349 1190 q 1377 1209 1364 1200 q 1398 1227 1390 1218 l 1718 1227 q 1676 1190 1690 1209 l 1349 1190 z "},"Ȧ":{"ha":1104,"x_min":0,"x_max":1546,"o":"m 144 -3 q 36 25 72 -3 q 0 96 0 54 q 21 139 0 126 q 64 151 43 151 q 86 144 75 151 q 98 121 98 138 q 86 98 98 108 q 60 87 75 87 q 42 89 51 87 q 27 94 34 90 l 27 90 q 55 36 27 57 q 149 15 83 15 q 242 35 195 15 q 341 90 290 54 q 391 127 366 108 q 442 169 416 147 q 288 271 344 205 q 229 408 232 336 q 249 497 227 456 q 317 564 271 538 q 428 589 362 589 q 589 535 519 589 q 696 402 659 481 l 715 420 q 932 631 840 546 q 1091 769 1025 715 q 1206 855 1158 823 q 1292 907 1255 887 q 1375 943 1342 933 q 1424 952 1407 952 q 1436 946 1436 952 q 1423 938 1436 943 q 1394 915 1413 935 q 1338 848 1375 895 q 1238 716 1301 801 q 1077 501 1175 632 q 836 181 979 370 q 1052 297 959 218 q 1184 481 1145 376 q 1195 501 1192 501 q 1201 495 1197 501 q 1206 481 1206 490 q 1173 379 1202 423 q 1103 294 1143 334 q 973 206 1048 241 q 814 153 898 170 l 698 -1 q 655 2 677 1 q 619 3 633 3 q 598 2 608 3 q 580 -1 589 1 q 631 63 606 32 q 680 123 656 94 q 688 136 686 132 q 666 135 677 136 q 645 135 656 135 q 550 142 595 135 q 466 161 505 149 q 381 93 418 120 q 319 50 345 66 q 232 9 275 22 q 144 -3 189 -3 m 726 179 q 1047 566 917 414 q 1257 805 1178 719 q 1374 926 1337 892 q 1329 907 1352 918 q 1273 878 1305 897 q 1146 786 1218 844 q 976 638 1074 727 q 749 423 879 549 l 706 381 q 727 311 720 347 q 734 239 734 275 q 726 179 734 209 m 458 182 q 559 272 505 222 q 681 388 613 322 q 579 519 646 469 q 429 569 513 569 q 350 547 386 569 q 292 488 313 524 q 271 410 271 452 q 317 277 271 339 q 458 182 364 216 m 649 154 q 696 156 673 154 q 708 199 705 177 q 712 235 712 220 q 690 366 712 302 q 576 259 628 306 q 482 175 524 212 q 649 154 556 154 m 1478 1034 q 1448 1046 1459 1034 q 1437 1076 1437 1058 q 1457 1120 1437 1100 q 1505 1140 1477 1140 q 1535 1127 1524 1140 q 1546 1097 1546 1115 q 1525 1053 1546 1072 q 1478 1034 1503 1034 z "},"Ạ":{"ha":1104,"x_min":0,"x_max":1436,"o":"m 144 -3 q 36 25 72 -3 q 0 96 0 54 q 21 139 0 126 q 64 151 43 151 q 86 144 75 151 q 98 121 98 138 q 86 98 98 108 q 60 87 75 87 q 42 89 51 87 q 27 94 34 90 l 27 90 q 55 36 27 57 q 149 15 83 15 q 242 35 195 15 q 341 90 290 54 q 391 127 366 108 q 442 169 416 147 q 288 271 344 205 q 229 408 232 336 q 249 497 227 456 q 317 564 271 538 q 428 589 362 589 q 589 535 519 589 q 696 402 659 481 l 715 420 q 932 631 840 546 q 1091 769 1025 715 q 1206 855 1158 823 q 1292 907 1255 887 q 1375 943 1342 933 q 1424 952 1407 952 q 1436 946 1436 952 q 1423 938 1436 943 q 1394 915 1413 935 q 1338 848 1375 895 q 1238 716 1301 801 q 1077 501 1175 632 q 836 181 979 370 q 1052 297 959 218 q 1184 481 1145 376 q 1195 501 1192 501 q 1201 495 1197 501 q 1206 481 1206 490 q 1173 379 1202 423 q 1103 294 1143 334 q 973 206 1048 241 q 814 153 898 170 l 698 -1 q 655 2 677 1 q 619 3 633 3 q 598 2 608 3 q 580 -1 589 1 q 631 63 606 32 q 680 123 656 94 q 688 136 686 132 q 666 135 677 136 q 645 135 656 135 q 550 142 595 135 q 466 161 505 149 q 381 93 418 120 q 319 50 345 66 q 232 9 275 22 q 144 -3 189 -3 m 726 179 q 1047 566 917 414 q 1257 805 1178 719 q 1374 926 1337 892 q 1329 907 1352 918 q 1273 878 1305 897 q 1146 786 1218 844 q 976 638 1074 727 q 749 423 879 549 l 706 381 q 727 311 720 347 q 734 239 734 275 q 726 179 734 209 m 458 182 q 559 272 505 222 q 681 388 613 322 q 579 519 646 469 q 429 569 513 569 q 350 547 386 569 q 292 488 313 524 q 271 410 271 452 q 317 277 271 339 q 458 182 364 216 m 649 154 q 696 156 673 154 q 708 199 705 177 q 712 235 712 220 q 690 366 712 302 q 576 259 628 306 q 482 175 524 212 q 649 154 556 154 m 340 -176 q 310 -164 321 -176 q 298 -134 298 -152 q 318 -90 298 -110 q 366 -70 338 -70 q 396 -82 385 -70 q 408 -113 408 -95 q 386 -157 408 -138 q 340 -176 365 -176 z "},"Ǡ":{"ha":1104,"x_min":0,"x_max":1729,"o":"m 144 -3 q 36 25 72 -3 q 0 96 0 54 q 21 139 0 126 q 64 151 43 151 q 86 144 75 151 q 98 121 98 138 q 86 98 98 108 q 60 87 75 87 q 42 89 51 87 q 27 94 34 90 l 27 90 q 55 36 27 57 q 149 15 83 15 q 242 35 195 15 q 341 90 290 54 q 391 127 366 108 q 442 169 416 147 q 288 271 344 205 q 229 408 232 336 q 249 497 227 456 q 317 564 271 538 q 428 589 362 589 q 589 535 519 589 q 696 402 659 481 l 715 420 q 932 631 840 546 q 1091 769 1025 715 q 1206 855 1158 823 q 1292 907 1255 887 q 1375 943 1342 933 q 1424 952 1407 952 q 1436 946 1436 952 q 1423 938 1436 943 q 1394 915 1413 935 q 1338 848 1375 895 q 1238 716 1301 801 q 1077 501 1175 632 q 836 181 979 370 q 1052 297 959 218 q 1184 481 1145 376 q 1195 501 1192 501 q 1201 495 1197 501 q 1206 481 1206 490 q 1173 379 1202 423 q 1103 294 1143 334 q 973 206 1048 241 q 814 153 898 170 l 698 -1 q 655 2 677 1 q 619 3 633 3 q 598 2 608 3 q 580 -1 589 1 q 631 63 606 32 q 680 123 656 94 q 688 136 686 132 q 666 135 677 136 q 645 135 656 135 q 550 142 595 135 q 466 161 505 149 q 381 93 418 120 q 319 50 345 66 q 232 9 275 22 q 144 -3 189 -3 m 726 179 q 1047 566 917 414 q 1257 805 1178 719 q 1374 926 1337 892 q 1329 907 1352 918 q 1273 878 1305 897 q 1146 786 1218 844 q 976 638 1074 727 q 749 423 879 549 l 706 381 q 727 311 720 347 q 734 239 734 275 q 726 179 734 209 m 458 182 q 559 272 505 222 q 681 388 613 322 q 579 519 646 469 q 429 569 513 569 q 350 547 386 569 q 292 488 313 524 q 271 410 271 452 q 317 277 271 339 q 458 182 364 216 m 649 154 q 696 156 673 154 q 708 199 705 177 q 712 235 712 220 q 690 366 712 302 q 576 259 628 306 q 482 175 524 212 q 649 154 556 154 m 1478 1034 q 1448 1046 1459 1034 q 1437 1076 1437 1058 q 1457 1120 1437 1100 q 1505 1140 1477 1140 q 1535 1127 1524 1140 q 1546 1097 1546 1115 q 1525 1053 1546 1072 q 1478 1034 1503 1034 m 1360 1186 q 1388 1205 1375 1196 q 1409 1223 1400 1214 l 1729 1223 q 1687 1186 1701 1205 l 1360 1186 z "},"À":{"ha":1104,"x_min":0,"x_max":1479,"o":"m 144 -3 q 36 25 72 -3 q 0 96 0 54 q 21 139 0 126 q 64 151 43 151 q 86 144 75 151 q 98 121 98 138 q 86 98 98 108 q 60 87 75 87 q 42 89 51 87 q 27 94 34 90 l 27 90 q 55 36 27 57 q 149 15 83 15 q 242 35 195 15 q 341 90 290 54 q 391 127 366 108 q 442 169 416 147 q 288 271 344 205 q 229 408 232 336 q 249 497 227 456 q 317 564 271 538 q 428 589 362 589 q 589 535 519 589 q 696 402 659 481 l 715 420 q 932 631 840 546 q 1091 769 1025 715 q 1206 855 1158 823 q 1292 907 1255 887 q 1375 943 1342 933 q 1424 952 1407 952 q 1436 946 1436 952 q 1423 938 1436 943 q 1394 915 1413 935 q 1338 848 1375 895 q 1238 716 1301 801 q 1077 501 1175 632 q 836 181 979 370 q 1052 297 959 218 q 1184 481 1145 376 q 1195 501 1192 501 q 1201 495 1197 501 q 1206 481 1206 490 q 1173 379 1202 423 q 1103 294 1143 334 q 973 206 1048 241 q 814 153 898 170 l 698 -1 q 655 2 677 1 q 619 3 633 3 q 598 2 608 3 q 580 -1 589 1 q 631 63 606 32 q 680 123 656 94 q 688 136 686 132 q 666 135 677 136 q 645 135 656 135 q 550 142 595 135 q 466 161 505 149 q 381 93 418 120 q 319 50 345 66 q 232 9 275 22 q 144 -3 189 -3 m 726 179 q 1047 566 917 414 q 1257 805 1178 719 q 1374 926 1337 892 q 1329 907 1352 918 q 1273 878 1305 897 q 1146 786 1218 844 q 976 638 1074 727 q 749 423 879 549 l 706 381 q 727 311 720 347 q 734 239 734 275 q 726 179 734 209 m 458 182 q 559 272 505 222 q 681 388 613 322 q 579 519 646 469 q 429 569 513 569 q 350 547 386 569 q 292 488 313 524 q 271 410 271 452 q 317 277 271 339 q 458 182 364 216 m 649 154 q 696 156 673 154 q 708 199 705 177 q 712 235 712 220 q 690 366 712 302 q 576 259 628 306 q 482 175 524 212 q 649 154 556 154 m 1471 1000 q 1438 1016 1463 1000 q 1360 1078 1395 1042 q 1305 1148 1326 1113 q 1285 1208 1285 1183 q 1314 1245 1285 1245 q 1352 1197 1343 1245 q 1363 1137 1357 1159 q 1379 1099 1369 1116 q 1419 1054 1395 1074 q 1463 1022 1442 1034 q 1475 1014 1471 1016 q 1479 1007 1479 1011 q 1471 1000 1479 1000 z "},"Ả":{"ha":1104,"x_min":0,"x_max":1563,"o":"m 144 -3 q 36 25 72 -3 q 0 96 0 54 q 21 139 0 126 q 64 151 43 151 q 86 144 75 151 q 98 121 98 138 q 86 98 98 108 q 60 87 75 87 q 42 89 51 87 q 27 94 34 90 l 27 90 q 55 36 27 57 q 149 15 83 15 q 242 35 195 15 q 341 90 290 54 q 391 127 366 108 q 442 169 416 147 q 288 271 344 205 q 229 408 232 336 q 249 497 227 456 q 317 564 271 538 q 428 589 362 589 q 589 535 519 589 q 696 402 659 481 l 715 420 q 932 631 840 546 q 1091 769 1025 715 q 1206 855 1158 823 q 1292 907 1255 887 q 1375 943 1342 933 q 1424 952 1407 952 q 1436 946 1436 952 q 1423 938 1436 943 q 1394 915 1413 935 q 1338 848 1375 895 q 1238 716 1301 801 q 1077 501 1175 632 q 836 181 979 370 q 1052 297 959 218 q 1184 481 1145 376 q 1195 501 1192 501 q 1201 495 1197 501 q 1206 481 1206 490 q 1173 379 1202 423 q 1103 294 1143 334 q 973 206 1048 241 q 814 153 898 170 l 698 -1 q 655 2 677 1 q 619 3 633 3 q 598 2 608 3 q 580 -1 589 1 q 631 63 606 32 q 680 123 656 94 q 688 136 686 132 q 666 135 677 136 q 645 135 656 135 q 550 142 595 135 q 466 161 505 149 q 381 93 418 120 q 319 50 345 66 q 232 9 275 22 q 144 -3 189 -3 m 726 179 q 1047 566 917 414 q 1257 805 1178 719 q 1374 926 1337 892 q 1329 907 1352 918 q 1273 878 1305 897 q 1146 786 1218 844 q 976 638 1074 727 q 749 423 879 549 l 706 381 q 727 311 720 347 q 734 239 734 275 q 726 179 734 209 m 458 182 q 559 272 505 222 q 681 388 613 322 q 579 519 646 469 q 429 569 513 569 q 350 547 386 569 q 292 488 313 524 q 271 410 271 452 q 317 277 271 339 q 458 182 364 216 m 649 154 q 696 156 673 154 q 708 199 705 177 q 712 235 712 220 q 690 366 712 302 q 576 259 628 306 q 482 175 524 212 q 649 154 556 154 m 1456 998 q 1430 1007 1442 1000 q 1419 1031 1419 1015 q 1470 1122 1419 1070 q 1505 1159 1486 1139 q 1525 1201 1525 1179 q 1505 1229 1525 1221 q 1460 1236 1485 1236 q 1381 1220 1417 1236 q 1318 1181 1345 1204 q 1304 1172 1308 1172 q 1299 1178 1299 1172 q 1312 1200 1298 1191 q 1380 1238 1339 1223 q 1461 1253 1421 1253 q 1532 1237 1504 1253 q 1562 1187 1560 1221 q 1545 1132 1563 1164 q 1501 1072 1527 1099 q 1466 1033 1476 1047 q 1456 998 1455 1019 z "},"Ȃ":{"ha":1104,"x_min":0,"x_max":1626,"o":"m 144 -3 q 36 25 72 -3 q 0 96 0 54 q 21 139 0 126 q 64 151 43 151 q 86 144 75 151 q 98 121 98 138 q 86 98 98 108 q 60 87 75 87 q 42 89 51 87 q 27 94 34 90 l 27 90 q 55 36 27 57 q 149 15 83 15 q 242 35 195 15 q 341 90 290 54 q 391 127 366 108 q 442 169 416 147 q 288 271 344 205 q 229 408 232 336 q 249 497 227 456 q 317 564 271 538 q 428 589 362 589 q 589 535 519 589 q 696 402 659 481 l 715 420 q 932 631 840 546 q 1091 769 1025 715 q 1206 855 1158 823 q 1292 907 1255 887 q 1375 943 1342 933 q 1424 952 1407 952 q 1436 946 1436 952 q 1423 938 1436 943 q 1394 915 1413 935 q 1338 848 1375 895 q 1238 716 1301 801 q 1077 501 1175 632 q 836 181 979 370 q 1052 297 959 218 q 1184 481 1145 376 q 1195 501 1192 501 q 1201 495 1197 501 q 1206 481 1206 490 q 1173 379 1202 423 q 1103 294 1143 334 q 973 206 1048 241 q 814 153 898 170 l 698 -1 q 655 2 677 1 q 619 3 633 3 q 598 2 608 3 q 580 -1 589 1 q 631 63 606 32 q 680 123 656 94 q 688 136 686 132 q 666 135 677 136 q 645 135 656 135 q 550 142 595 135 q 466 161 505 149 q 381 93 418 120 q 319 50 345 66 q 232 9 275 22 q 144 -3 189 -3 m 726 179 q 1047 566 917 414 q 1257 805 1178 719 q 1374 926 1337 892 q 1329 907 1352 918 q 1273 878 1305 897 q 1146 786 1218 844 q 976 638 1074 727 q 749 423 879 549 l 706 381 q 727 311 720 347 q 734 239 734 275 q 726 179 734 209 m 458 182 q 559 272 505 222 q 681 388 613 322 q 579 519 646 469 q 429 569 513 569 q 350 547 386 569 q 292 488 313 524 q 271 410 271 452 q 317 277 271 339 q 458 182 364 216 m 649 154 q 696 156 673 154 q 708 199 705 177 q 712 235 712 220 q 690 366 712 302 q 576 259 628 306 q 482 175 524 212 q 649 154 556 154 m 1283 1034 q 1398 1123 1333 1086 q 1533 1160 1463 1160 q 1595 1141 1569 1160 q 1624 1082 1622 1122 q 1622 1034 1626 1057 l 1603 1034 q 1605 1076 1607 1055 q 1588 1122 1603 1109 q 1554 1135 1573 1135 q 1462 1109 1505 1135 q 1371 1034 1419 1084 l 1283 1034 z "},"Ā":{"ha":1104,"x_min":0,"x_max":1643,"o":"m 144 -3 q 36 25 72 -3 q 0 96 0 54 q 21 139 0 126 q 64 151 43 151 q 86 144 75 151 q 98 121 98 138 q 86 98 98 108 q 60 87 75 87 q 42 89 51 87 q 27 94 34 90 l 27 90 q 55 36 27 57 q 149 15 83 15 q 242 35 195 15 q 341 90 290 54 q 391 127 366 108 q 442 169 416 147 q 288 271 344 205 q 229 408 232 336 q 249 497 227 456 q 317 564 271 538 q 428 589 362 589 q 589 535 519 589 q 696 402 659 481 l 715 420 q 932 631 840 546 q 1091 769 1025 715 q 1206 855 1158 823 q 1292 907 1255 887 q 1375 943 1342 933 q 1424 952 1407 952 q 1436 946 1436 952 q 1423 938 1436 943 q 1394 915 1413 935 q 1338 848 1375 895 q 1238 716 1301 801 q 1077 501 1175 632 q 836 181 979 370 q 1052 297 959 218 q 1184 481 1145 376 q 1195 501 1192 501 q 1201 495 1197 501 q 1206 481 1206 490 q 1173 379 1202 423 q 1103 294 1143 334 q 973 206 1048 241 q 814 153 898 170 l 698 -1 q 655 2 677 1 q 619 3 633 3 q 598 2 608 3 q 580 -1 589 1 q 631 63 606 32 q 680 123 656 94 q 688 136 686 132 q 666 135 677 136 q 645 135 656 135 q 550 142 595 135 q 466 161 505 149 q 381 93 418 120 q 319 50 345 66 q 232 9 275 22 q 144 -3 189 -3 m 726 179 q 1047 566 917 414 q 1257 805 1178 719 q 1374 926 1337 892 q 1329 907 1352 918 q 1273 878 1305 897 q 1146 786 1218 844 q 976 638 1074 727 q 749 423 879 549 l 706 381 q 727 311 720 347 q 734 239 734 275 q 726 179 734 209 m 458 182 q 559 272 505 222 q 681 388 613 322 q 579 519 646 469 q 429 569 513 569 q 350 547 386 569 q 292 488 313 524 q 271 410 271 452 q 317 277 271 339 q 458 182 364 216 m 649 154 q 696 156 673 154 q 708 199 705 177 q 712 235 712 220 q 690 366 712 302 q 576 259 628 306 q 482 175 524 212 q 649 154 556 154 m 1274 1042 q 1302 1060 1289 1051 q 1324 1078 1315 1069 l 1643 1078 q 1602 1042 1615 1061 l 1274 1042 z "},"Ą":{"ha":1104,"x_min":0,"x_max":1436,"o":"m 144 -3 q 36 25 72 -3 q 0 96 0 54 q 21 139 0 126 q 64 151 43 151 q 86 144 75 151 q 98 121 98 138 q 86 98 98 108 q 60 87 75 87 q 42 89 51 87 q 27 94 34 90 l 27 90 q 55 36 27 57 q 149 15 83 15 q 242 35 195 15 q 341 90 290 54 q 391 127 366 108 q 442 169 416 147 q 288 271 344 205 q 229 408 232 336 q 249 497 227 456 q 317 564 271 538 q 428 589 362 589 q 589 535 519 589 q 696 402 659 481 l 715 420 q 932 631 840 546 q 1091 769 1025 715 q 1206 855 1158 823 q 1292 907 1255 887 q 1375 943 1342 933 q 1424 952 1407 952 q 1436 946 1436 952 q 1423 938 1436 943 q 1394 915 1413 935 q 1338 848 1375 895 q 1238 716 1301 801 q 1077 501 1175 632 q 836 181 979 370 q 1052 297 959 218 q 1184 481 1145 376 q 1195 501 1192 501 q 1201 495 1197 501 q 1206 481 1206 490 q 1173 379 1202 423 q 1103 294 1143 334 q 973 206 1048 241 q 814 153 898 170 l 698 -1 q 655 2 677 1 q 619 3 633 3 q 598 2 608 3 q 580 -1 589 1 q 631 63 606 32 q 680 123 656 94 q 688 136 686 132 q 666 135 677 136 q 645 135 656 135 q 550 142 595 135 q 466 161 505 149 q 381 93 418 120 q 319 50 345 66 q 232 9 275 22 q 144 -3 189 -3 m 726 179 q 1047 566 917 414 q 1257 805 1178 719 q 1374 926 1337 892 q 1329 907 1352 918 q 1273 878 1305 897 q 1146 786 1218 844 q 976 638 1074 727 q 749 423 879 549 l 706 381 q 727 311 720 347 q 734 239 734 275 q 726 179 734 209 m 458 182 q 559 272 505 222 q 681 388 613 322 q 579 519 646 469 q 429 569 513 569 q 350 547 386 569 q 292 488 313 524 q 271 410 271 452 q 317 277 271 339 q 458 182 364 216 m 649 154 q 696 156 673 154 q 708 199 705 177 q 712 235 712 220 q 690 366 712 302 q 576 259 628 306 q 482 175 524 212 q 649 154 556 154 m 554 -197 q 509 -181 526 -197 q 492 -142 492 -165 q 512 -90 492 -114 q 557 -48 532 -66 q 629 -9 593 -22 q 677 6 665 4 q 688 2 688 8 q 674 -8 688 -3 q 554 -123 554 -47 q 600 -153 554 -153 q 629 -148 614 -153 l 593 -193 q 574 -196 588 -195 q 554 -197 561 -197 z "},"Å":{"ha":1104,"x_min":0,"x_max":1605,"o":"m 144 -3 q 36 25 72 -3 q 0 96 0 54 q 21 139 0 126 q 64 151 43 151 q 86 144 75 151 q 98 121 98 138 q 86 98 98 108 q 60 87 75 87 q 42 89 51 87 q 27 94 34 90 l 27 90 q 55 36 27 57 q 149 15 83 15 q 242 35 195 15 q 341 90 290 54 q 391 127 366 108 q 442 169 416 147 q 288 271 344 205 q 229 408 232 336 q 249 497 227 456 q 317 564 271 538 q 428 589 362 589 q 589 535 519 589 q 696 402 659 481 l 715 420 q 932 631 840 546 q 1091 769 1025 715 q 1206 855 1158 823 q 1292 907 1255 887 q 1375 943 1342 933 q 1424 952 1407 952 q 1436 946 1436 952 q 1423 938 1436 943 q 1394 915 1413 935 q 1338 848 1375 895 q 1238 716 1301 801 q 1077 501 1175 632 q 836 181 979 370 q 1052 297 959 218 q 1184 481 1145 376 q 1195 501 1192 501 q 1201 495 1197 501 q 1206 481 1206 490 q 1173 379 1202 423 q 1103 294 1143 334 q 973 206 1048 241 q 814 153 898 170 l 698 -1 q 655 2 677 1 q 619 3 633 3 q 598 2 608 3 q 580 -1 589 1 q 631 63 606 32 q 680 123 656 94 q 688 136 686 132 q 666 135 677 136 q 645 135 656 135 q 550 142 595 135 q 466 161 505 149 q 381 93 418 120 q 319 50 345 66 q 232 9 275 22 q 144 -3 189 -3 m 726 179 q 1047 566 917 414 q 1257 805 1178 719 q 1374 926 1337 892 q 1329 907 1352 918 q 1273 878 1305 897 q 1146 786 1218 844 q 976 638 1074 727 q 749 423 879 549 l 706 381 q 727 311 720 347 q 734 239 734 275 q 726 179 734 209 m 458 182 q 559 272 505 222 q 681 388 613 322 q 579 519 646 469 q 429 569 513 569 q 350 547 386 569 q 292 488 313 524 q 271 410 271 452 q 317 277 271 339 q 458 182 364 216 m 649 154 q 696 156 673 154 q 708 199 705 177 q 712 235 712 220 q 690 366 712 302 q 576 259 628 306 q 482 175 524 212 q 649 154 556 154 m 1473 1053 q 1406 1076 1432 1053 q 1381 1134 1381 1099 q 1422 1230 1381 1192 q 1517 1268 1463 1268 q 1582 1244 1558 1268 q 1605 1184 1605 1221 q 1566 1092 1605 1131 q 1473 1053 1527 1053 m 1480 1074 q 1555 1105 1521 1074 q 1589 1179 1589 1136 q 1571 1229 1589 1208 q 1512 1249 1552 1249 q 1445 1214 1475 1249 q 1415 1138 1415 1179 q 1435 1092 1415 1110 q 1480 1074 1455 1074 z "},"Ǻ":{"ha":1104,"x_min":0,"x_max":1809,"o":"m 144 -3 q 36 25 72 -3 q 0 96 0 54 q 21 139 0 126 q 64 151 43 151 q 86 144 75 151 q 98 121 98 138 q 86 98 98 108 q 60 87 75 87 q 42 89 51 87 q 27 94 34 90 l 27 90 q 55 36 27 57 q 149 15 83 15 q 242 35 195 15 q 341 90 290 54 q 391 127 366 108 q 442 169 416 147 q 288 271 344 205 q 229 408 232 336 q 249 497 227 456 q 317 564 271 538 q 428 589 362 589 q 589 535 519 589 q 696 402 659 481 l 715 420 q 932 631 840 546 q 1091 769 1025 715 q 1206 855 1158 823 q 1292 907 1255 887 q 1375 943 1342 933 q 1424 952 1407 952 q 1436 946 1436 952 q 1423 938 1436 943 q 1394 915 1413 935 q 1338 848 1375 895 q 1238 716 1301 801 q 1077 501 1175 632 q 836 181 979 370 q 1052 297 959 218 q 1184 481 1145 376 q 1195 501 1192 501 q 1201 495 1197 501 q 1206 481 1206 490 q 1173 379 1202 423 q 1103 294 1143 334 q 973 206 1048 241 q 814 153 898 170 l 698 -1 q 655 2 677 1 q 619 3 633 3 q 598 2 608 3 q 580 -1 589 1 q 631 63 606 32 q 680 123 656 94 q 688 136 686 132 q 666 135 677 136 q 645 135 656 135 q 550 142 595 135 q 466 161 505 149 q 381 93 418 120 q 319 50 345 66 q 232 9 275 22 q 144 -3 189 -3 m 726 179 q 1047 566 917 414 q 1257 805 1178 719 q 1374 926 1337 892 q 1329 907 1352 918 q 1273 878 1305 897 q 1146 786 1218 844 q 976 638 1074 727 q 749 423 879 549 l 706 381 q 727 311 720 347 q 734 239 734 275 q 726 179 734 209 m 458 182 q 559 272 505 222 q 681 388 613 322 q 579 519 646 469 q 429 569 513 569 q 350 547 386 569 q 292 488 313 524 q 271 410 271 452 q 317 277 271 339 q 458 182 364 216 m 649 154 q 696 156 673 154 q 708 199 705 177 q 712 235 712 220 q 690 366 712 302 q 576 259 628 306 q 482 175 524 212 q 649 154 556 154 m 1473 1053 q 1406 1076 1432 1053 q 1381 1134 1381 1099 q 1422 1230 1381 1192 q 1517 1268 1463 1268 q 1582 1244 1558 1268 q 1605 1184 1605 1221 q 1566 1092 1605 1131 q 1473 1053 1527 1053 m 1480 1074 q 1555 1105 1521 1074 q 1589 1179 1589 1136 q 1571 1229 1589 1208 q 1512 1249 1552 1249 q 1445 1214 1475 1249 q 1415 1138 1415 1179 q 1435 1092 1415 1110 q 1480 1074 1455 1074 m 1624 1211 q 1615 1218 1615 1211 q 1619 1224 1615 1222 q 1632 1233 1624 1227 q 1676 1264 1652 1244 q 1717 1310 1701 1284 q 1733 1348 1727 1326 q 1744 1408 1739 1370 q 1780 1456 1750 1456 q 1809 1419 1809 1456 q 1789 1359 1809 1394 q 1735 1289 1769 1324 q 1657 1227 1701 1253 q 1624 1211 1632 1211 z "},"Ḁ":{"ha":1104,"x_min":0,"x_max":1436,"o":"m 144 -3 q 36 25 72 -3 q 0 96 0 54 q 21 139 0 126 q 64 151 43 151 q 86 144 75 151 q 98 121 98 138 q 86 98 98 108 q 60 87 75 87 q 42 89 51 87 q 27 94 34 90 l 27 90 q 55 36 27 57 q 149 15 83 15 q 242 35 195 15 q 341 90 290 54 q 391 127 366 108 q 442 169 416 147 q 288 271 344 205 q 229 408 232 336 q 249 497 227 456 q 317 564 271 538 q 428 589 362 589 q 589 535 519 589 q 696 402 659 481 l 715 420 q 932 631 840 546 q 1091 769 1025 715 q 1206 855 1158 823 q 1292 907 1255 887 q 1375 943 1342 933 q 1424 952 1407 952 q 1436 946 1436 952 q 1423 938 1436 943 q 1394 915 1413 935 q 1338 848 1375 895 q 1238 716 1301 801 q 1077 501 1175 632 q 836 181 979 370 q 1052 297 959 218 q 1184 481 1145 376 q 1195 501 1192 501 q 1201 495 1197 501 q 1206 481 1206 490 q 1173 379 1202 423 q 1103 294 1143 334 q 973 206 1048 241 q 814 153 898 170 l 698 -1 q 655 2 677 1 q 619 3 633 3 q 598 2 608 3 q 580 -1 589 1 q 631 63 606 32 q 680 123 656 94 q 688 136 686 132 q 666 135 677 136 q 645 135 656 135 q 550 142 595 135 q 466 161 505 149 q 381 93 418 120 q 319 50 345 66 q 232 9 275 22 q 144 -3 189 -3 m 726 179 q 1047 566 917 414 q 1257 805 1178 719 q 1374 926 1337 892 q 1329 907 1352 918 q 1273 878 1305 897 q 1146 786 1218 844 q 976 638 1074 727 q 749 423 879 549 l 706 381 q 727 311 720 347 q 734 239 734 275 q 726 179 734 209 m 458 182 q 559 272 505 222 q 681 388 613 322 q 579 519 646 469 q 429 569 513 569 q 350 547 386 569 q 292 488 313 524 q 271 410 271 452 q 317 277 271 339 q 458 182 364 216 m 649 154 q 696 156 673 154 q 708 199 705 177 q 712 235 712 220 q 690 366 712 302 q 576 259 628 306 q 482 175 524 212 q 649 154 556 154 m 271 -226 q 214 -175 214 -226 q 242 -111 214 -141 q 308 -61 269 -81 q 378 -42 346 -42 q 419 -57 405 -42 q 433 -93 433 -71 q 408 -155 433 -124 q 345 -206 382 -186 q 271 -226 307 -226 m 284 -208 q 335 -191 309 -208 q 377 -148 360 -174 q 394 -96 394 -122 q 386 -69 394 -77 q 367 -61 378 -61 q 313 -79 340 -61 q 270 -122 287 -96 q 253 -173 253 -148 q 284 -208 253 -208 z "},"Ã":{"ha":1104,"x_min":0,"x_max":1590,"o":"m 144 -3 q 36 25 72 -3 q 0 96 0 54 q 21 139 0 126 q 64 151 43 151 q 86 144 75 151 q 98 121 98 138 q 86 98 98 108 q 60 87 75 87 q 42 89 51 87 q 27 94 34 90 l 27 90 q 55 36 27 57 q 149 15 83 15 q 242 35 195 15 q 341 90 290 54 q 391 127 366 108 q 442 169 416 147 q 288 271 344 205 q 229 408 232 336 q 249 497 227 456 q 317 564 271 538 q 428 589 362 589 q 589 535 519 589 q 696 402 659 481 l 715 420 q 932 631 840 546 q 1091 769 1025 715 q 1206 855 1158 823 q 1292 907 1255 887 q 1375 943 1342 933 q 1424 952 1407 952 q 1436 946 1436 952 q 1423 938 1436 943 q 1394 915 1413 935 q 1338 848 1375 895 q 1238 716 1301 801 q 1077 501 1175 632 q 836 181 979 370 q 1052 297 959 218 q 1184 481 1145 376 q 1195 501 1192 501 q 1201 495 1197 501 q 1206 481 1206 490 q 1173 379 1202 423 q 1103 294 1143 334 q 973 206 1048 241 q 814 153 898 170 l 698 -1 q 655 2 677 1 q 619 3 633 3 q 598 2 608 3 q 580 -1 589 1 q 631 63 606 32 q 680 123 656 94 q 688 136 686 132 q 666 135 677 136 q 645 135 656 135 q 550 142 595 135 q 466 161 505 149 q 381 93 418 120 q 319 50 345 66 q 232 9 275 22 q 144 -3 189 -3 m 726 179 q 1047 566 917 414 q 1257 805 1178 719 q 1374 926 1337 892 q 1329 907 1352 918 q 1273 878 1305 897 q 1146 786 1218 844 q 976 638 1074 727 q 749 423 879 549 l 706 381 q 727 311 720 347 q 734 239 734 275 q 726 179 734 209 m 458 182 q 559 272 505 222 q 681 388 613 322 q 579 519 646 469 q 429 569 513 569 q 350 547 386 569 q 292 488 313 524 q 271 410 271 452 q 317 277 271 339 q 458 182 364 216 m 649 154 q 696 156 673 154 q 708 199 705 177 q 712 235 712 220 q 690 366 712 302 q 576 259 628 306 q 482 175 524 212 q 649 154 556 154 m 1262 1017 q 1255 1024 1255 1017 q 1291 1090 1255 1051 q 1366 1131 1330 1131 q 1395 1125 1379 1131 q 1436 1102 1411 1120 q 1478 1079 1461 1085 q 1508 1073 1495 1073 q 1570 1124 1549 1073 q 1582 1136 1577 1136 q 1590 1128 1590 1136 q 1554 1063 1590 1103 q 1515 1032 1536 1042 q 1478 1022 1495 1022 q 1448 1028 1463 1022 q 1402 1055 1433 1034 q 1366 1074 1379 1069 q 1339 1080 1352 1080 q 1276 1028 1296 1080 q 1262 1017 1270 1017 z "},"Æ":{"ha":1463,"x_min":0,"x_max":1838,"o":"m 1079 -197 q 1062 -187 1073 -197 q 1023 -129 1038 -164 q 1009 -43 1009 -94 q 1009 -23 1009 -33 q 1011 -2 1010 -13 q 883 60 929 11 q 838 172 838 110 q 840 205 838 189 l 683 -1 q 643 2 662 1 q 612 3 625 3 q 591 2 600 3 q 572 -1 582 1 q 610 45 592 22 q 647 90 629 68 q 533 98 587 90 q 433 123 479 107 q 376 80 401 98 q 332 50 351 62 q 245 9 288 22 q 157 -3 201 -3 q 72 16 106 -3 q 18 62 37 35 q 0 117 0 90 q 13 151 0 137 q 45 164 25 164 q 73 153 62 164 q 85 128 85 142 q 48 96 85 96 q 33 100 39 96 q 74 42 39 67 q 164 18 109 18 q 256 36 210 18 q 354 90 302 54 q 381 110 368 100 q 409 132 395 121 q 257 238 311 171 q 203 380 203 304 q 223 454 203 417 q 283 516 243 491 q 380 541 323 541 q 545 487 471 541 q 659 354 618 433 q 692 386 675 370 q 728 420 709 403 q 947 628 855 544 q 1106 767 1040 713 q 1220 854 1172 821 q 1305 907 1267 887 q 1388 943 1355 933 q 1437 952 1420 952 q 1449 946 1449 952 q 1436 938 1449 943 q 1402 913 1425 935 q 1336 840 1380 892 q 1219 696 1293 789 q 1034 459 1146 604 q 1129 495 1079 482 q 1234 508 1180 508 q 1253 508 1244 508 q 1272 507 1263 507 q 1264 564 1264 533 q 1303 694 1264 629 q 1406 813 1342 759 q 1546 901 1470 868 q 1696 935 1622 935 q 1807 903 1776 935 q 1838 834 1838 871 q 1809 731 1838 785 q 1731 631 1781 677 q 1617 557 1681 585 q 1482 528 1553 528 q 1424 546 1444 528 q 1403 591 1403 564 q 1428 665 1403 624 q 1497 743 1453 705 q 1597 805 1541 781 q 1717 829 1654 829 q 1733 821 1733 829 q 1711 812 1733 812 q 1607 789 1658 812 q 1515 732 1556 767 q 1449 660 1474 698 q 1425 590 1425 622 q 1484 547 1425 547 q 1586 573 1530 547 q 1693 643 1642 600 q 1776 736 1744 686 q 1809 836 1809 787 q 1785 894 1809 872 q 1710 916 1761 916 q 1638 903 1677 916 q 1568 871 1598 890 q 1432 757 1489 821 q 1344 629 1375 693 q 1314 515 1314 565 l 1314 502 q 1392 475 1367 493 q 1418 437 1418 456 q 1410 422 1418 429 q 1381 416 1402 416 q 1324 433 1352 416 q 1280 484 1297 450 l 1276 484 q 1174 461 1227 484 q 1070 400 1121 438 q 978 318 1019 362 q 912 230 937 273 q 888 151 888 186 q 920 62 888 98 q 1014 16 952 27 q 1025 70 1018 43 q 1044 123 1033 98 q 1161 282 1088 222 q 1319 342 1233 342 q 1388 319 1366 342 q 1411 258 1411 296 q 1382 162 1411 209 q 1305 77 1354 115 q 1194 16 1257 39 q 1061 -6 1131 -6 q 1045 -6 1053 -6 q 1029 -5 1037 -5 q 1027 -37 1027 -21 q 1042 -125 1027 -90 q 1080 -180 1057 -161 q 1088 -189 1088 -186 q 1079 -197 1088 -197 m 699 151 q 1035 544 898 388 q 1257 790 1173 701 q 1380 919 1341 880 q 1338 904 1360 912 q 1286 878 1316 895 q 1158 786 1231 844 q 989 638 1086 728 q 762 423 892 549 q 714 376 737 399 q 669 333 690 354 q 701 186 701 260 q 699 151 701 166 m 434 151 q 530 234 479 189 q 643 338 581 279 q 533 468 604 418 q 388 517 463 517 q 284 477 318 517 q 250 372 250 436 q 300 243 250 300 q 434 151 349 185 m 1381 435 q 1390 444 1390 435 q 1371 465 1390 453 q 1317 481 1352 476 q 1381 435 1330 435 m 1063 13 q 1146 33 1102 13 q 1233 83 1190 52 q 1311 151 1276 115 q 1367 220 1345 186 q 1388 275 1388 253 q 1373 310 1388 299 q 1323 321 1358 321 q 1243 297 1289 321 q 1151 227 1196 272 q 1073 121 1105 182 q 1033 14 1044 66 q 1048 13 1040 14 q 1063 13 1055 13 m 665 111 q 665 111 665 111 q 676 152 673 131 q 679 186 679 172 q 652 318 679 254 q 545 219 593 262 q 457 142 496 175 q 554 119 502 127 q 665 111 607 111 z "},"Ǽ":{"ha":1463,"x_min":0,"x_max":1838,"o":"m 1079 -197 q 1062 -187 1073 -197 q 1023 -129 1038 -164 q 1009 -43 1009 -94 q 1009 -23 1009 -33 q 1011 -2 1010 -13 q 883 60 929 11 q 838 172 838 110 q 840 205 838 189 l 683 -1 q 643 2 662 1 q 612 3 625 3 q 591 2 600 3 q 572 -1 582 1 q 610 45 592 22 q 647 90 629 68 q 533 98 587 90 q 433 123 479 107 q 376 80 401 98 q 332 50 351 62 q 245 9 288 22 q 157 -3 201 -3 q 72 16 106 -3 q 18 62 37 35 q 0 117 0 90 q 13 151 0 137 q 45 164 25 164 q 73 153 62 164 q 85 128 85 142 q 48 96 85 96 q 33 100 39 96 q 74 42 39 67 q 164 18 109 18 q 256 36 210 18 q 354 90 302 54 q 381 110 368 100 q 409 132 395 121 q 257 238 311 171 q 203 380 203 304 q 223 454 203 417 q 283 516 243 491 q 380 541 323 541 q 545 487 471 541 q 659 354 618 433 q 692 386 675 370 q 728 420 709 403 q 947 628 855 544 q 1106 767 1040 713 q 1220 854 1172 821 q 1305 907 1267 887 q 1388 943 1355 933 q 1437 952 1420 952 q 1449 946 1449 952 q 1436 938 1449 943 q 1402 913 1425 935 q 1336 840 1380 892 q 1219 696 1293 789 q 1034 459 1146 604 q 1129 495 1079 482 q 1234 508 1180 508 q 1253 508 1244 508 q 1272 507 1263 507 q 1264 564 1264 533 q 1303 694 1264 629 q 1406 813 1342 759 q 1546 901 1470 868 q 1696 935 1622 935 q 1807 903 1776 935 q 1838 834 1838 871 q 1809 731 1838 785 q 1731 631 1781 677 q 1617 557 1681 585 q 1482 528 1553 528 q 1424 546 1444 528 q 1403 591 1403 564 q 1428 665 1403 624 q 1497 743 1453 705 q 1597 805 1541 781 q 1717 829 1654 829 q 1733 821 1733 829 q 1711 812 1733 812 q 1607 789 1658 812 q 1515 732 1556 767 q 1449 660 1474 698 q 1425 590 1425 622 q 1484 547 1425 547 q 1586 573 1530 547 q 1693 643 1642 600 q 1776 736 1744 686 q 1809 836 1809 787 q 1785 894 1809 872 q 1710 916 1761 916 q 1638 903 1677 916 q 1568 871 1598 890 q 1432 757 1489 821 q 1344 629 1375 693 q 1314 515 1314 565 l 1314 502 q 1392 475 1367 493 q 1418 437 1418 456 q 1410 422 1418 429 q 1381 416 1402 416 q 1324 433 1352 416 q 1280 484 1297 450 l 1276 484 q 1174 461 1227 484 q 1070 400 1121 438 q 978 318 1019 362 q 912 230 937 273 q 888 151 888 186 q 920 62 888 98 q 1014 16 952 27 q 1025 70 1018 43 q 1044 123 1033 98 q 1161 282 1088 222 q 1319 342 1233 342 q 1388 319 1366 342 q 1411 258 1411 296 q 1382 162 1411 209 q 1305 77 1354 115 q 1194 16 1257 39 q 1061 -6 1131 -6 q 1045 -6 1053 -6 q 1029 -5 1037 -5 q 1027 -37 1027 -21 q 1042 -125 1027 -90 q 1080 -180 1057 -161 q 1088 -189 1088 -186 q 1079 -197 1088 -197 m 699 151 q 1035 544 898 388 q 1257 790 1173 701 q 1380 919 1341 880 q 1338 904 1360 912 q 1286 878 1316 895 q 1158 786 1231 844 q 989 638 1086 728 q 762 423 892 549 q 714 376 737 399 q 669 333 690 354 q 701 186 701 260 q 699 151 701 166 m 434 151 q 530 234 479 189 q 643 338 581 279 q 533 468 604 418 q 388 517 463 517 q 284 477 318 517 q 250 372 250 436 q 300 243 250 300 q 434 151 349 185 m 1381 435 q 1390 444 1390 435 q 1371 465 1390 453 q 1317 481 1352 476 q 1381 435 1330 435 m 1063 13 q 1146 33 1102 13 q 1233 83 1190 52 q 1311 151 1276 115 q 1367 220 1345 186 q 1388 275 1388 253 q 1373 310 1388 299 q 1323 321 1358 321 q 1243 297 1289 321 q 1151 227 1196 272 q 1073 121 1105 182 q 1033 14 1044 66 q 1048 13 1040 14 q 1063 13 1055 13 m 665 111 q 665 111 665 111 q 676 152 673 131 q 679 186 679 172 q 652 318 679 254 q 545 219 593 262 q 457 142 496 175 q 554 119 502 127 q 665 111 607 111 m 1637 1014 q 1629 1021 1629 1014 q 1633 1027 1629 1025 q 1646 1036 1637 1029 q 1690 1067 1666 1047 q 1731 1113 1714 1087 q 1746 1151 1740 1129 q 1758 1211 1752 1173 q 1794 1259 1764 1259 q 1823 1221 1823 1259 q 1803 1161 1823 1196 q 1749 1091 1783 1126 q 1670 1029 1714 1056 q 1637 1014 1645 1014 z "},"Ǣ":{"ha":1463,"x_min":0,"x_max":1838,"o":"m 1079 -197 q 1062 -187 1073 -197 q 1023 -129 1038 -164 q 1009 -43 1009 -94 q 1009 -23 1009 -33 q 1011 -2 1010 -13 q 883 60 929 11 q 838 172 838 110 q 840 205 838 189 l 683 -1 q 643 2 662 1 q 612 3 625 3 q 591 2 600 3 q 572 -1 582 1 q 610 45 592 22 q 647 90 629 68 q 533 98 587 90 q 433 123 479 107 q 376 80 401 98 q 332 50 351 62 q 245 9 288 22 q 157 -3 201 -3 q 72 16 106 -3 q 18 62 37 35 q 0 117 0 90 q 13 151 0 137 q 45 164 25 164 q 73 153 62 164 q 85 128 85 142 q 48 96 85 96 q 33 100 39 96 q 74 42 39 67 q 164 18 109 18 q 256 36 210 18 q 354 90 302 54 q 381 110 368 100 q 409 132 395 121 q 257 238 311 171 q 203 380 203 304 q 223 454 203 417 q 283 516 243 491 q 380 541 323 541 q 545 487 471 541 q 659 354 618 433 q 692 386 675 370 q 728 420 709 403 q 947 628 855 544 q 1106 767 1040 713 q 1220 854 1172 821 q 1305 907 1267 887 q 1388 943 1355 933 q 1437 952 1420 952 q 1449 946 1449 952 q 1436 938 1449 943 q 1402 913 1425 935 q 1336 840 1380 892 q 1219 696 1293 789 q 1034 459 1146 604 q 1129 495 1079 482 q 1234 508 1180 508 q 1253 508 1244 508 q 1272 507 1263 507 q 1264 564 1264 533 q 1303 694 1264 629 q 1406 813 1342 759 q 1546 901 1470 868 q 1696 935 1622 935 q 1807 903 1776 935 q 1838 834 1838 871 q 1809 731 1838 785 q 1731 631 1781 677 q 1617 557 1681 585 q 1482 528 1553 528 q 1424 546 1444 528 q 1403 591 1403 564 q 1428 665 1403 624 q 1497 743 1453 705 q 1597 805 1541 781 q 1717 829 1654 829 q 1733 821 1733 829 q 1711 812 1733 812 q 1607 789 1658 812 q 1515 732 1556 767 q 1449 660 1474 698 q 1425 590 1425 622 q 1484 547 1425 547 q 1586 573 1530 547 q 1693 643 1642 600 q 1776 736 1744 686 q 1809 836 1809 787 q 1785 894 1809 872 q 1710 916 1761 916 q 1638 903 1677 916 q 1568 871 1598 890 q 1432 757 1489 821 q 1344 629 1375 693 q 1314 515 1314 565 l 1314 502 q 1392 475 1367 493 q 1418 437 1418 456 q 1410 422 1418 429 q 1381 416 1402 416 q 1324 433 1352 416 q 1280 484 1297 450 l 1276 484 q 1174 461 1227 484 q 1070 400 1121 438 q 978 318 1019 362 q 912 230 937 273 q 888 151 888 186 q 920 62 888 98 q 1014 16 952 27 q 1025 70 1018 43 q 1044 123 1033 98 q 1161 282 1088 222 q 1319 342 1233 342 q 1388 319 1366 342 q 1411 258 1411 296 q 1382 162 1411 209 q 1305 77 1354 115 q 1194 16 1257 39 q 1061 -6 1131 -6 q 1045 -6 1053 -6 q 1029 -5 1037 -5 q 1027 -37 1027 -21 q 1042 -125 1027 -90 q 1080 -180 1057 -161 q 1088 -189 1088 -186 q 1079 -197 1088 -197 m 699 151 q 1035 544 898 388 q 1257 790 1173 701 q 1380 919 1341 880 q 1338 904 1360 912 q 1286 878 1316 895 q 1158 786 1231 844 q 989 638 1086 728 q 762 423 892 549 q 714 376 737 399 q 669 333 690 354 q 701 186 701 260 q 699 151 701 166 m 434 151 q 530 234 479 189 q 643 338 581 279 q 533 468 604 418 q 388 517 463 517 q 284 477 318 517 q 250 372 250 436 q 300 243 250 300 q 434 151 349 185 m 1381 435 q 1390 444 1390 435 q 1371 465 1390 453 q 1317 481 1352 476 q 1381 435 1330 435 m 1063 13 q 1146 33 1102 13 q 1233 83 1190 52 q 1311 151 1276 115 q 1367 220 1345 186 q 1388 275 1388 253 q 1373 310 1388 299 q 1323 321 1358 321 q 1243 297 1289 321 q 1151 227 1196 272 q 1073 121 1105 182 q 1033 14 1044 66 q 1048 13 1040 14 q 1063 13 1055 13 m 665 111 q 665 111 665 111 q 676 152 673 131 q 679 186 679 172 q 652 318 679 254 q 545 219 593 262 q 457 142 496 175 q 554 119 502 127 q 665 111 607 111 m 1457 1027 q 1485 1046 1472 1037 q 1506 1064 1497 1055 l 1826 1064 q 1784 1027 1798 1046 l 1457 1027 z "},"B":{"ha":1107,"x_min":0,"x_max":1398,"o":"m 144 -1 q 42 27 84 -1 q 0 96 0 56 q 21 140 0 127 q 63 153 42 153 q 86 146 75 153 q 97 122 97 139 q 86 99 97 109 q 59 89 75 89 q 42 90 50 89 q 26 96 33 91 l 26 92 q 60 37 26 58 q 149 16 93 16 q 216 26 183 16 q 290 64 249 36 q 387 146 330 92 q 526 287 444 200 q 722 500 607 373 q 966 742 851 649 q 1173 884 1082 835 q 1069 942 1136 922 q 916 962 1002 962 q 814 952 868 962 q 713 924 760 942 q 553 843 631 895 q 412 730 475 791 q 311 609 349 669 q 274 500 274 549 q 301 441 274 460 q 367 422 328 422 q 495 456 425 422 q 631 549 565 490 q 744 687 696 609 q 803 854 791 766 q 807 872 806 868 q 812 876 808 876 q 820 861 820 876 q 779 680 820 763 q 669 536 737 597 q 520 441 602 475 q 360 407 439 407 q 287 430 319 407 q 254 503 254 452 q 291 636 254 568 q 393 764 328 703 q 543 873 458 825 q 726 949 629 921 q 924 977 823 977 q 1206 901 1107 977 q 1302 938 1259 926 q 1375 949 1345 949 q 1398 943 1398 949 q 1376 936 1398 939 q 1316 922 1355 932 q 1223 885 1276 912 q 1287 734 1287 825 q 1250 616 1287 674 q 1151 511 1213 558 q 1019 434 1090 463 q 1073 298 1073 386 q 1041 186 1073 240 q 954 91 1008 133 q 831 23 899 48 q 689 -1 762 -1 q 600 24 624 -1 q 576 74 576 49 q 607 151 576 109 q 688 231 637 193 q 802 294 739 269 q 928 318 864 318 q 942 310 942 318 q 921 300 942 300 q 811 278 868 300 q 707 222 755 256 q 629 148 659 187 q 599 73 599 109 q 618 35 599 53 q 692 18 637 18 q 793 45 740 18 q 894 123 847 73 q 970 238 941 172 q 1000 379 1000 303 q 989 422 1000 406 q 922 405 956 412 q 856 399 888 399 q 808 409 825 399 q 792 430 792 419 q 826 460 792 446 q 903 473 860 473 q 986 455 949 473 q 1096 530 1043 483 q 1183 642 1149 578 q 1217 782 1217 706 q 1188 866 1217 829 q 1157 846 1173 857 q 1124 823 1141 836 q 1013 729 1068 781 q 899 607 958 677 q 768 442 839 537 q 521 169 641 271 q 293 22 401 66 q 219 3 256 7 q 144 -1 182 -1 m 857 420 q 965 446 905 420 q 904 458 943 458 q 849 451 872 458 q 827 435 827 444 q 835 426 827 431 q 857 420 844 420 z "},"Ḃ":{"ha":1107,"x_min":0,"x_max":1398,"o":"m 144 -1 q 42 27 84 -1 q 0 96 0 56 q 21 140 0 127 q 63 153 42 153 q 86 146 75 153 q 97 122 97 139 q 86 99 97 109 q 59 89 75 89 q 42 90 50 89 q 26 96 33 91 l 26 92 q 60 37 26 58 q 149 16 93 16 q 216 26 183 16 q 290 64 249 36 q 387 146 330 92 q 526 287 444 200 q 722 500 607 373 q 966 742 851 649 q 1173 884 1082 835 q 1069 942 1136 922 q 916 962 1002 962 q 814 952 868 962 q 713 924 760 942 q 553 843 631 895 q 412 730 475 791 q 311 609 349 669 q 274 500 274 549 q 301 441 274 460 q 367 422 328 422 q 495 456 425 422 q 631 549 565 490 q 744 687 696 609 q 803 854 791 766 q 807 872 806 868 q 812 876 808 876 q 820 861 820 876 q 779 680 820 763 q 669 536 737 597 q 520 441 602 475 q 360 407 439 407 q 287 430 319 407 q 254 503 254 452 q 291 636 254 568 q 393 764 328 703 q 543 873 458 825 q 726 949 629 921 q 924 977 823 977 q 1206 901 1107 977 q 1302 938 1259 926 q 1375 949 1345 949 q 1398 943 1398 949 q 1376 936 1398 939 q 1316 922 1355 932 q 1223 885 1276 912 q 1287 734 1287 825 q 1250 616 1287 674 q 1151 511 1213 558 q 1019 434 1090 463 q 1073 298 1073 386 q 1041 186 1073 240 q 954 91 1008 133 q 831 23 899 48 q 689 -1 762 -1 q 600 24 624 -1 q 576 74 576 49 q 607 151 576 109 q 688 231 637 193 q 802 294 739 269 q 928 318 864 318 q 942 310 942 318 q 921 300 942 300 q 811 278 868 300 q 707 222 755 256 q 629 148 659 187 q 599 73 599 109 q 618 35 599 53 q 692 18 637 18 q 793 45 740 18 q 894 123 847 73 q 970 238 941 172 q 1000 379 1000 303 q 989 422 1000 406 q 922 405 956 412 q 856 399 888 399 q 808 409 825 399 q 792 430 792 419 q 826 460 792 446 q 903 473 860 473 q 986 455 949 473 q 1096 530 1043 483 q 1183 642 1149 578 q 1217 782 1217 706 q 1188 866 1217 829 q 1157 846 1173 857 q 1124 823 1141 836 q 1013 729 1068 781 q 899 607 958 677 q 768 442 839 537 q 521 169 641 271 q 293 22 401 66 q 219 3 256 7 q 144 -1 182 -1 m 857 420 q 965 446 905 420 q 904 458 943 458 q 849 451 872 458 q 827 435 827 444 q 835 426 827 431 q 857 420 844 420 m 1152 1034 q 1121 1045 1133 1034 q 1110 1076 1110 1057 q 1130 1119 1110 1099 q 1178 1139 1150 1139 q 1208 1127 1197 1139 q 1219 1097 1219 1114 q 1198 1053 1219 1072 q 1152 1034 1177 1034 z "},"Ḅ":{"ha":1107,"x_min":0,"x_max":1398,"o":"m 144 -1 q 42 27 84 -1 q 0 96 0 56 q 21 140 0 127 q 63 153 42 153 q 86 146 75 153 q 97 122 97 139 q 86 99 97 109 q 59 89 75 89 q 42 90 50 89 q 26 96 33 91 l 26 92 q 60 37 26 58 q 149 16 93 16 q 216 26 183 16 q 290 64 249 36 q 387 146 330 92 q 526 287 444 200 q 722 500 607 373 q 966 742 851 649 q 1173 884 1082 835 q 1069 942 1136 922 q 916 962 1002 962 q 814 952 868 962 q 713 924 760 942 q 553 843 631 895 q 412 730 475 791 q 311 609 349 669 q 274 500 274 549 q 301 441 274 460 q 367 422 328 422 q 495 456 425 422 q 631 549 565 490 q 744 687 696 609 q 803 854 791 766 q 807 872 806 868 q 812 876 808 876 q 820 861 820 876 q 779 680 820 763 q 669 536 737 597 q 520 441 602 475 q 360 407 439 407 q 287 430 319 407 q 254 503 254 452 q 291 636 254 568 q 393 764 328 703 q 543 873 458 825 q 726 949 629 921 q 924 977 823 977 q 1206 901 1107 977 q 1302 938 1259 926 q 1375 949 1345 949 q 1398 943 1398 949 q 1376 936 1398 939 q 1316 922 1355 932 q 1223 885 1276 912 q 1287 734 1287 825 q 1250 616 1287 674 q 1151 511 1213 558 q 1019 434 1090 463 q 1073 298 1073 386 q 1041 186 1073 240 q 954 91 1008 133 q 831 23 899 48 q 689 -1 762 -1 q 600 24 624 -1 q 576 74 576 49 q 607 151 576 109 q 688 231 637 193 q 802 294 739 269 q 928 318 864 318 q 942 310 942 318 q 921 300 942 300 q 811 278 868 300 q 707 222 755 256 q 629 148 659 187 q 599 73 599 109 q 618 35 599 53 q 692 18 637 18 q 793 45 740 18 q 894 123 847 73 q 970 238 941 172 q 1000 379 1000 303 q 989 422 1000 406 q 922 405 956 412 q 856 399 888 399 q 808 409 825 399 q 792 430 792 419 q 826 460 792 446 q 903 473 860 473 q 986 455 949 473 q 1096 530 1043 483 q 1183 642 1149 578 q 1217 782 1217 706 q 1188 866 1217 829 q 1157 846 1173 857 q 1124 823 1141 836 q 1013 729 1068 781 q 899 607 958 677 q 768 442 839 537 q 521 169 641 271 q 293 22 401 66 q 219 3 256 7 q 144 -1 182 -1 m 857 420 q 965 446 905 420 q 904 458 943 458 q 849 451 872 458 q 827 435 827 444 q 835 426 827 431 q 857 420 844 420 m 380 -176 q 350 -164 361 -176 q 339 -134 339 -152 q 359 -90 339 -110 q 407 -70 379 -70 q 437 -82 426 -70 q 448 -113 448 -95 q 427 -157 448 -138 q 380 -176 406 -176 z "},"Ɓ":{"ha":1107,"x_min":0,"x_max":1398,"o":"m 144 -1 q 42 27 84 -1 q 0 96 0 56 q 21 140 0 127 q 63 153 42 153 q 86 146 75 153 q 97 122 97 139 q 86 99 97 109 q 59 89 75 89 q 42 90 50 89 q 26 96 33 91 l 26 92 q 60 37 26 58 q 149 16 93 16 q 216 26 183 16 q 290 64 249 36 q 387 146 330 92 q 526 287 444 200 q 722 500 607 373 q 966 742 851 649 q 1173 884 1082 835 q 1069 942 1136 922 q 916 962 1002 962 q 749 947 828 962 q 608 905 670 932 q 511 836 547 877 q 476 743 476 795 q 493 680 476 703 q 536 650 511 658 q 586 642 561 642 q 625 648 610 643 q 654 674 634 662 q 684 686 673 686 q 715 672 705 686 q 722 642 726 658 q 694 609 717 624 q 633 593 672 593 q 505 633 555 593 q 454 739 454 673 q 518 868 454 814 q 689 949 582 921 q 924 977 795 977 q 1206 901 1107 977 q 1302 938 1259 926 q 1375 949 1345 949 q 1398 943 1398 949 q 1376 936 1398 939 q 1316 922 1355 932 q 1223 885 1276 912 q 1287 734 1287 825 q 1250 616 1287 674 q 1151 511 1213 558 q 1019 434 1090 463 q 1073 298 1073 386 q 1041 186 1073 240 q 954 91 1008 133 q 831 23 899 48 q 689 -1 762 -1 q 600 24 624 -1 q 576 74 576 49 q 607 151 576 109 q 688 231 637 193 q 802 294 739 269 q 928 318 864 318 q 942 310 942 318 q 921 300 942 300 q 811 278 868 300 q 707 222 755 256 q 629 148 659 187 q 599 73 599 109 q 618 35 599 53 q 692 18 637 18 q 793 45 740 18 q 894 123 847 73 q 970 238 941 172 q 1000 379 1000 303 q 989 422 1000 406 q 922 405 956 412 q 856 399 888 399 q 808 409 825 399 q 792 430 792 419 q 826 460 792 446 q 903 473 860 473 q 986 455 949 473 q 1096 530 1043 483 q 1183 642 1149 578 q 1217 782 1217 706 q 1188 866 1217 829 q 1157 846 1173 857 q 1124 823 1141 836 q 1013 729 1068 781 q 899 607 958 677 q 768 442 839 537 q 521 169 641 271 q 293 22 401 66 q 219 3 256 7 q 144 -1 182 -1 m 857 420 q 965 446 905 420 q 904 458 943 458 q 849 451 872 458 q 827 435 827 444 q 835 426 827 431 q 857 420 844 420 z "},"Ḇ":{"ha":1107,"x_min":0,"x_max":1398,"o":"m 144 -1 q 42 27 84 -1 q 0 96 0 56 q 21 140 0 127 q 63 153 42 153 q 86 146 75 153 q 97 122 97 139 q 86 99 97 109 q 59 89 75 89 q 42 90 50 89 q 26 96 33 91 l 26 92 q 60 37 26 58 q 149 16 93 16 q 216 26 183 16 q 290 64 249 36 q 387 146 330 92 q 526 287 444 200 q 722 500 607 373 q 966 742 851 649 q 1173 884 1082 835 q 1069 942 1136 922 q 916 962 1002 962 q 814 952 868 962 q 713 924 760 942 q 553 843 631 895 q 412 730 475 791 q 311 609 349 669 q 274 500 274 549 q 301 441 274 460 q 367 422 328 422 q 495 456 425 422 q 631 549 565 490 q 744 687 696 609 q 803 854 791 766 q 807 872 806 868 q 812 876 808 876 q 820 861 820 876 q 779 680 820 763 q 669 536 737 597 q 520 441 602 475 q 360 407 439 407 q 287 430 319 407 q 254 503 254 452 q 291 636 254 568 q 393 764 328 703 q 543 873 458 825 q 726 949 629 921 q 924 977 823 977 q 1206 901 1107 977 q 1302 938 1259 926 q 1375 949 1345 949 q 1398 943 1398 949 q 1376 936 1398 939 q 1316 922 1355 932 q 1223 885 1276 912 q 1287 734 1287 825 q 1250 616 1287 674 q 1151 511 1213 558 q 1019 434 1090 463 q 1073 298 1073 386 q 1041 186 1073 240 q 954 91 1008 133 q 831 23 899 48 q 689 -1 762 -1 q 600 24 624 -1 q 576 74 576 49 q 607 151 576 109 q 688 231 637 193 q 802 294 739 269 q 928 318 864 318 q 942 310 942 318 q 921 300 942 300 q 811 278 868 300 q 707 222 755 256 q 629 148 659 187 q 599 73 599 109 q 618 35 599 53 q 692 18 637 18 q 793 45 740 18 q 894 123 847 73 q 970 238 941 172 q 1000 379 1000 303 q 989 422 1000 406 q 922 405 956 412 q 856 399 888 399 q 808 409 825 399 q 792 430 792 419 q 826 460 792 446 q 903 473 860 473 q 986 455 949 473 q 1096 530 1043 483 q 1183 642 1149 578 q 1217 782 1217 706 q 1188 866 1217 829 q 1157 846 1173 857 q 1124 823 1141 836 q 1013 729 1068 781 q 899 607 958 677 q 768 442 839 537 q 521 169 641 271 q 293 22 401 66 q 219 3 256 7 q 144 -1 182 -1 m 857 420 q 965 446 905 420 q 904 458 943 458 q 849 451 872 458 q 827 435 827 444 q 835 426 827 431 q 857 420 844 420 m 237 -156 q 265 -137 252 -146 q 287 -119 278 -128 l 606 -119 q 565 -156 578 -137 l 237 -156 z "},"C":{"ha":872,"x_min":203,"x_max":1164,"o":"m 414 -178 q 382 -127 402 -178 q 358 1 361 -76 q 255 52 296 9 q 214 170 214 94 q 253 341 214 253 q 358 515 292 430 q 242 581 280 532 q 203 692 203 629 q 241 795 203 743 q 346 894 279 848 q 496 967 412 939 q 673 995 581 995 q 712 992 696 995 q 728 983 728 989 q 720 978 728 978 q 700 979 712 978 q 670 981 687 981 q 526 955 602 981 q 384 885 450 929 q 275 783 317 840 q 233 664 233 726 q 268 583 233 621 q 370 530 304 545 q 528 692 439 616 q 715 826 617 768 q 911 917 814 884 q 1096 950 1009 950 q 1144 939 1125 950 q 1164 900 1164 928 q 1120 802 1164 854 q 1004 699 1077 749 q 840 607 930 649 q 652 538 749 565 q 469 507 556 511 q 318 311 378 408 q 259 144 259 215 q 286 60 259 91 q 358 20 313 29 q 392 198 358 113 q 484 352 427 284 q 613 458 542 419 q 760 497 685 497 q 847 471 817 497 q 878 402 878 445 q 840 274 878 344 q 736 142 803 205 q 581 39 669 79 q 390 -1 492 -1 q 378 -1 382 -1 q 388 -87 379 -37 q 418 -165 396 -137 q 420 -171 420 -169 q 420 -174 420 -173 q 414 -178 420 -178 m 486 526 q 649 563 560 533 q 826 635 738 593 q 986 726 913 678 q 1103 820 1059 774 q 1147 898 1147 865 q 1133 926 1147 918 q 1095 934 1118 934 q 971 900 1044 934 q 814 809 898 867 q 645 678 730 751 q 486 526 560 605 m 397 16 q 511 46 452 16 q 623 124 569 76 q 721 227 677 172 q 790 335 764 282 q 815 426 815 388 q 753 479 815 479 q 630 443 695 479 q 508 345 565 408 q 414 198 450 281 q 378 18 378 114 l 378 17 q 388 16 382 16 q 397 16 393 16 z "},"Ć":{"ha":872,"x_min":203,"x_max":1316,"o":"m 414 -178 q 382 -127 402 -178 q 358 1 361 -76 q 255 52 296 9 q 214 170 214 94 q 253 341 214 253 q 358 515 292 430 q 242 581 280 532 q 203 692 203 629 q 241 795 203 743 q 346 894 279 848 q 496 967 412 939 q 673 995 581 995 q 712 992 696 995 q 728 983 728 989 q 720 978 728 978 q 700 979 712 978 q 670 981 687 981 q 526 955 602 981 q 384 885 450 929 q 275 783 317 840 q 233 664 233 726 q 268 583 233 621 q 370 530 304 545 q 528 692 439 616 q 715 826 617 768 q 911 917 814 884 q 1096 950 1009 950 q 1144 939 1125 950 q 1164 900 1164 928 q 1120 802 1164 854 q 1004 699 1077 749 q 840 607 930 649 q 652 538 749 565 q 469 507 556 511 q 318 311 378 408 q 259 144 259 215 q 286 60 259 91 q 358 20 313 29 q 392 198 358 113 q 484 352 427 284 q 613 458 542 419 q 760 497 685 497 q 847 471 817 497 q 878 402 878 445 q 840 274 878 344 q 736 142 803 205 q 581 39 669 79 q 390 -1 492 -1 q 378 -1 382 -1 q 388 -87 379 -37 q 418 -165 396 -137 q 420 -171 420 -169 q 420 -174 420 -173 q 414 -178 420 -178 m 486 526 q 649 563 560 533 q 826 635 738 593 q 986 726 913 678 q 1103 820 1059 774 q 1147 898 1147 865 q 1133 926 1147 918 q 1095 934 1118 934 q 971 900 1044 934 q 814 809 898 867 q 645 678 730 751 q 486 526 560 605 m 397 16 q 511 46 452 16 q 623 124 569 76 q 721 227 677 172 q 790 335 764 282 q 815 426 815 388 q 753 479 815 479 q 630 443 695 479 q 508 345 565 408 q 414 198 450 281 q 378 18 378 114 l 378 17 q 388 16 382 16 q 397 16 393 16 m 1130 1013 q 1122 1020 1122 1013 q 1126 1026 1122 1024 q 1139 1035 1130 1029 q 1183 1066 1158 1046 q 1223 1112 1207 1086 q 1239 1150 1233 1128 q 1251 1210 1245 1172 q 1286 1258 1257 1258 q 1316 1221 1316 1258 q 1296 1161 1316 1196 q 1241 1090 1276 1126 q 1163 1029 1207 1055 q 1130 1013 1138 1013 z "},"Č":{"ha":872,"x_min":203,"x_max":1377,"o":"m 414 -178 q 382 -127 402 -178 q 358 1 361 -76 q 255 52 296 9 q 214 170 214 94 q 253 341 214 253 q 358 515 292 430 q 242 581 280 532 q 203 692 203 629 q 241 795 203 743 q 346 894 279 848 q 496 967 412 939 q 673 995 581 995 q 712 992 696 995 q 728 983 728 989 q 720 978 728 978 q 700 979 712 978 q 670 981 687 981 q 526 955 602 981 q 384 885 450 929 q 275 783 317 840 q 233 664 233 726 q 268 583 233 621 q 370 530 304 545 q 528 692 439 616 q 715 826 617 768 q 911 917 814 884 q 1096 950 1009 950 q 1144 939 1125 950 q 1164 900 1164 928 q 1120 802 1164 854 q 1004 699 1077 749 q 840 607 930 649 q 652 538 749 565 q 469 507 556 511 q 318 311 378 408 q 259 144 259 215 q 286 60 259 91 q 358 20 313 29 q 392 198 358 113 q 484 352 427 284 q 613 458 542 419 q 760 497 685 497 q 847 471 817 497 q 878 402 878 445 q 840 274 878 344 q 736 142 803 205 q 581 39 669 79 q 390 -1 492 -1 q 378 -1 382 -1 q 388 -87 379 -37 q 418 -165 396 -137 q 420 -171 420 -169 q 420 -174 420 -173 q 414 -178 420 -178 m 486 526 q 649 563 560 533 q 826 635 738 593 q 986 726 913 678 q 1103 820 1059 774 q 1147 898 1147 865 q 1133 926 1147 918 q 1095 934 1118 934 q 971 900 1044 934 q 814 809 898 867 q 645 678 730 751 q 486 526 560 605 m 397 16 q 511 46 452 16 q 623 124 569 76 q 721 227 677 172 q 790 335 764 282 q 815 426 815 388 q 753 479 815 479 q 630 443 695 479 q 508 345 565 408 q 414 198 450 281 q 378 18 378 114 l 378 17 q 388 16 382 16 q 397 16 393 16 m 1118 1000 q 1112 1005 1112 1000 q 1117 1022 1112 1010 q 1128 1061 1122 1036 q 1133 1126 1133 1086 q 1112 1221 1133 1192 q 1104 1230 1107 1227 q 1101 1236 1101 1233 q 1112 1244 1101 1244 q 1142 1224 1124 1244 q 1174 1161 1161 1203 q 1182 1132 1179 1147 q 1185 1101 1185 1116 q 1275 1177 1236 1147 q 1349 1232 1314 1207 q 1364 1242 1359 1240 q 1373 1244 1370 1244 q 1377 1242 1377 1244 q 1373 1233 1377 1238 q 1349 1211 1369 1228 q 1304 1172 1338 1202 q 1230 1104 1270 1142 q 1158 1033 1190 1066 q 1132 1006 1139 1012 q 1118 1000 1124 1000 z "},"Ç":{"ha":872,"x_min":203,"x_max":1164,"o":"m 390 -1 q 262 45 311 -1 q 214 170 214 91 q 253 341 214 253 q 358 515 292 430 q 242 581 280 532 q 203 692 203 629 q 241 795 203 743 q 346 894 279 848 q 496 967 412 939 q 673 995 581 995 q 712 992 696 995 q 728 983 728 989 q 720 978 728 978 q 700 979 712 978 q 670 981 687 981 q 526 955 602 981 q 384 885 450 929 q 275 783 317 840 q 233 664 233 726 q 268 583 233 621 q 370 530 304 545 q 528 692 439 616 q 715 826 617 768 q 911 917 814 884 q 1096 950 1009 950 q 1144 939 1125 950 q 1164 900 1164 928 q 1120 802 1164 854 q 1004 699 1077 749 q 840 607 930 649 q 652 538 749 565 q 469 507 556 511 q 318 311 378 408 q 259 144 259 215 q 289 60 259 91 q 363 20 318 29 q 394 198 361 113 q 485 352 427 284 q 613 458 542 419 q 760 497 685 497 q 847 471 817 497 q 878 402 878 445 q 840 274 878 344 q 736 142 803 205 q 581 39 669 79 q 390 -1 492 -1 m 486 526 q 649 563 560 533 q 826 635 738 593 q 986 726 913 678 q 1103 820 1059 774 q 1147 898 1147 865 q 1133 926 1147 918 q 1095 934 1118 934 q 971 900 1044 934 q 814 809 898 867 q 645 678 730 751 q 486 526 560 605 m 397 16 q 511 46 452 16 q 623 124 569 76 q 721 227 677 172 q 790 335 764 282 q 815 426 815 388 q 753 479 815 479 q 630 443 695 479 q 508 345 565 408 q 414 198 450 281 q 378 18 378 114 l 378 17 q 388 16 382 16 q 397 16 393 16 m 249 -243 q 237 -234 237 -243 q 252 -222 237 -227 q 341 -178 310 -203 q 372 -115 372 -152 q 326 -85 372 -85 q 296 -90 311 -85 l 371 19 l 390 14 l 348 -44 q 372 -41 359 -41 q 417 -57 400 -41 q 434 -95 434 -73 q 414 -147 434 -123 q 368 -189 394 -171 q 297 -229 332 -214 q 249 -243 261 -243 z "},"Ḉ":{"ha":872,"x_min":203,"x_max":1280,"o":"m 390 -1 q 262 45 311 -1 q 214 170 214 91 q 253 341 214 253 q 358 515 292 430 q 242 581 280 532 q 203 692 203 629 q 241 795 203 743 q 346 894 279 848 q 496 967 412 939 q 673 995 581 995 q 712 992 696 995 q 728 983 728 989 q 720 978 728 978 q 700 979 712 978 q 670 981 687 981 q 526 955 602 981 q 384 885 450 929 q 275 783 317 840 q 233 664 233 726 q 268 583 233 621 q 370 530 304 545 q 528 692 439 616 q 715 826 617 768 q 911 917 814 884 q 1096 950 1009 950 q 1144 939 1125 950 q 1164 900 1164 928 q 1120 802 1164 854 q 1004 699 1077 749 q 840 607 930 649 q 652 538 749 565 q 469 507 556 511 q 318 311 378 408 q 259 144 259 215 q 289 60 259 91 q 363 20 318 29 q 394 198 361 113 q 485 352 427 284 q 613 458 542 419 q 760 497 685 497 q 847 471 817 497 q 878 402 878 445 q 840 274 878 344 q 736 142 803 205 q 581 39 669 79 q 390 -1 492 -1 m 486 526 q 649 563 560 533 q 826 635 738 593 q 986 726 913 678 q 1103 820 1059 774 q 1147 898 1147 865 q 1133 926 1147 918 q 1095 934 1118 934 q 971 900 1044 934 q 814 809 898 867 q 645 678 730 751 q 486 526 560 605 m 397 16 q 511 46 452 16 q 623 124 569 76 q 721 227 677 172 q 790 335 764 282 q 815 426 815 388 q 753 479 815 479 q 630 443 695 479 q 508 345 565 408 q 414 198 450 281 q 378 18 378 114 l 378 17 q 388 16 382 16 q 397 16 393 16 m 1100 1029 q 1094 1033 1096 1029 q 1093 1037 1093 1037 q 1110 1053 1093 1040 q 1151 1082 1129 1064 q 1187 1121 1173 1099 q 1202 1148 1196 1134 q 1214 1190 1208 1163 q 1251 1238 1220 1238 q 1271 1230 1263 1238 q 1280 1201 1280 1221 q 1260 1152 1280 1180 q 1207 1095 1240 1124 q 1135 1044 1174 1067 q 1100 1029 1109 1029 m 249 -243 q 237 -234 237 -243 q 252 -222 237 -227 q 341 -178 310 -203 q 372 -115 372 -152 q 326 -85 372 -85 q 296 -90 311 -85 l 371 19 l 390 14 l 348 -44 q 372 -41 359 -41 q 417 -57 400 -41 q 434 -95 434 -73 q 414 -147 434 -123 q 368 -189 394 -171 q 297 -229 332 -214 q 249 -243 261 -243 z "},"Ĉ":{"ha":872,"x_min":203,"x_max":1246,"o":"m 414 -178 q 382 -127 402 -178 q 358 1 361 -76 q 255 52 296 9 q 214 170 214 94 q 253 341 214 253 q 358 515 292 430 q 242 581 280 532 q 203 692 203 629 q 241 795 203 743 q 346 894 279 848 q 496 967 412 939 q 673 995 581 995 q 712 992 696 995 q 728 983 728 989 q 720 978 728 978 q 700 979 712 978 q 670 981 687 981 q 526 955 602 981 q 384 885 450 929 q 275 783 317 840 q 233 664 233 726 q 268 583 233 621 q 370 530 304 545 q 528 692 439 616 q 715 826 617 768 q 911 917 814 884 q 1096 950 1009 950 q 1144 939 1125 950 q 1164 900 1164 928 q 1120 802 1164 854 q 1004 699 1077 749 q 840 607 930 649 q 652 538 749 565 q 469 507 556 511 q 318 311 378 408 q 259 144 259 215 q 286 60 259 91 q 358 20 313 29 q 392 198 358 113 q 484 352 427 284 q 613 458 542 419 q 760 497 685 497 q 847 471 817 497 q 878 402 878 445 q 840 274 878 344 q 736 142 803 205 q 581 39 669 79 q 390 -1 492 -1 q 378 -1 382 -1 q 388 -87 379 -37 q 418 -165 396 -137 q 420 -171 420 -169 q 420 -174 420 -173 q 414 -178 420 -178 m 486 526 q 649 563 560 533 q 826 635 738 593 q 986 726 913 678 q 1103 820 1059 774 q 1147 898 1147 865 q 1133 926 1147 918 q 1095 934 1118 934 q 971 900 1044 934 q 814 809 898 867 q 645 678 730 751 q 486 526 560 605 m 397 16 q 511 46 452 16 q 623 124 569 76 q 721 227 677 172 q 790 335 764 282 q 815 426 815 388 q 753 479 815 479 q 630 443 695 479 q 508 345 565 408 q 414 198 450 281 q 378 18 378 114 l 378 17 q 388 16 382 16 q 397 16 393 16 m 1234 1013 q 1202 1035 1223 1013 q 1169 1099 1181 1057 q 1165 1119 1166 1109 q 1162 1137 1163 1128 q 1076 1075 1116 1102 q 1002 1027 1036 1048 q 976 1015 983 1015 q 969 1017 969 1015 q 973 1026 969 1021 q 998 1048 977 1031 q 1097 1124 1051 1088 q 1189 1205 1142 1161 q 1216 1233 1208 1227 q 1229 1238 1223 1238 q 1234 1233 1234 1238 q 1230 1215 1234 1225 q 1219 1177 1225 1202 q 1213 1112 1213 1152 q 1236 1038 1213 1060 q 1243 1029 1240 1031 q 1246 1023 1246 1026 q 1243 1017 1246 1021 q 1234 1013 1240 1013 z "},"Ċ":{"ha":872,"x_min":203,"x_max":1218,"o":"m 414 -178 q 382 -127 402 -178 q 358 1 361 -76 q 255 52 296 9 q 214 170 214 94 q 253 341 214 253 q 358 515 292 430 q 242 581 280 532 q 203 692 203 629 q 241 795 203 743 q 346 894 279 848 q 496 967 412 939 q 673 995 581 995 q 712 992 696 995 q 728 983 728 989 q 720 978 728 978 q 700 979 712 978 q 670 981 687 981 q 526 955 602 981 q 384 885 450 929 q 275 783 317 840 q 233 664 233 726 q 268 583 233 621 q 370 530 304 545 q 528 692 439 616 q 715 826 617 768 q 911 917 814 884 q 1096 950 1009 950 q 1144 939 1125 950 q 1164 900 1164 928 q 1120 802 1164 854 q 1004 699 1077 749 q 840 607 930 649 q 652 538 749 565 q 469 507 556 511 q 318 311 378 408 q 259 144 259 215 q 286 60 259 91 q 358 20 313 29 q 392 198 358 113 q 484 352 427 284 q 613 458 542 419 q 760 497 685 497 q 847 471 817 497 q 878 402 878 445 q 840 274 878 344 q 736 142 803 205 q 581 39 669 79 q 390 -1 492 -1 q 378 -1 382 -1 q 388 -87 379 -37 q 418 -165 396 -137 q 420 -171 420 -169 q 420 -174 420 -173 q 414 -178 420 -178 m 486 526 q 649 563 560 533 q 826 635 738 593 q 986 726 913 678 q 1103 820 1059 774 q 1147 898 1147 865 q 1133 926 1147 918 q 1095 934 1118 934 q 971 900 1044 934 q 814 809 898 867 q 645 678 730 751 q 486 526 560 605 m 397 16 q 511 46 452 16 q 623 124 569 76 q 721 227 677 172 q 790 335 764 282 q 815 426 815 388 q 753 479 815 479 q 630 443 695 479 q 508 345 565 408 q 414 198 450 281 q 378 18 378 114 l 378 17 q 388 16 382 16 q 397 16 393 16 m 1150 1034 q 1120 1045 1131 1034 q 1109 1076 1109 1057 q 1129 1119 1109 1099 q 1177 1139 1149 1139 q 1207 1127 1196 1139 q 1218 1097 1218 1114 q 1197 1053 1218 1072 q 1150 1034 1175 1034 z "},"D":{"ha":1101,"x_min":0,"x_max":1369,"o":"m 122 -4 q 28 12 56 -4 q 0 46 0 27 q 36 85 0 66 q 140 104 72 104 q 216 96 175 104 q 328 67 257 88 q 332 66 330 66 q 336 64 334 66 q 495 189 407 103 q 711 430 583 274 q 825 567 770 500 q 956 703 881 633 q 1056 783 1000 745 q 926 889 1008 856 q 738 922 843 922 q 581 896 657 922 q 440 824 505 869 q 325 726 374 780 q 248 616 275 671 q 220 513 220 561 q 254 435 220 465 q 349 405 288 405 q 446 428 391 405 q 559 490 501 450 q 666 579 616 529 q 748 685 716 629 q 784 795 781 741 q 791 811 786 811 q 800 797 800 811 q 762 651 800 724 q 661 518 725 578 q 516 422 597 458 q 347 386 435 386 q 268 404 306 386 q 205 454 229 422 q 181 529 181 486 q 224 678 181 605 q 342 810 267 751 q 519 904 418 869 q 734 939 619 939 q 939 902 851 939 q 1081 799 1027 865 q 1221 870 1147 841 q 1358 902 1295 899 q 1369 895 1369 902 q 1365 889 1369 891 q 1346 885 1362 888 q 1224 846 1285 878 q 1104 765 1162 815 q 1154 570 1154 682 q 1106 340 1154 445 q 976 159 1059 236 q 790 41 894 83 q 573 -1 686 -1 q 475 7 522 -1 q 365 33 429 15 q 122 -4 255 -4 m 576 19 q 771 60 676 19 q 943 174 867 100 q 1065 348 1020 248 q 1111 567 1111 448 q 1078 742 1111 669 q 928 566 1000 669 q 772 351 850 453 q 602 170 693 249 q 397 45 511 91 q 474 27 432 35 q 576 19 517 19 m 134 18 q 221 24 180 18 q 306 50 263 31 q 220 68 261 61 q 135 75 179 75 q 48 66 77 75 q 19 46 19 58 q 134 18 19 18 z "},"Ǳ":{"ha":2103,"x_min":0,"x_max":2236,"o":"m 122 -4 q 28 12 56 -4 q 0 46 0 27 q 36 85 0 66 q 140 104 72 104 q 216 96 175 104 q 328 67 257 88 q 332 66 330 66 q 336 64 334 66 q 495 189 407 103 q 711 430 583 274 q 825 567 770 500 q 956 703 881 633 q 1056 783 1000 745 q 926 889 1008 856 q 738 922 843 922 q 581 896 657 922 q 440 824 505 869 q 325 726 374 780 q 248 616 275 671 q 220 513 220 561 q 254 435 220 465 q 349 405 288 405 q 446 428 391 405 q 559 490 501 450 q 666 579 616 529 q 748 685 716 629 q 784 795 781 741 q 791 811 786 811 q 800 797 800 811 q 762 651 800 724 q 661 518 725 578 q 516 422 597 458 q 347 386 435 386 q 268 404 306 386 q 205 454 229 422 q 181 529 181 486 q 224 678 181 605 q 342 810 267 751 q 519 904 418 869 q 734 939 619 939 q 939 902 851 939 q 1081 799 1027 865 q 1221 870 1147 841 q 1358 902 1295 899 q 1369 895 1369 902 q 1365 889 1369 891 q 1346 885 1362 888 q 1224 846 1285 878 q 1104 765 1162 815 q 1154 570 1154 682 q 1106 340 1154 445 q 976 159 1059 236 q 790 41 894 83 q 573 -1 686 -1 q 475 7 522 -1 q 365 33 429 15 q 122 -4 255 -4 m 576 19 q 771 60 676 19 q 943 174 867 100 q 1065 348 1020 248 q 1111 567 1111 448 q 1078 742 1111 669 q 928 566 1000 669 q 772 351 850 453 q 602 170 693 249 q 397 45 511 91 q 474 27 432 35 q 576 19 517 19 m 134 18 q 221 24 180 18 q 306 50 263 31 q 220 68 261 61 q 135 75 179 75 q 48 66 77 75 q 19 46 19 58 q 134 18 19 18 m 1758 -32 q 1585 -1 1670 -32 q 1417 61 1500 31 q 1304 14 1359 29 q 1197 -1 1249 -1 q 1085 18 1123 -1 q 1048 62 1048 37 q 1094 112 1050 90 q 1223 134 1139 134 q 1314 125 1267 134 q 1407 106 1361 117 q 1532 234 1466 156 q 1676 420 1598 312 q 1874 663 1771 549 q 2123 881 1978 777 q 2043 853 2087 863 q 1955 842 1999 842 q 1858 852 1900 842 q 1777 873 1815 861 q 1694 894 1739 886 q 1587 900 1649 902 q 1502 878 1545 899 q 1425 822 1460 857 q 1368 745 1390 787 q 1343 658 1345 703 q 1362 602 1343 628 q 1417 576 1382 576 q 1501 605 1461 576 q 1573 676 1541 633 q 1625 761 1605 718 q 1647 830 1645 803 q 1655 840 1648 840 q 1662 831 1657 840 q 1668 810 1667 823 q 1652 715 1672 761 q 1596 635 1632 670 q 1516 580 1560 600 q 1425 559 1471 559 q 1368 576 1390 559 q 1335 615 1345 592 q 1326 659 1325 639 q 1355 764 1328 712 q 1431 858 1383 816 q 1541 925 1478 900 q 1675 950 1603 950 q 1789 940 1741 950 q 1877 916 1837 930 q 1958 892 1917 903 q 2051 882 1999 882 q 2134 901 2094 882 q 2200 942 2175 919 q 2216 953 2209 951 q 2227 956 2222 956 q 2236 949 2236 956 q 2224 932 2236 941 q 2202 919 2209 924 q 2180 905 2195 914 q 2118 851 2155 888 q 2036 762 2081 813 q 1947 650 1992 710 q 1862 530 1902 591 q 1656 260 1755 368 q 1464 90 1557 152 q 1592 54 1530 71 q 1708 33 1654 37 q 1873 41 1800 26 q 1989 95 1946 56 q 2032 198 2032 134 q 2013 258 2032 230 q 1952 295 1994 286 q 1939 270 1951 280 q 1912 256 1927 259 q 1884 259 1898 254 q 1866 277 1870 264 q 1874 303 1862 292 q 1896 317 1886 314 q 1917 320 1908 320 q 2014 286 1976 320 q 2052 199 2052 251 q 2013 75 2052 126 q 1907 -4 1973 23 q 1758 -32 1841 -32 m 1199 15 q 1372 77 1286 15 q 1287 101 1329 92 q 1203 111 1245 111 q 1143 105 1173 111 q 1091 90 1112 100 q 1069 61 1070 79 q 1098 30 1069 45 q 1199 15 1128 15 z "},"Ǆ":{"ha":2102,"x_min":0,"x_max":2235,"o":"m 122 -4 q 28 12 56 -4 q 0 46 0 27 q 36 85 0 66 q 140 104 72 104 q 216 96 175 104 q 328 67 257 88 q 332 66 330 66 q 336 64 334 66 q 495 189 407 103 q 711 430 583 274 q 825 567 770 500 q 956 703 881 633 q 1056 783 1000 745 q 926 889 1008 856 q 738 922 843 922 q 581 896 657 922 q 440 824 505 869 q 325 726 374 780 q 248 616 275 671 q 220 513 220 561 q 254 435 220 465 q 349 405 288 405 q 446 428 391 405 q 559 490 501 450 q 666 579 616 529 q 748 685 716 629 q 784 795 781 741 q 791 811 786 811 q 800 797 800 811 q 762 651 800 724 q 661 518 725 578 q 516 422 597 458 q 347 386 435 386 q 268 404 306 386 q 205 454 229 422 q 181 529 181 486 q 224 678 181 605 q 342 810 267 751 q 519 904 418 869 q 734 939 619 939 q 939 902 851 939 q 1081 799 1027 865 q 1221 870 1147 841 q 1358 902 1295 899 q 1369 895 1369 902 q 1365 889 1369 891 q 1346 885 1362 888 q 1224 846 1285 878 q 1104 765 1162 815 q 1154 570 1154 682 q 1106 340 1154 445 q 976 159 1059 236 q 790 41 894 83 q 573 -1 686 -1 q 475 7 522 -1 q 365 33 429 15 q 122 -4 255 -4 m 576 19 q 771 60 676 19 q 943 174 867 100 q 1065 348 1020 248 q 1111 567 1111 448 q 1078 742 1111 669 q 928 566 1000 669 q 772 351 850 453 q 602 170 693 249 q 397 45 511 91 q 474 27 432 35 q 576 19 517 19 m 134 18 q 221 24 180 18 q 306 50 263 31 q 220 68 261 61 q 135 75 179 75 q 48 66 77 75 q 19 46 19 58 q 134 18 19 18 m 1758 -32 q 1585 -1 1670 -32 q 1416 61 1499 31 q 1303 14 1358 29 q 1196 -1 1249 -1 q 1085 18 1122 -1 q 1048 62 1047 37 q 1094 112 1049 90 q 1222 134 1138 134 q 1314 125 1267 134 q 1407 106 1360 117 q 1531 234 1465 156 q 1676 420 1597 312 q 1874 663 1770 549 q 2122 881 1978 777 q 2042 853 2086 863 q 1954 842 1999 842 q 1857 852 1899 842 q 1776 873 1815 861 q 1693 894 1738 886 q 1586 900 1648 902 q 1502 878 1544 899 q 1424 822 1459 857 q 1367 745 1389 787 q 1343 658 1345 703 q 1362 602 1342 628 q 1417 576 1381 576 q 1501 605 1461 576 q 1573 676 1541 633 q 1624 761 1605 718 q 1647 830 1644 803 q 1654 840 1647 840 q 1661 831 1656 840 q 1667 810 1666 823 q 1651 715 1671 761 q 1596 635 1632 670 q 1515 580 1560 600 q 1424 559 1470 559 q 1367 576 1390 559 q 1335 615 1345 592 q 1325 659 1324 639 q 1355 764 1327 712 q 1430 858 1382 816 q 1540 925 1478 900 q 1674 950 1603 950 q 1788 940 1740 950 q 1876 916 1836 930 q 1958 892 1917 903 q 2050 882 1999 882 q 2134 901 2093 882 q 2199 942 2174 919 q 2215 953 2209 951 q 2226 956 2222 956 q 2235 949 2235 956 q 2223 932 2235 941 q 2201 919 2209 924 q 2179 905 2194 914 q 2117 851 2155 888 q 2036 762 2080 813 q 1946 650 1991 710 q 1861 530 1901 591 q 1655 260 1754 368 q 1463 90 1556 152 q 1591 54 1529 71 q 1708 33 1653 37 q 1872 41 1799 26 q 1989 95 1946 56 q 2032 198 2032 134 q 2012 258 2032 230 q 1951 295 1993 286 q 1939 270 1950 280 q 1912 256 1927 259 q 1883 259 1897 254 q 1866 277 1870 264 q 1873 303 1861 292 q 1895 317 1885 314 q 1917 320 1907 320 q 2013 286 1975 320 q 2051 199 2051 251 q 2012 75 2051 126 q 1906 -4 1973 23 q 1758 -32 1840 -32 m 1198 15 q 1371 77 1286 15 q 1286 101 1329 92 q 1202 111 1244 111 q 1142 105 1173 111 q 1090 90 1112 100 q 1069 61 1069 79 q 1098 30 1068 45 q 1198 15 1127 15 m 1937 1000 q 1931 1005 1931 1000 q 1933 1013 1931 1010 q 1935 1023 1934 1017 q 1947 1062 1942 1037 q 1952 1126 1952 1087 q 1930 1201 1952 1179 q 1923 1210 1926 1206 q 1920 1215 1920 1213 q 1931 1225 1920 1225 q 1964 1203 1943 1225 q 1997 1140 1986 1182 q 2005 1101 2003 1118 q 2090 1163 2050 1136 q 2165 1212 2130 1190 q 2190 1224 2184 1224 q 2197 1221 2197 1224 q 2193 1212 2197 1217 q 2167 1191 2189 1207 q 2069 1114 2115 1151 q 1978 1033 2024 1077 q 1950 1006 1958 1012 q 1937 1000 1943 1000 z "},"Ɖ":{"ha":1101,"x_min":0,"x_max":1369,"o":"m 122 -4 q 28 12 56 -4 q 0 46 0 27 q 36 85 0 66 q 140 104 72 104 q 216 96 175 104 q 328 67 257 88 q 332 66 330 66 q 336 64 334 66 q 459 155 393 96 q 614 316 526 215 l 534 316 q 546 328 540 320 q 553 339 552 335 l 635 339 q 672 382 652 360 q 711 430 691 405 q 825 567 770 500 q 956 703 881 633 q 1056 783 1000 745 q 926 889 1008 856 q 738 922 843 922 q 581 896 657 922 q 440 824 505 869 q 325 726 374 780 q 248 616 275 671 q 220 513 220 561 q 254 435 220 465 q 349 405 288 405 q 446 428 391 405 q 559 490 501 450 q 666 579 616 529 q 748 685 716 629 q 784 795 781 741 q 791 811 786 811 q 800 797 800 811 q 762 651 800 724 q 661 518 725 578 q 516 422 597 458 q 347 386 435 386 q 268 404 306 386 q 205 454 229 422 q 181 529 181 486 q 224 678 181 605 q 342 810 267 751 q 519 904 418 869 q 734 939 619 939 q 939 902 851 939 q 1081 799 1027 865 q 1221 870 1147 841 q 1358 902 1295 899 q 1369 895 1369 902 q 1365 889 1369 891 q 1346 885 1362 888 q 1224 846 1285 878 q 1104 765 1162 815 q 1154 570 1154 682 q 1106 340 1154 445 q 976 159 1059 236 q 790 41 894 83 q 573 -1 686 -1 q 475 7 522 -1 q 364 33 429 15 q 250 6 311 16 q 122 -4 190 -4 m 576 19 q 771 60 676 19 q 943 174 867 100 q 1065 348 1020 248 q 1111 567 1111 448 q 1078 742 1111 669 q 928 566 1000 669 q 846 449 887 506 q 762 339 805 391 l 934 339 q 927 328 930 335 q 923 316 924 320 l 743 316 q 585 157 669 227 q 397 45 501 87 q 474 27 432 35 q 576 19 517 19 m 134 18 q 221 24 180 18 q 306 50 263 31 q 220 68 261 61 q 135 75 179 75 q 48 66 77 75 q 19 46 19 58 q 134 18 19 18 z "},"Ď":{"ha":1101,"x_min":0,"x_max":1369,"o":"m 122 -4 q 28 12 56 -4 q 0 46 0 27 q 36 85 0 66 q 140 104 72 104 q 216 96 175 104 q 328 67 257 88 q 332 66 330 66 q 336 64 334 66 q 495 189 407 103 q 711 430 583 274 q 825 567 770 500 q 956 703 881 633 q 1056 783 1000 745 q 926 889 1008 856 q 738 922 843 922 q 581 896 657 922 q 440 824 505 869 q 325 726 374 780 q 248 616 275 671 q 220 513 220 561 q 254 435 220 465 q 349 405 288 405 q 446 428 391 405 q 559 490 501 450 q 666 579 616 529 q 748 685 716 629 q 784 795 781 741 q 791 811 786 811 q 800 797 800 811 q 762 651 800 724 q 661 518 725 578 q 516 422 597 458 q 347 386 435 386 q 268 404 306 386 q 205 454 229 422 q 181 529 181 486 q 224 678 181 605 q 342 810 267 751 q 519 904 418 869 q 734 939 619 939 q 939 902 851 939 q 1081 799 1027 865 q 1221 870 1147 841 q 1358 902 1295 899 q 1369 895 1369 902 q 1365 889 1369 891 q 1346 885 1362 888 q 1224 846 1285 878 q 1104 765 1162 815 q 1154 570 1154 682 q 1106 340 1154 445 q 976 159 1059 236 q 790 41 894 83 q 573 -1 686 -1 q 475 7 522 -1 q 365 33 429 15 q 122 -4 255 -4 m 576 19 q 771 60 676 19 q 943 174 867 100 q 1065 348 1020 248 q 1111 567 1111 448 q 1078 742 1111 669 q 928 566 1000 669 q 772 351 850 453 q 602 170 693 249 q 397 45 511 91 q 474 27 432 35 q 576 19 517 19 m 134 18 q 221 24 180 18 q 306 50 263 31 q 220 68 261 61 q 135 75 179 75 q 48 66 77 75 q 19 46 19 58 q 134 18 19 18 m 1065 1000 q 1059 1005 1059 1000 q 1064 1022 1059 1010 q 1075 1061 1069 1036 q 1080 1126 1080 1086 q 1059 1221 1080 1192 q 1051 1230 1054 1227 q 1048 1236 1048 1233 q 1059 1244 1048 1244 q 1089 1224 1071 1244 q 1121 1161 1108 1203 q 1129 1132 1126 1147 q 1133 1101 1132 1116 q 1222 1177 1183 1147 q 1296 1232 1261 1207 q 1312 1242 1306 1240 q 1320 1244 1317 1244 q 1324 1242 1324 1244 q 1320 1233 1324 1238 q 1296 1211 1316 1228 q 1251 1172 1285 1202 q 1177 1104 1217 1142 q 1105 1033 1137 1066 q 1079 1006 1086 1012 q 1065 1000 1072 1000 z "},"Ḑ":{"ha":1101,"x_min":0,"x_max":1369,"o":"m 122 -4 q 28 12 56 -4 q 0 46 0 27 q 36 85 0 66 q 140 104 72 104 q 216 96 175 104 q 328 67 257 88 q 332 66 330 66 q 336 64 334 66 q 495 189 407 103 q 711 430 583 274 q 825 567 770 500 q 956 703 881 633 q 1056 783 1000 745 q 926 889 1008 856 q 738 922 843 922 q 581 896 657 922 q 440 824 505 869 q 325 726 374 780 q 248 616 275 671 q 220 513 220 561 q 254 435 220 465 q 349 405 288 405 q 446 428 391 405 q 559 490 501 450 q 666 579 616 529 q 748 685 716 629 q 784 795 781 741 q 791 811 786 811 q 800 797 800 811 q 762 651 800 724 q 661 518 725 578 q 516 422 597 458 q 347 386 435 386 q 268 404 306 386 q 205 454 229 422 q 181 529 181 486 q 224 678 181 605 q 342 810 267 751 q 519 904 418 869 q 734 939 619 939 q 939 902 851 939 q 1081 799 1027 865 q 1221 870 1147 841 q 1358 902 1295 899 q 1369 895 1369 902 q 1365 889 1369 891 q 1346 885 1362 888 q 1224 846 1285 878 q 1104 765 1162 815 q 1154 570 1154 682 q 1106 340 1154 445 q 976 159 1059 236 q 790 41 894 83 q 573 -1 686 -1 q 475 7 522 -1 q 365 33 429 15 q 122 -4 255 -4 m 576 19 q 771 60 676 19 q 943 174 867 100 q 1065 348 1020 248 q 1111 567 1111 448 q 1078 742 1111 669 q 928 566 1000 669 q 772 351 850 453 q 602 170 693 249 q 397 45 511 91 q 474 27 432 35 q 576 19 517 19 m 134 18 q 221 24 180 18 q 306 50 263 31 q 220 68 261 61 q 135 75 179 75 q 48 66 77 75 q 19 46 19 58 q 134 18 19 18 m 175 -298 q 165 -291 165 -298 q 168 -284 165 -288 q 182 -277 171 -281 q 232 -250 206 -270 q 275 -202 257 -230 q 295 -142 293 -174 q 310 -84 297 -106 q 347 -62 323 -62 q 378 -98 378 -62 q 354 -165 378 -127 q 273 -249 330 -204 q 216 -287 241 -275 q 175 -298 191 -298 z "},"Ḓ":{"ha":1101,"x_min":0,"x_max":1369,"o":"m 122 -4 q 28 12 56 -4 q 0 46 0 27 q 36 85 0 66 q 140 104 72 104 q 216 96 175 104 q 328 67 257 88 q 332 66 330 66 q 336 64 334 66 q 495 189 407 103 q 711 430 583 274 q 825 567 770 500 q 956 703 881 633 q 1056 783 1000 745 q 926 889 1008 856 q 738 922 843 922 q 581 896 657 922 q 440 824 505 869 q 325 726 374 780 q 248 616 275 671 q 220 513 220 561 q 254 435 220 465 q 349 405 288 405 q 446 428 391 405 q 559 490 501 450 q 666 579 616 529 q 748 685 716 629 q 784 795 781 741 q 791 811 786 811 q 800 797 800 811 q 762 651 800 724 q 661 518 725 578 q 516 422 597 458 q 347 386 435 386 q 268 404 306 386 q 205 454 229 422 q 181 529 181 486 q 224 678 181 605 q 342 810 267 751 q 519 904 418 869 q 734 939 619 939 q 939 902 851 939 q 1081 799 1027 865 q 1221 870 1147 841 q 1358 902 1295 899 q 1369 895 1369 902 q 1365 889 1369 891 q 1346 885 1362 888 q 1224 846 1285 878 q 1104 765 1162 815 q 1154 570 1154 682 q 1106 340 1154 445 q 976 159 1059 236 q 790 41 894 83 q 573 -1 686 -1 q 475 7 522 -1 q 365 33 429 15 q 122 -4 255 -4 m 576 19 q 771 60 676 19 q 943 174 867 100 q 1065 348 1020 248 q 1111 567 1111 448 q 1078 742 1111 669 q 928 566 1000 669 q 772 351 850 453 q 602 170 693 249 q 397 45 511 91 q 474 27 432 35 q 576 19 517 19 m 134 18 q 221 24 180 18 q 306 50 263 31 q 220 68 261 61 q 135 75 179 75 q 48 66 77 75 q 19 46 19 58 q 134 18 19 18 m 82 -326 q 78 -323 78 -326 q 83 -314 78 -319 q 108 -292 87 -309 q 153 -253 119 -282 q 226 -185 186 -223 q 298 -114 267 -147 q 325 -86 317 -92 q 338 -81 332 -81 q 343 -86 343 -81 q 340 -103 343 -91 q 328 -142 334 -117 q 323 -208 323 -167 q 345 -302 323 -274 q 352 -311 349 -308 q 354 -317 354 -314 q 343 -326 354 -326 q 313 -304 332 -326 q 282 -242 294 -283 q 275 -213 277 -229 q 271 -183 272 -198 q 181 -259 220 -230 q 108 -313 142 -289 q 92 -323 97 -321 q 82 -326 86 -326 z "},"Đ":{"ha":1101,"x_min":0,"x_max":1369,"o":"m 122 -4 q 28 12 56 -4 q 0 46 0 27 q 36 85 0 66 q 140 104 72 104 q 216 96 175 104 q 328 67 257 88 q 332 66 330 66 q 336 64 334 66 q 459 155 393 96 q 614 316 526 215 l 534 316 q 546 328 540 320 q 553 339 552 335 l 635 339 q 672 382 652 360 q 711 430 691 405 q 825 567 770 500 q 956 703 881 633 q 1056 783 1000 745 q 926 889 1008 856 q 738 922 843 922 q 581 896 657 922 q 440 824 505 869 q 325 726 374 780 q 248 616 275 671 q 220 513 220 561 q 254 435 220 465 q 349 405 288 405 q 446 428 391 405 q 559 490 501 450 q 666 579 616 529 q 748 685 716 629 q 784 795 781 741 q 791 811 786 811 q 800 797 800 811 q 762 651 800 724 q 661 518 725 578 q 516 422 597 458 q 347 386 435 386 q 268 404 306 386 q 205 454 229 422 q 181 529 181 486 q 224 678 181 605 q 342 810 267 751 q 519 904 418 869 q 734 939 619 939 q 939 902 851 939 q 1081 799 1027 865 q 1221 870 1147 841 q 1358 902 1295 899 q 1369 895 1369 902 q 1365 889 1369 891 q 1346 885 1362 888 q 1224 846 1285 878 q 1104 765 1162 815 q 1154 570 1154 682 q 1106 340 1154 445 q 976 159 1059 236 q 790 41 894 83 q 573 -1 686 -1 q 475 7 522 -1 q 364 33 429 15 q 250 6 311 16 q 122 -4 190 -4 m 576 19 q 771 60 676 19 q 943 174 867 100 q 1065 348 1020 248 q 1111 567 1111 448 q 1078 742 1111 669 q 928 566 1000 669 q 846 449 887 506 q 762 339 805 391 l 934 339 q 927 328 930 335 q 923 316 924 320 l 743 316 q 585 157 669 227 q 397 45 501 87 q 474 27 432 35 q 576 19 517 19 m 134 18 q 221 24 180 18 q 306 50 263 31 q 220 68 261 61 q 135 75 179 75 q 48 66 77 75 q 19 46 19 58 q 134 18 19 18 z "},"Ḋ":{"ha":1101,"x_min":0,"x_max":1369,"o":"m 122 -4 q 28 12 56 -4 q 0 46 0 27 q 36 85 0 66 q 140 104 72 104 q 216 96 175 104 q 328 67 257 88 q 332 66 330 66 q 336 64 334 66 q 495 189 407 103 q 711 430 583 274 q 825 567 770 500 q 956 703 881 633 q 1056 783 1000 745 q 926 889 1008 856 q 738 922 843 922 q 581 896 657 922 q 440 824 505 869 q 325 726 374 780 q 248 616 275 671 q 220 513 220 561 q 254 435 220 465 q 349 405 288 405 q 446 428 391 405 q 559 490 501 450 q 666 579 616 529 q 748 685 716 629 q 784 795 781 741 q 791 811 786 811 q 800 797 800 811 q 762 651 800 724 q 661 518 725 578 q 516 422 597 458 q 347 386 435 386 q 268 404 306 386 q 205 454 229 422 q 181 529 181 486 q 224 678 181 605 q 342 810 267 751 q 519 904 418 869 q 734 939 619 939 q 939 902 851 939 q 1081 799 1027 865 q 1221 870 1147 841 q 1358 902 1295 899 q 1369 895 1369 902 q 1365 889 1369 891 q 1346 885 1362 888 q 1224 846 1285 878 q 1104 765 1162 815 q 1154 570 1154 682 q 1106 340 1154 445 q 976 159 1059 236 q 790 41 894 83 q 573 -1 686 -1 q 475 7 522 -1 q 365 33 429 15 q 122 -4 255 -4 m 576 19 q 771 60 676 19 q 943 174 867 100 q 1065 348 1020 248 q 1111 567 1111 448 q 1078 742 1111 669 q 928 566 1000 669 q 772 351 850 453 q 602 170 693 249 q 397 45 511 91 q 474 27 432 35 q 576 19 517 19 m 134 18 q 221 24 180 18 q 306 50 263 31 q 220 68 261 61 q 135 75 179 75 q 48 66 77 75 q 19 46 19 58 q 134 18 19 18 m 1097 1034 q 1067 1045 1078 1034 q 1056 1076 1056 1057 q 1076 1119 1056 1099 q 1124 1139 1096 1139 q 1154 1127 1143 1139 q 1165 1097 1165 1114 q 1144 1053 1165 1072 q 1097 1034 1122 1034 z "},"Ḍ":{"ha":1101,"x_min":0,"x_max":1369,"o":"m 122 -4 q 28 12 56 -4 q 0 46 0 27 q 36 85 0 66 q 140 104 72 104 q 216 96 175 104 q 328 67 257 88 q 332 66 330 66 q 336 64 334 66 q 495 189 407 103 q 711 430 583 274 q 825 567 770 500 q 956 703 881 633 q 1056 783 1000 745 q 926 889 1008 856 q 738 922 843 922 q 581 896 657 922 q 440 824 505 869 q 325 726 374 780 q 248 616 275 671 q 220 513 220 561 q 254 435 220 465 q 349 405 288 405 q 446 428 391 405 q 559 490 501 450 q 666 579 616 529 q 748 685 716 629 q 784 795 781 741 q 791 811 786 811 q 800 797 800 811 q 762 651 800 724 q 661 518 725 578 q 516 422 597 458 q 347 386 435 386 q 268 404 306 386 q 205 454 229 422 q 181 529 181 486 q 224 678 181 605 q 342 810 267 751 q 519 904 418 869 q 734 939 619 939 q 939 902 851 939 q 1081 799 1027 865 q 1221 870 1147 841 q 1358 902 1295 899 q 1369 895 1369 902 q 1365 889 1369 891 q 1346 885 1362 888 q 1224 846 1285 878 q 1104 765 1162 815 q 1154 570 1154 682 q 1106 340 1154 445 q 976 159 1059 236 q 790 41 894 83 q 573 -1 686 -1 q 475 7 522 -1 q 365 33 429 15 q 122 -4 255 -4 m 576 19 q 771 60 676 19 q 943 174 867 100 q 1065 348 1020 248 q 1111 567 1111 448 q 1078 742 1111 669 q 928 566 1000 669 q 772 351 850 453 q 602 170 693 249 q 397 45 511 91 q 474 27 432 35 q 576 19 517 19 m 134 18 q 221 24 180 18 q 306 50 263 31 q 220 68 261 61 q 135 75 179 75 q 48 66 77 75 q 19 46 19 58 q 134 18 19 18 m 318 -176 q 288 -164 299 -176 q 277 -134 277 -152 q 297 -90 277 -110 q 345 -70 317 -70 q 375 -82 363 -70 q 386 -113 386 -95 q 365 -157 386 -138 q 318 -176 343 -176 z "},"Ɗ":{"ha":1101,"x_min":0,"x_max":1369,"o":"m 122 -4 q 28 12 56 -4 q 0 46 0 27 q 36 85 0 66 q 140 104 72 104 q 216 96 175 104 q 328 67 257 88 q 332 66 330 66 q 336 64 334 66 q 495 189 407 103 q 711 430 583 274 q 825 567 770 500 q 956 703 881 633 q 1056 783 1000 745 q 926 889 1008 856 q 738 922 843 922 q 571 908 650 922 q 431 865 492 893 q 334 797 369 838 q 298 704 298 756 q 316 641 298 663 q 358 610 333 618 q 408 603 383 602 q 447 608 433 604 q 476 634 456 623 q 507 646 496 646 q 538 632 527 646 q 544 602 549 618 q 517 569 539 585 q 455 554 494 554 q 327 594 378 554 q 276 700 276 634 q 313 800 276 756 q 413 875 349 844 q 560 922 477 906 q 734 939 642 938 q 939 902 851 939 q 1081 799 1027 865 q 1221 870 1147 841 q 1358 902 1295 899 q 1369 895 1369 902 q 1365 889 1369 891 q 1346 885 1362 888 q 1224 846 1285 878 q 1104 765 1162 815 q 1154 570 1154 682 q 1106 340 1154 445 q 976 159 1059 236 q 790 41 894 83 q 573 -1 686 -1 q 475 7 522 -1 q 365 33 429 15 q 122 -4 255 -4 m 576 19 q 771 60 676 19 q 943 174 867 100 q 1065 348 1020 248 q 1111 567 1111 448 q 1078 742 1111 669 q 928 566 1000 669 q 772 351 850 453 q 602 170 693 249 q 397 45 511 91 q 474 27 432 35 q 576 19 517 19 m 134 18 q 221 24 180 18 q 306 50 263 31 q 220 68 261 61 q 135 75 179 75 q 48 66 77 75 q 19 46 19 58 q 134 18 19 18 z "},"Ḏ":{"ha":1101,"x_min":0,"x_max":1369,"o":"m 122 -4 q 28 12 56 -4 q 0 46 0 27 q 36 85 0 66 q 140 104 72 104 q 216 96 175 104 q 328 67 257 88 q 332 66 330 66 q 336 64 334 66 q 495 189 407 103 q 711 430 583 274 q 825 567 770 500 q 956 703 881 633 q 1056 783 1000 745 q 926 889 1008 856 q 738 922 843 922 q 581 896 657 922 q 440 824 505 869 q 325 726 374 780 q 248 616 275 671 q 220 513 220 561 q 254 435 220 465 q 349 405 288 405 q 446 428 391 405 q 559 490 501 450 q 666 579 616 529 q 748 685 716 629 q 784 795 781 741 q 791 811 786 811 q 800 797 800 811 q 762 651 800 724 q 661 518 725 578 q 516 422 597 458 q 347 386 435 386 q 268 404 306 386 q 205 454 229 422 q 181 529 181 486 q 224 678 181 605 q 342 810 267 751 q 519 904 418 869 q 734 939 619 939 q 939 902 851 939 q 1081 799 1027 865 q 1221 870 1147 841 q 1358 902 1295 899 q 1369 895 1369 902 q 1365 889 1369 891 q 1346 885 1362 888 q 1224 846 1285 878 q 1104 765 1162 815 q 1154 570 1154 682 q 1106 340 1154 445 q 976 159 1059 236 q 790 41 894 83 q 573 -1 686 -1 q 475 7 522 -1 q 365 33 429 15 q 122 -4 255 -4 m 576 19 q 771 60 676 19 q 943 174 867 100 q 1065 348 1020 248 q 1111 567 1111 448 q 1078 742 1111 669 q 928 566 1000 669 q 772 351 850 453 q 602 170 693 249 q 397 45 511 91 q 474 27 432 35 q 576 19 517 19 m 134 18 q 221 24 180 18 q 306 50 263 31 q 220 68 261 61 q 135 75 179 75 q 48 66 77 75 q 19 46 19 58 q 134 18 19 18 m 175 -156 q 203 -137 190 -146 q 224 -119 216 -128 l 544 -119 q 503 -156 516 -137 l 175 -156 z "},"ǲ":{"ha":1571,"x_min":0,"x_max":1679,"o":"m 122 -4 q 28 12 56 -4 q 0 46 0 27 q 36 85 0 66 q 140 104 72 104 q 216 96 175 104 q 328 67 257 88 q 332 66 330 66 q 336 64 334 66 q 495 189 407 103 q 711 430 583 274 q 825 567 770 500 q 956 703 881 633 q 1056 783 1000 745 q 926 889 1008 856 q 738 922 843 922 q 581 896 657 922 q 440 824 505 869 q 325 726 374 780 q 248 616 275 671 q 220 513 220 561 q 254 435 220 465 q 349 405 288 405 q 446 428 391 405 q 559 490 501 450 q 666 579 616 529 q 748 685 716 629 q 784 795 781 741 q 791 811 786 811 q 800 797 800 811 q 762 651 800 724 q 661 518 725 578 q 516 422 597 458 q 347 386 435 386 q 268 404 306 386 q 205 454 229 422 q 181 529 181 486 q 224 678 181 605 q 342 810 267 751 q 519 904 418 869 q 734 939 619 939 q 939 902 851 939 q 1081 799 1027 865 q 1221 870 1147 841 q 1358 902 1295 899 q 1369 895 1369 902 q 1365 889 1369 891 q 1346 885 1362 888 q 1224 846 1285 878 q 1104 765 1162 815 q 1154 570 1154 682 q 1106 340 1154 445 q 976 159 1059 236 q 790 41 894 83 q 573 -1 686 -1 q 475 7 522 -1 q 365 33 429 15 q 122 -4 255 -4 m 576 19 q 771 60 676 19 q 943 174 867 100 q 1065 348 1020 248 q 1111 567 1111 448 q 1078 742 1111 669 q 928 566 1000 669 q 772 351 850 453 q 602 170 693 249 q 397 45 511 91 q 474 27 432 35 q 576 19 517 19 m 134 18 q 221 24 180 18 q 306 50 263 31 q 220 68 261 61 q 135 75 179 75 q 48 66 77 75 q 19 46 19 58 q 134 18 19 18 m 825 -534 q 780 -517 793 -534 q 766 -478 766 -500 q 824 -371 766 -431 q 988 -239 882 -311 q 1236 -89 1094 -168 q 1238 -61 1238 -75 q 1227 -18 1238 -32 q 1204 -5 1217 -5 l 1203 -5 q 1163 -25 1182 -16 q 1126 -45 1144 -35 q 1108 -58 1111 -54 q 1100 -62 1105 -62 q 1088 -58 1096 -62 q 1081 -52 1081 -54 q 1087 -42 1081 -48 q 1114 -28 1093 -37 q 1165 0 1143 -14 q 1209 41 1187 15 q 1257 113 1230 66 q 1325 234 1284 159 q 1353 281 1339 259 q 1383 323 1368 304 q 1316 348 1343 331 q 1272 387 1289 365 q 1240 333 1259 364 q 1190 264 1221 301 q 1141 214 1156 224 q 1124 204 1126 204 q 1120 208 1120 204 q 1138 230 1120 208 q 1175 275 1156 252 q 1230 349 1215 321 q 1261 405 1246 376 q 1246 469 1246 435 q 1264 521 1246 498 q 1311 545 1282 545 q 1347 518 1347 545 q 1335 486 1347 496 q 1310 463 1322 475 q 1297 427 1297 451 q 1322 375 1297 402 q 1392 336 1347 347 q 1510 445 1451 410 q 1617 480 1569 480 q 1664 469 1649 480 q 1679 441 1679 457 q 1652 393 1679 419 q 1579 347 1625 368 q 1476 321 1533 327 q 1392 161 1436 222 q 1306 64 1349 100 q 1222 5 1263 28 q 1300 -56 1286 -1 q 1502 105 1421 17 q 1647 275 1583 193 l 1662 264 q 1507 85 1590 175 q 1303 -74 1423 -5 q 1305 -100 1305 -85 q 1275 -212 1305 -153 q 1192 -329 1244 -272 q 1077 -432 1141 -386 q 948 -506 1014 -478 q 825 -534 883 -534 m 1481 334 q 1569 359 1529 341 q 1632 399 1609 377 q 1656 441 1656 422 q 1616 466 1656 466 q 1549 436 1586 466 q 1481 334 1512 406 m 825 -517 q 902 -492 856 -517 q 1000 -426 949 -468 q 1100 -331 1052 -384 q 1183 -221 1147 -278 q 1232 -109 1219 -163 q 1005 -249 1105 -182 q 845 -373 904 -315 q 786 -481 786 -431 q 794 -506 786 -494 q 825 -517 803 -517 z "},"ǅ":{"ha":1571,"x_min":0,"x_max":1761,"o":"m 122 -4 q 28 12 56 -4 q 0 46 0 27 q 36 85 0 66 q 140 104 72 104 q 216 96 175 104 q 328 67 257 88 q 332 66 330 66 q 336 64 334 66 q 495 189 407 103 q 711 430 583 274 q 825 567 770 500 q 956 703 881 633 q 1056 783 1000 745 q 926 889 1008 856 q 738 922 843 922 q 581 896 657 922 q 440 824 505 869 q 325 726 374 780 q 248 616 275 671 q 220 513 220 561 q 254 435 220 465 q 349 405 288 405 q 446 428 391 405 q 559 490 501 450 q 666 579 616 529 q 748 685 716 629 q 784 795 781 741 q 791 811 786 811 q 800 797 800 811 q 762 651 800 724 q 661 518 725 578 q 516 422 597 458 q 347 386 435 386 q 268 404 306 386 q 205 454 229 422 q 181 529 181 486 q 224 678 181 605 q 342 810 267 751 q 519 904 418 869 q 734 939 619 939 q 939 902 851 939 q 1081 799 1027 865 q 1221 870 1147 841 q 1358 902 1295 899 q 1369 895 1369 902 q 1365 889 1369 891 q 1346 885 1362 888 q 1224 846 1285 878 q 1104 765 1162 815 q 1154 570 1154 682 q 1106 340 1154 445 q 976 159 1059 236 q 790 41 894 83 q 573 -1 686 -1 q 475 7 522 -1 q 365 33 429 15 q 122 -4 255 -4 m 576 19 q 771 60 676 19 q 943 174 867 100 q 1065 348 1020 248 q 1111 567 1111 448 q 1078 742 1111 669 q 928 566 1000 669 q 772 351 850 453 q 602 170 693 249 q 397 45 511 91 q 474 27 432 35 q 576 19 517 19 m 134 18 q 221 24 180 18 q 306 50 263 31 q 220 68 261 61 q 135 75 179 75 q 48 66 77 75 q 19 46 19 58 q 134 18 19 18 m 825 -534 q 780 -517 793 -534 q 766 -478 766 -500 q 824 -371 766 -431 q 988 -239 882 -311 q 1236 -89 1094 -168 q 1238 -61 1238 -75 q 1227 -18 1238 -32 q 1204 -5 1217 -5 l 1203 -5 q 1163 -25 1182 -16 q 1126 -45 1144 -35 q 1108 -58 1111 -54 q 1100 -62 1105 -62 q 1088 -58 1096 -62 q 1081 -52 1081 -54 q 1087 -42 1081 -48 q 1114 -28 1093 -37 q 1165 0 1143 -14 q 1209 41 1187 15 q 1257 113 1230 66 q 1325 234 1284 159 q 1353 281 1339 259 q 1383 323 1368 304 q 1316 348 1343 331 q 1272 387 1289 365 q 1240 333 1259 364 q 1190 264 1221 301 q 1141 214 1156 224 q 1124 204 1126 204 q 1120 208 1120 204 q 1138 230 1120 208 q 1175 275 1156 252 q 1230 349 1215 321 q 1261 405 1246 376 q 1246 469 1246 435 q 1264 521 1246 498 q 1311 545 1282 545 q 1347 518 1347 545 q 1335 486 1347 496 q 1310 463 1322 475 q 1297 427 1297 451 q 1322 375 1297 402 q 1392 336 1347 347 q 1510 445 1451 410 q 1617 480 1569 480 q 1664 469 1649 480 q 1679 441 1679 457 q 1652 393 1679 419 q 1579 347 1625 368 q 1476 321 1533 327 q 1392 161 1436 222 q 1306 64 1349 100 q 1222 5 1263 28 q 1300 -56 1286 -1 q 1502 105 1421 17 q 1647 275 1583 193 l 1662 264 q 1507 85 1590 175 q 1303 -74 1423 -5 q 1305 -100 1305 -85 q 1275 -212 1305 -153 q 1192 -329 1244 -272 q 1077 -432 1141 -386 q 948 -506 1014 -478 q 825 -534 883 -534 m 1481 334 q 1569 359 1529 341 q 1632 399 1609 377 q 1656 441 1656 422 q 1616 466 1656 466 q 1549 436 1586 466 q 1481 334 1512 406 m 825 -517 q 902 -492 856 -517 q 1000 -426 949 -468 q 1100 -331 1052 -384 q 1183 -221 1147 -278 q 1232 -109 1219 -163 q 1005 -249 1105 -182 q 845 -373 904 -315 q 786 -481 786 -431 q 794 -506 786 -494 q 825 -517 803 -517 m 1502 534 q 1496 540 1496 534 q 1501 557 1496 545 q 1512 595 1506 570 q 1517 661 1517 621 q 1495 756 1517 727 q 1488 765 1491 762 q 1485 771 1485 768 q 1496 779 1485 779 q 1526 759 1508 779 q 1558 696 1545 738 q 1566 666 1563 682 q 1569 636 1569 651 q 1659 712 1619 682 q 1733 767 1698 742 q 1748 777 1743 774 q 1757 779 1754 779 q 1761 777 1761 779 q 1757 768 1761 772 q 1733 745 1753 763 q 1688 707 1722 736 q 1614 639 1654 677 q 1542 568 1573 601 q 1516 541 1523 547 q 1502 534 1508 534 z "},"Ð":{"ha":1101,"x_min":0,"x_max":1369,"o":"m 122 -4 q 28 12 56 -4 q 0 46 0 27 q 36 85 0 66 q 140 104 72 104 q 216 96 175 104 q 328 67 257 88 q 332 66 330 66 q 336 64 334 66 q 459 155 393 96 q 614 316 526 215 l 534 316 q 546 328 540 320 q 553 339 552 335 l 635 339 q 672 382 652 360 q 711 430 691 405 q 825 567 770 500 q 956 703 881 633 q 1056 783 1000 745 q 926 889 1008 856 q 738 922 843 922 q 581 896 657 922 q 440 824 505 869 q 325 726 374 780 q 248 616 275 671 q 220 513 220 561 q 254 435 220 465 q 349 405 288 405 q 446 428 391 405 q 559 490 501 450 q 666 579 616 529 q 748 685 716 629 q 784 795 781 741 q 791 811 786 811 q 800 797 800 811 q 762 651 800 724 q 661 518 725 578 q 516 422 597 458 q 347 386 435 386 q 268 404 306 386 q 205 454 229 422 q 181 529 181 486 q 224 678 181 605 q 342 810 267 751 q 519 904 418 869 q 734 939 619 939 q 939 902 851 939 q 1081 799 1027 865 q 1221 870 1147 841 q 1358 902 1295 899 q 1369 895 1369 902 q 1365 889 1369 891 q 1346 885 1362 888 q 1224 846 1285 878 q 1104 765 1162 815 q 1154 570 1154 682 q 1106 340 1154 445 q 976 159 1059 236 q 790 41 894 83 q 573 -1 686 -1 q 475 7 522 -1 q 364 33 429 15 q 250 6 311 16 q 122 -4 190 -4 m 576 19 q 771 60 676 19 q 943 174 867 100 q 1065 348 1020 248 q 1111 567 1111 448 q 1078 742 1111 669 q 928 566 1000 669 q 846 449 887 506 q 762 339 805 391 l 934 339 q 927 328 930 335 q 923 316 924 320 l 743 316 q 585 157 669 227 q 397 45 501 87 q 474 27 432 35 q 576 19 517 19 m 134 18 q 221 24 180 18 q 306 50 263 31 q 220 68 261 61 q 135 75 179 75 q 48 66 77 75 q 19 46 19 58 q 134 18 19 18 z "},"E":{"ha":673,"x_min":-1,"x_max":1027,"o":"m 260 -193 q 254 -192 258 -193 q 244 -184 250 -191 q 222 -140 231 -170 q 209 -78 214 -111 q 203 -19 205 -45 l 203 1 q 56 60 111 11 q 1 178 2 109 q 30 303 -1 243 q 116 410 60 363 q 246 483 172 456 q 408 510 321 510 l 412 510 q 386 568 394 535 q 213 640 280 591 q 117 755 146 690 q 113 765 114 760 q 113 772 113 770 q 118 780 113 780 q 132 764 125 780 q 382 586 193 625 q 382 602 382 591 q 418 745 381 681 q 516 855 455 809 q 651 926 578 901 q 795 950 724 950 q 966 911 905 950 q 1027 802 1027 872 q 989 704 1027 750 q 886 624 951 659 q 735 571 821 590 q 554 551 650 551 q 443 558 492 551 q 465 507 448 533 q 566 481 532 500 q 601 440 600 461 q 566 418 601 418 q 499 436 536 418 q 432 486 462 454 q 301 446 366 478 q 184 366 237 414 q 101 263 132 318 q 71 156 71 208 q 106 65 73 102 q 205 18 140 28 q 236 137 210 79 q 304 241 262 195 q 396 315 345 288 q 503 342 448 342 q 577 315 545 342 q 609 249 609 287 q 561 121 609 178 q 431 32 513 64 q 248 -1 349 -1 q 236 -1 241 -1 q 224 -1 230 -1 q 223 -11 223 -5 q 223 -21 223 -16 q 228 -78 223 -46 q 241 -136 233 -109 q 262 -177 250 -163 q 269 -187 269 -184 q 260 -193 269 -193 m 542 571 q 699 588 618 571 q 848 638 779 606 q 959 718 917 671 q 1002 823 1002 764 q 953 901 1002 869 q 819 933 904 933 q 682 899 749 933 q 559 811 614 865 q 473 697 505 758 q 440 586 440 637 l 440 576 q 489 572 464 574 q 542 571 515 571 m 576 434 q 587 442 587 434 q 555 469 586 454 q 480 487 525 484 q 527 449 501 463 q 576 434 553 434 m 252 15 q 363 40 306 15 q 469 105 420 66 q 548 189 517 145 q 578 267 578 232 q 557 310 578 295 q 505 326 536 326 q 387 287 448 326 q 280 179 326 249 q 224 16 234 110 q 238 15 231 16 q 252 15 245 15 z "},"É":{"ha":673,"x_min":-1,"x_max":1078,"o":"m 260 -193 q 254 -192 258 -193 q 244 -184 250 -191 q 222 -140 231 -170 q 209 -78 214 -111 q 203 -19 205 -45 l 203 1 q 56 60 111 11 q 1 178 2 109 q 30 303 -1 243 q 116 410 60 363 q 246 483 172 456 q 408 510 321 510 l 412 510 q 386 568 394 535 q 213 640 280 591 q 117 755 146 690 q 113 765 114 760 q 113 772 113 770 q 118 780 113 780 q 132 764 125 780 q 382 586 193 625 q 382 602 382 591 q 418 745 381 681 q 516 855 455 809 q 651 926 578 901 q 795 950 724 950 q 966 911 905 950 q 1027 802 1027 872 q 989 704 1027 750 q 886 624 951 659 q 735 571 821 590 q 554 551 650 551 q 443 558 492 551 q 465 507 448 533 q 566 481 532 500 q 601 440 600 461 q 566 418 601 418 q 499 436 536 418 q 432 486 462 454 q 301 446 366 478 q 184 366 237 414 q 101 263 132 318 q 71 156 71 208 q 106 65 73 102 q 205 18 140 28 q 236 137 210 79 q 304 241 262 195 q 396 315 345 288 q 503 342 448 342 q 577 315 545 342 q 609 249 609 287 q 561 121 609 178 q 431 32 513 64 q 248 -1 349 -1 q 236 -1 241 -1 q 224 -1 230 -1 q 223 -11 223 -5 q 223 -21 223 -16 q 228 -78 223 -46 q 241 -136 233 -109 q 262 -177 250 -163 q 269 -187 269 -184 q 260 -193 269 -193 m 542 571 q 699 588 618 571 q 848 638 779 606 q 959 718 917 671 q 1002 823 1002 764 q 953 901 1002 869 q 819 933 904 933 q 682 899 749 933 q 559 811 614 865 q 473 697 505 758 q 440 586 440 637 l 440 576 q 489 572 464 574 q 542 571 515 571 m 576 434 q 587 442 587 434 q 555 469 586 454 q 480 487 525 484 q 527 449 501 463 q 576 434 553 434 m 252 15 q 363 40 306 15 q 469 105 420 66 q 548 189 517 145 q 578 267 578 232 q 557 310 578 295 q 505 326 536 326 q 387 287 448 326 q 280 179 326 249 q 224 16 234 110 q 238 15 231 16 q 252 15 245 15 m 892 1013 q 884 1020 884 1013 q 888 1026 884 1024 q 901 1035 892 1029 q 945 1066 921 1046 q 986 1112 970 1086 q 1002 1150 996 1128 q 1013 1210 1008 1172 q 1049 1258 1019 1258 q 1078 1221 1078 1258 q 1058 1161 1078 1196 q 1004 1090 1038 1126 q 926 1029 970 1055 q 892 1013 901 1013 z "},"Ĕ":{"ha":673,"x_min":-1,"x_max":1137,"o":"m 260 -193 q 254 -192 258 -193 q 244 -184 250 -191 q 222 -140 231 -170 q 209 -78 214 -111 q 203 -19 205 -45 l 203 1 q 56 60 111 11 q 1 178 2 109 q 30 303 -1 243 q 116 410 60 363 q 246 483 172 456 q 408 510 321 510 l 412 510 q 386 568 394 535 q 213 640 280 591 q 117 755 146 690 q 113 765 114 760 q 113 772 113 770 q 118 780 113 780 q 132 764 125 780 q 382 586 193 625 q 382 602 382 591 q 418 745 381 681 q 516 855 455 809 q 651 926 578 901 q 795 950 724 950 q 966 911 905 950 q 1027 802 1027 872 q 989 704 1027 750 q 886 624 951 659 q 735 571 821 590 q 554 551 650 551 q 443 558 492 551 q 465 507 448 533 q 566 481 532 500 q 601 440 600 461 q 566 418 601 418 q 499 436 536 418 q 432 486 462 454 q 301 446 366 478 q 184 366 237 414 q 101 263 132 318 q 71 156 71 208 q 106 65 73 102 q 205 18 140 28 q 236 137 210 79 q 304 241 262 195 q 396 315 345 288 q 503 342 448 342 q 577 315 545 342 q 609 249 609 287 q 561 121 609 178 q 431 32 513 64 q 248 -1 349 -1 q 236 -1 241 -1 q 224 -1 230 -1 q 223 -11 223 -5 q 223 -21 223 -16 q 228 -78 223 -46 q 241 -136 233 -109 q 262 -177 250 -163 q 269 -187 269 -184 q 260 -193 269 -193 m 542 571 q 699 588 618 571 q 848 638 779 606 q 959 718 917 671 q 1002 823 1002 764 q 953 901 1002 869 q 819 933 904 933 q 682 899 749 933 q 559 811 614 865 q 473 697 505 758 q 440 586 440 637 l 440 576 q 489 572 464 574 q 542 571 515 571 m 576 434 q 587 442 587 434 q 555 469 586 454 q 480 487 525 484 q 527 449 501 463 q 576 434 553 434 m 252 15 q 363 40 306 15 q 469 105 420 66 q 548 189 517 145 q 578 267 578 232 q 557 310 578 295 q 505 326 536 326 q 387 287 448 326 q 280 179 326 249 q 224 16 234 110 q 238 15 231 16 q 252 15 245 15 m 887 1033 q 825 1052 852 1033 q 796 1111 799 1070 q 799 1159 795 1136 l 818 1159 q 815 1116 814 1138 q 832 1070 817 1083 q 866 1057 848 1057 q 959 1083 916 1057 q 1049 1159 1002 1109 l 1137 1159 q 1022 1070 1088 1107 q 887 1033 957 1033 z "},"Ě":{"ha":673,"x_min":-1,"x_max":1140,"o":"m 260 -193 q 254 -192 258 -193 q 244 -184 250 -191 q 222 -140 231 -170 q 209 -78 214 -111 q 203 -19 205 -45 l 203 1 q 56 60 111 11 q 1 178 2 109 q 30 303 -1 243 q 116 410 60 363 q 246 483 172 456 q 408 510 321 510 l 412 510 q 386 568 394 535 q 213 640 280 591 q 117 755 146 690 q 113 765 114 760 q 113 772 113 770 q 118 780 113 780 q 132 764 125 780 q 382 586 193 625 q 382 602 382 591 q 418 745 381 681 q 516 855 455 809 q 651 926 578 901 q 795 950 724 950 q 966 911 905 950 q 1027 802 1027 872 q 989 704 1027 750 q 886 624 951 659 q 735 571 821 590 q 554 551 650 551 q 443 558 492 551 q 465 507 448 533 q 566 481 532 500 q 601 440 600 461 q 566 418 601 418 q 499 436 536 418 q 432 486 462 454 q 301 446 366 478 q 184 366 237 414 q 101 263 132 318 q 71 156 71 208 q 106 65 73 102 q 205 18 140 28 q 236 137 210 79 q 304 241 262 195 q 396 315 345 288 q 503 342 448 342 q 577 315 545 342 q 609 249 609 287 q 561 121 609 178 q 431 32 513 64 q 248 -1 349 -1 q 236 -1 241 -1 q 224 -1 230 -1 q 223 -11 223 -5 q 223 -21 223 -16 q 228 -78 223 -46 q 241 -136 233 -109 q 262 -177 250 -163 q 269 -187 269 -184 q 260 -193 269 -193 m 542 571 q 699 588 618 571 q 848 638 779 606 q 959 718 917 671 q 1002 823 1002 764 q 953 901 1002 869 q 819 933 904 933 q 682 899 749 933 q 559 811 614 865 q 473 697 505 758 q 440 586 440 637 l 440 576 q 489 572 464 574 q 542 571 515 571 m 576 434 q 587 442 587 434 q 555 469 586 454 q 480 487 525 484 q 527 449 501 463 q 576 434 553 434 m 252 15 q 363 40 306 15 q 469 105 420 66 q 548 189 517 145 q 578 267 578 232 q 557 310 578 295 q 505 326 536 326 q 387 287 448 326 q 280 179 326 249 q 224 16 234 110 q 238 15 231 16 q 252 15 245 15 m 881 1000 q 875 1005 875 1000 q 880 1022 875 1010 q 890 1061 885 1036 q 896 1126 896 1086 q 874 1221 896 1192 q 867 1230 869 1227 q 864 1236 864 1233 q 875 1244 864 1244 q 905 1224 886 1244 q 937 1161 924 1203 q 945 1132 942 1147 q 948 1101 947 1116 q 1038 1177 998 1147 q 1112 1232 1077 1207 q 1127 1242 1122 1240 q 1136 1244 1133 1244 q 1140 1242 1140 1244 q 1136 1233 1140 1238 q 1112 1211 1132 1228 q 1067 1172 1101 1202 q 992 1104 1033 1142 q 921 1033 952 1066 q 895 1006 902 1012 q 881 1000 887 1000 z "},"Ȩ":{"ha":673,"x_min":-3,"x_max":1027,"o":"m 260 -193 q 254 -192 258 -193 q 244 -184 250 -191 q 222 -140 231 -170 q 209 -78 214 -111 q 203 -19 205 -45 l 203 1 q 56 60 111 11 q 1 178 2 109 q 30 303 -1 243 q 116 410 60 363 q 246 483 172 456 q 408 510 321 510 l 412 510 q 386 568 394 535 q 213 640 280 591 q 117 755 146 690 q 113 765 114 760 q 113 772 113 770 q 118 780 113 780 q 132 764 125 780 q 382 586 193 625 q 382 602 382 591 q 418 745 381 681 q 516 855 455 809 q 651 926 578 901 q 795 950 724 950 q 966 911 905 950 q 1027 802 1027 872 q 989 704 1027 750 q 886 624 951 659 q 735 571 821 590 q 554 551 650 551 q 443 558 492 551 q 465 507 448 533 q 566 481 532 500 q 601 440 600 461 q 566 418 601 418 q 499 436 536 418 q 432 486 462 454 q 301 446 366 478 q 184 366 237 414 q 101 263 132 318 q 71 156 71 208 q 106 65 73 102 q 205 18 140 28 q 236 137 210 79 q 304 241 262 195 q 396 315 345 288 q 503 342 448 342 q 577 315 545 342 q 609 249 609 287 q 561 121 609 178 q 431 32 513 64 q 248 -1 349 -1 q 236 -1 241 -1 q 224 -1 230 -1 q 223 -11 223 -5 q 223 -21 223 -16 q 228 -78 223 -46 q 241 -136 233 -109 q 262 -177 250 -163 q 269 -187 269 -184 q 260 -193 269 -193 m 542 571 q 699 588 618 571 q 848 638 779 606 q 959 718 917 671 q 1002 823 1002 764 q 953 901 1002 869 q 819 933 904 933 q 682 899 749 933 q 559 811 614 865 q 473 697 505 758 q 440 586 440 637 l 440 576 q 489 572 464 574 q 542 571 515 571 m 576 434 q 587 442 587 434 q 555 469 586 454 q 480 487 525 484 q 527 449 501 463 q 576 434 553 434 m 252 15 q 363 40 306 15 q 469 105 420 66 q 548 189 517 145 q 578 267 578 232 q 557 310 578 295 q 505 326 536 326 q 387 287 448 326 q 280 179 326 249 q 224 16 234 110 q 238 15 231 16 q 252 15 245 15 m 9 -243 q -3 -234 -3 -243 q 12 -222 -3 -227 q 101 -178 70 -203 q 132 -115 132 -152 q 85 -85 132 -85 q 56 -90 71 -85 l 131 19 l 150 14 l 108 -44 q 132 -41 119 -41 q 177 -57 160 -41 q 194 -95 194 -73 q 174 -147 194 -123 q 128 -189 154 -171 q 57 -229 92 -214 q 9 -243 21 -243 z "},"Ḝ":{"ha":673,"x_min":-3,"x_max":1137,"o":"m 260 -193 q 254 -192 258 -193 q 244 -184 250 -191 q 222 -140 231 -170 q 209 -78 214 -111 q 203 -19 205 -45 l 203 1 q 56 60 111 11 q 1 178 2 109 q 30 303 -1 243 q 116 410 60 363 q 246 483 172 456 q 408 510 321 510 l 412 510 q 386 568 394 535 q 213 640 280 591 q 117 755 146 690 q 113 765 114 760 q 113 772 113 770 q 118 780 113 780 q 132 764 125 780 q 382 586 193 625 q 382 602 382 591 q 418 745 381 681 q 516 855 455 809 q 651 926 578 901 q 795 950 724 950 q 966 911 905 950 q 1027 802 1027 872 q 989 704 1027 750 q 886 624 951 659 q 735 571 821 590 q 554 551 650 551 q 443 558 492 551 q 465 507 448 533 q 566 481 532 500 q 601 440 600 461 q 566 418 601 418 q 499 436 536 418 q 432 486 462 454 q 301 446 366 478 q 184 366 237 414 q 101 263 132 318 q 71 156 71 208 q 106 65 73 102 q 205 18 140 28 q 236 137 210 79 q 304 241 262 195 q 396 315 345 288 q 503 342 448 342 q 577 315 545 342 q 609 249 609 287 q 561 121 609 178 q 431 32 513 64 q 248 -1 349 -1 q 236 -1 241 -1 q 224 -1 230 -1 q 223 -11 223 -5 q 223 -21 223 -16 q 228 -78 223 -46 q 241 -136 233 -109 q 262 -177 250 -163 q 269 -187 269 -184 q 260 -193 269 -193 m 542 571 q 699 588 618 571 q 848 638 779 606 q 959 718 917 671 q 1002 823 1002 764 q 953 901 1002 869 q 819 933 904 933 q 682 899 749 933 q 559 811 614 865 q 473 697 505 758 q 440 586 440 637 l 440 576 q 489 572 464 574 q 542 571 515 571 m 576 434 q 587 442 587 434 q 555 469 586 454 q 480 487 525 484 q 527 449 501 463 q 576 434 553 434 m 252 15 q 363 40 306 15 q 469 105 420 66 q 548 189 517 145 q 578 267 578 232 q 557 310 578 295 q 505 326 536 326 q 387 287 448 326 q 280 179 326 249 q 224 16 234 110 q 238 15 231 16 q 252 15 245 15 m 9 -243 q -3 -234 -3 -243 q 12 -222 -3 -227 q 101 -178 70 -203 q 132 -115 132 -152 q 85 -85 132 -85 q 56 -90 71 -85 l 131 19 l 150 14 l 108 -44 q 132 -41 119 -41 q 177 -57 160 -41 q 194 -95 194 -73 q 174 -147 194 -123 q 128 -189 154 -171 q 57 -229 92 -214 q 9 -243 21 -243 m 887 1033 q 825 1052 852 1033 q 796 1111 799 1070 q 799 1159 795 1136 l 818 1159 q 815 1116 814 1138 q 832 1070 817 1083 q 866 1057 848 1057 q 959 1083 916 1057 q 1049 1159 1002 1109 l 1137 1159 q 1022 1070 1088 1107 q 887 1033 957 1033 z "},"Ê":{"ha":673,"x_min":-1,"x_max":1027,"o":"m 260 -193 q 254 -192 258 -193 q 244 -184 250 -191 q 222 -140 231 -170 q 209 -78 214 -111 q 203 -19 205 -45 l 203 1 q 56 60 111 11 q 1 178 2 109 q 30 303 -1 243 q 116 410 60 363 q 246 483 172 456 q 408 510 321 510 l 412 510 q 386 568 394 535 q 213 640 280 591 q 117 755 146 690 q 113 765 114 760 q 113 772 113 770 q 118 780 113 780 q 132 764 125 780 q 382 586 193 625 q 382 602 382 591 q 418 745 381 681 q 516 855 455 809 q 651 926 578 901 q 795 950 724 950 q 966 911 905 950 q 1027 802 1027 872 q 989 704 1027 750 q 886 624 951 659 q 735 571 821 590 q 554 551 650 551 q 443 558 492 551 q 465 507 448 533 q 566 481 532 500 q 601 440 600 461 q 566 418 601 418 q 499 436 536 418 q 432 486 462 454 q 301 446 366 478 q 184 366 237 414 q 101 263 132 318 q 71 156 71 208 q 106 65 73 102 q 205 18 140 28 q 236 137 210 79 q 304 241 262 195 q 396 315 345 288 q 503 342 448 342 q 577 315 545 342 q 609 249 609 287 q 561 121 609 178 q 431 32 513 64 q 248 -1 349 -1 q 236 -1 241 -1 q 224 -1 230 -1 q 223 -11 223 -5 q 223 -21 223 -16 q 228 -78 223 -46 q 241 -136 233 -109 q 262 -177 250 -163 q 269 -187 269 -184 q 260 -193 269 -193 m 542 571 q 699 588 618 571 q 848 638 779 606 q 959 718 917 671 q 1002 823 1002 764 q 953 901 1002 869 q 819 933 904 933 q 682 899 749 933 q 559 811 614 865 q 473 697 505 758 q 440 586 440 637 l 440 576 q 489 572 464 574 q 542 571 515 571 m 576 434 q 587 442 587 434 q 555 469 586 454 q 480 487 525 484 q 527 449 501 463 q 576 434 553 434 m 252 15 q 363 40 306 15 q 469 105 420 66 q 548 189 517 145 q 578 267 578 232 q 557 310 578 295 q 505 326 536 326 q 387 287 448 326 q 280 179 326 249 q 224 16 234 110 q 238 15 231 16 q 252 15 245 15 m 723 1013 q 719 1016 719 1013 q 724 1025 719 1020 q 749 1047 728 1029 q 793 1086 760 1057 q 867 1154 827 1116 q 939 1225 907 1192 q 966 1252 958 1246 q 979 1258 973 1258 q 984 1253 984 1258 q 981 1236 984 1248 q 969 1197 975 1222 q 964 1131 964 1172 q 986 1036 964 1065 q 992 1028 990 1031 q 995 1021 995 1025 q 984 1013 995 1013 q 954 1034 973 1013 q 923 1097 935 1055 q 916 1125 918 1110 q 911 1156 913 1141 q 822 1079 861 1109 q 749 1025 783 1050 q 732 1016 738 1018 q 723 1013 727 1013 z "},"Ế":{"ha":673,"x_min":-1,"x_max":1243,"o":"m 260 -193 q 254 -192 258 -193 q 244 -184 250 -191 q 222 -140 231 -170 q 209 -78 214 -111 q 203 -19 205 -45 l 203 1 q 56 60 111 11 q 1 178 2 109 q 30 303 -1 243 q 116 410 60 363 q 246 483 172 456 q 408 510 321 510 l 412 510 q 386 568 394 535 q 213 640 280 591 q 117 755 146 690 q 113 765 114 760 q 113 772 113 770 q 118 780 113 780 q 132 764 125 780 q 382 586 193 625 q 382 602 382 591 q 418 745 381 681 q 516 855 455 809 q 651 926 578 901 q 795 950 724 950 q 966 911 905 950 q 1027 802 1027 872 q 989 704 1027 750 q 886 624 951 659 q 735 571 821 590 q 554 551 650 551 q 443 558 492 551 q 465 507 448 533 q 566 481 532 500 q 601 440 600 461 q 566 418 601 418 q 499 436 536 418 q 432 486 462 454 q 301 446 366 478 q 184 366 237 414 q 101 263 132 318 q 71 156 71 208 q 106 65 73 102 q 205 18 140 28 q 236 137 210 79 q 304 241 262 195 q 396 315 345 288 q 503 342 448 342 q 577 315 545 342 q 609 249 609 287 q 561 121 609 178 q 431 32 513 64 q 248 -1 349 -1 q 236 -1 241 -1 q 224 -1 230 -1 q 223 -11 223 -5 q 223 -21 223 -16 q 228 -78 223 -46 q 241 -136 233 -109 q 262 -177 250 -163 q 269 -187 269 -184 q 260 -193 269 -193 m 542 571 q 699 588 618 571 q 848 638 779 606 q 959 718 917 671 q 1002 823 1002 764 q 953 901 1002 869 q 819 933 904 933 q 682 899 749 933 q 559 811 614 865 q 473 697 505 758 q 440 586 440 637 l 440 576 q 489 572 464 574 q 542 571 515 571 m 576 434 q 587 442 587 434 q 555 469 586 454 q 480 487 525 484 q 527 449 501 463 q 576 434 553 434 m 252 15 q 363 40 306 15 q 469 105 420 66 q 548 189 517 145 q 578 267 578 232 q 557 310 578 295 q 505 326 536 326 q 387 287 448 326 q 280 179 326 249 q 224 16 234 110 q 238 15 231 16 q 252 15 245 15 m 997 1013 q 965 1035 986 1013 q 932 1099 943 1057 q 927 1119 929 1109 q 924 1137 926 1128 q 839 1075 879 1102 q 764 1027 799 1048 q 739 1015 745 1015 q 732 1017 732 1015 q 736 1026 732 1021 q 761 1048 740 1031 q 859 1124 814 1088 q 951 1205 905 1161 q 979 1233 971 1227 q 991 1238 986 1238 q 997 1233 997 1238 q 993 1215 997 1225 q 982 1177 987 1202 q 976 1112 976 1152 q 998 1038 976 1060 q 1005 1029 1002 1031 q 1008 1023 1008 1026 q 1005 1017 1008 1021 q 997 1013 1002 1013 m 1063 1096 q 1058 1100 1059 1096 q 1056 1104 1056 1104 q 1074 1120 1056 1107 q 1114 1149 1093 1131 q 1150 1188 1136 1166 q 1165 1216 1159 1201 q 1177 1257 1172 1230 q 1214 1305 1183 1305 q 1235 1297 1226 1305 q 1243 1268 1243 1288 q 1223 1219 1243 1247 q 1170 1162 1203 1191 q 1099 1112 1137 1134 q 1063 1096 1073 1096 z "},"Ḙ":{"ha":673,"x_min":-188,"x_max":1027,"o":"m 260 -193 q 254 -192 258 -193 q 244 -184 250 -191 q 222 -140 231 -170 q 209 -78 214 -111 q 203 -19 205 -45 l 203 1 q 56 60 111 11 q 1 178 2 109 q 30 303 -1 243 q 116 410 60 363 q 246 483 172 456 q 408 510 321 510 l 412 510 q 386 568 394 535 q 213 640 280 591 q 117 755 146 690 q 113 765 114 760 q 113 772 113 770 q 118 780 113 780 q 132 764 125 780 q 382 586 193 625 q 382 602 382 591 q 418 745 381 681 q 516 855 455 809 q 651 926 578 901 q 795 950 724 950 q 966 911 905 950 q 1027 802 1027 872 q 989 704 1027 750 q 886 624 951 659 q 735 571 821 590 q 554 551 650 551 q 443 558 492 551 q 465 507 448 533 q 566 481 532 500 q 601 440 600 461 q 566 418 601 418 q 499 436 536 418 q 432 486 462 454 q 301 446 366 478 q 184 366 237 414 q 101 263 132 318 q 71 156 71 208 q 106 65 73 102 q 205 18 140 28 q 236 137 210 79 q 304 241 262 195 q 396 315 345 288 q 503 342 448 342 q 577 315 545 342 q 609 249 609 287 q 561 121 609 178 q 431 32 513 64 q 248 -1 349 -1 q 236 -1 241 -1 q 224 -1 230 -1 q 223 -11 223 -5 q 223 -21 223 -16 q 228 -78 223 -46 q 241 -136 233 -109 q 262 -177 250 -163 q 269 -187 269 -184 q 260 -193 269 -193 m 542 571 q 699 588 618 571 q 848 638 779 606 q 959 718 917 671 q 1002 823 1002 764 q 953 901 1002 869 q 819 933 904 933 q 682 899 749 933 q 559 811 614 865 q 473 697 505 758 q 440 586 440 637 l 440 576 q 489 572 464 574 q 542 571 515 571 m 576 434 q 587 442 587 434 q 555 469 586 454 q 480 487 525 484 q 527 449 501 463 q 576 434 553 434 m 252 15 q 363 40 306 15 q 469 105 420 66 q 548 189 517 145 q 578 267 578 232 q 557 310 578 295 q 505 326 536 326 q 387 287 448 326 q 280 179 326 249 q 224 16 234 110 q 238 15 231 16 q 252 15 245 15 m -184 -326 q -188 -323 -188 -326 q -183 -314 -188 -319 q -158 -292 -178 -309 q -113 -253 -146 -282 q -40 -185 -80 -223 q 32 -114 1 -147 q 59 -86 52 -92 q 72 -81 66 -81 q 77 -86 77 -81 q 74 -103 77 -91 q 62 -142 68 -117 q 57 -208 57 -167 q 79 -302 57 -274 q 86 -311 83 -308 q 88 -317 88 -314 q 77 -326 88 -326 q 47 -304 66 -326 q 16 -242 28 -283 q 9 -213 12 -229 q 5 -183 6 -198 q -85 -259 -45 -230 q -158 -313 -124 -289 q -174 -323 -169 -321 q -184 -326 -180 -326 z "},"Ệ":{"ha":673,"x_min":-1,"x_max":1027,"o":"m 260 -193 q 254 -192 258 -193 q 244 -184 250 -191 q 222 -140 231 -170 q 209 -78 214 -111 q 203 -19 205 -45 l 203 1 q 56 60 111 11 q 1 178 2 109 q 30 303 -1 243 q 116 410 60 363 q 246 483 172 456 q 408 510 321 510 l 412 510 q 386 568 394 535 q 213 640 280 591 q 117 755 146 690 q 113 765 114 760 q 113 772 113 770 q 118 780 113 780 q 132 764 125 780 q 382 586 193 625 q 382 602 382 591 q 418 745 381 681 q 516 855 455 809 q 651 926 578 901 q 795 950 724 950 q 966 911 905 950 q 1027 802 1027 872 q 989 704 1027 750 q 886 624 951 659 q 735 571 821 590 q 554 551 650 551 q 443 558 492 551 q 465 507 448 533 q 566 481 532 500 q 601 440 600 461 q 566 418 601 418 q 499 436 536 418 q 432 486 462 454 q 301 446 366 478 q 184 366 237 414 q 101 263 132 318 q 71 156 71 208 q 106 65 73 102 q 205 18 140 28 q 236 137 210 79 q 304 241 262 195 q 396 315 345 288 q 503 342 448 342 q 577 315 545 342 q 609 249 609 287 q 561 121 609 178 q 431 32 513 64 q 248 -1 349 -1 q 236 -1 241 -1 q 224 -1 230 -1 q 223 -11 223 -5 q 223 -21 223 -16 q 228 -78 223 -46 q 241 -136 233 -109 q 262 -177 250 -163 q 269 -187 269 -184 q 260 -193 269 -193 m 542 571 q 699 588 618 571 q 848 638 779 606 q 959 718 917 671 q 1002 823 1002 764 q 953 901 1002 869 q 819 933 904 933 q 682 899 749 933 q 559 811 614 865 q 473 697 505 758 q 440 586 440 637 l 440 576 q 489 572 464 574 q 542 571 515 571 m 576 434 q 587 442 587 434 q 555 469 586 454 q 480 487 525 484 q 527 449 501 463 q 576 434 553 434 m 252 15 q 363 40 306 15 q 469 105 420 66 q 548 189 517 145 q 578 267 578 232 q 557 310 578 295 q 505 326 536 326 q 387 287 448 326 q 280 179 326 249 q 224 16 234 110 q 238 15 231 16 q 252 15 245 15 m 52 -176 q 22 -164 33 -176 q 11 -134 11 -152 q 31 -90 11 -110 q 79 -70 51 -70 q 109 -82 98 -70 q 120 -113 120 -95 q 99 -157 120 -138 q 52 -176 77 -176 m 723 1013 q 719 1016 719 1013 q 724 1025 719 1020 q 749 1047 728 1029 q 793 1086 760 1057 q 867 1154 827 1116 q 939 1225 907 1192 q 966 1252 958 1246 q 979 1258 973 1258 q 984 1253 984 1258 q 981 1236 984 1248 q 969 1197 975 1222 q 964 1131 964 1172 q 986 1036 964 1065 q 992 1028 990 1031 q 995 1021 995 1025 q 984 1013 995 1013 q 954 1034 973 1013 q 923 1097 935 1055 q 916 1125 918 1110 q 911 1156 913 1141 q 822 1079 861 1109 q 749 1025 783 1050 q 732 1016 738 1018 q 723 1013 727 1013 z "},"Ề":{"ha":673,"x_min":-1,"x_max":1225,"o":"m 260 -193 q 254 -192 258 -193 q 244 -184 250 -191 q 222 -140 231 -170 q 209 -78 214 -111 q 203 -19 205 -45 l 203 1 q 56 60 111 11 q 1 178 2 109 q 30 303 -1 243 q 116 410 60 363 q 246 483 172 456 q 408 510 321 510 l 412 510 q 386 568 394 535 q 213 640 280 591 q 117 755 146 690 q 113 765 114 760 q 113 772 113 770 q 118 780 113 780 q 132 764 125 780 q 382 586 193 625 q 382 602 382 591 q 418 745 381 681 q 516 855 455 809 q 651 926 578 901 q 795 950 724 950 q 966 911 905 950 q 1027 802 1027 872 q 989 704 1027 750 q 886 624 951 659 q 735 571 821 590 q 554 551 650 551 q 443 558 492 551 q 465 507 448 533 q 566 481 532 500 q 601 440 600 461 q 566 418 601 418 q 499 436 536 418 q 432 486 462 454 q 301 446 366 478 q 184 366 237 414 q 101 263 132 318 q 71 156 71 208 q 106 65 73 102 q 205 18 140 28 q 236 137 210 79 q 304 241 262 195 q 396 315 345 288 q 503 342 448 342 q 577 315 545 342 q 609 249 609 287 q 561 121 609 178 q 431 32 513 64 q 248 -1 349 -1 q 236 -1 241 -1 q 224 -1 230 -1 q 223 -11 223 -5 q 223 -21 223 -16 q 228 -78 223 -46 q 241 -136 233 -109 q 262 -177 250 -163 q 269 -187 269 -184 q 260 -193 269 -193 m 542 571 q 699 588 618 571 q 848 638 779 606 q 959 718 917 671 q 1002 823 1002 764 q 953 901 1002 869 q 819 933 904 933 q 682 899 749 933 q 559 811 614 865 q 473 697 505 758 q 440 586 440 637 l 440 576 q 489 572 464 574 q 542 571 515 571 m 576 434 q 587 442 587 434 q 555 469 586 454 q 480 487 525 484 q 527 449 501 463 q 576 434 553 434 m 252 15 q 363 40 306 15 q 469 105 420 66 q 548 189 517 145 q 578 267 578 232 q 557 310 578 295 q 505 326 536 326 q 387 287 448 326 q 280 179 326 249 q 224 16 234 110 q 238 15 231 16 q 252 15 245 15 m 997 1013 q 965 1035 986 1013 q 932 1099 943 1057 q 927 1119 929 1109 q 924 1137 926 1128 q 839 1075 879 1102 q 764 1027 799 1048 q 739 1015 745 1015 q 732 1017 732 1015 q 736 1026 732 1021 q 761 1048 740 1031 q 859 1124 814 1088 q 951 1205 905 1161 q 979 1233 971 1227 q 991 1238 986 1238 q 997 1233 997 1238 q 993 1215 997 1225 q 982 1177 987 1202 q 976 1112 976 1152 q 998 1038 976 1060 q 1005 1029 1002 1031 q 1008 1023 1008 1026 q 1005 1017 1008 1021 q 997 1013 1002 1013 m 1217 1015 q 1181 1031 1208 1015 q 1111 1082 1143 1053 q 1058 1138 1078 1110 q 1038 1187 1038 1166 q 1067 1225 1038 1225 q 1104 1177 1096 1225 q 1116 1135 1109 1149 q 1131 1107 1122 1120 q 1166 1068 1145 1086 q 1208 1040 1188 1050 q 1225 1023 1225 1027 q 1223 1019 1225 1023 q 1217 1015 1222 1015 z "},"Ể":{"ha":673,"x_min":-1,"x_max":1223,"o":"m 260 -193 q 254 -192 258 -193 q 244 -184 250 -191 q 222 -140 231 -170 q 209 -78 214 -111 q 203 -19 205 -45 l 203 1 q 56 60 111 11 q 1 178 2 109 q 30 303 -1 243 q 116 410 60 363 q 246 483 172 456 q 408 510 321 510 l 412 510 q 386 568 394 535 q 213 640 280 591 q 117 755 146 690 q 113 765 114 760 q 113 772 113 770 q 118 780 113 780 q 132 764 125 780 q 382 586 193 625 q 382 602 382 591 q 418 745 381 681 q 516 855 455 809 q 651 926 578 901 q 795 950 724 950 q 966 911 905 950 q 1027 802 1027 872 q 989 704 1027 750 q 886 624 951 659 q 735 571 821 590 q 554 551 650 551 q 443 558 492 551 q 465 507 448 533 q 566 481 532 500 q 601 440 600 461 q 566 418 601 418 q 499 436 536 418 q 432 486 462 454 q 301 446 366 478 q 184 366 237 414 q 101 263 132 318 q 71 156 71 208 q 106 65 73 102 q 205 18 140 28 q 236 137 210 79 q 304 241 262 195 q 396 315 345 288 q 503 342 448 342 q 577 315 545 342 q 609 249 609 287 q 561 121 609 178 q 431 32 513 64 q 248 -1 349 -1 q 236 -1 241 -1 q 224 -1 230 -1 q 223 -11 223 -5 q 223 -21 223 -16 q 228 -78 223 -46 q 241 -136 233 -109 q 262 -177 250 -163 q 269 -187 269 -184 q 260 -193 269 -193 m 542 571 q 699 588 618 571 q 848 638 779 606 q 959 718 917 671 q 1002 823 1002 764 q 953 901 1002 869 q 819 933 904 933 q 682 899 749 933 q 559 811 614 865 q 473 697 505 758 q 440 586 440 637 l 440 576 q 489 572 464 574 q 542 571 515 571 m 576 434 q 587 442 587 434 q 555 469 586 454 q 480 487 525 484 q 527 449 501 463 q 576 434 553 434 m 252 15 q 363 40 306 15 q 469 105 420 66 q 548 189 517 145 q 578 267 578 232 q 557 310 578 295 q 505 326 536 326 q 387 287 448 326 q 280 179 326 249 q 224 16 234 110 q 238 15 231 16 q 252 15 245 15 m 997 1013 q 965 1035 986 1013 q 932 1099 943 1057 q 927 1119 929 1109 q 924 1137 926 1128 q 839 1075 879 1102 q 764 1027 799 1048 q 739 1015 745 1015 q 732 1017 732 1015 q 736 1026 732 1021 q 761 1048 740 1031 q 859 1124 814 1088 q 951 1205 905 1161 q 979 1233 971 1227 q 991 1238 986 1238 q 997 1233 997 1238 q 993 1215 997 1225 q 982 1177 987 1202 q 976 1112 976 1152 q 998 1038 976 1060 q 1005 1029 1002 1031 q 1008 1023 1008 1026 q 1005 1017 1008 1021 q 997 1013 1002 1013 m 1116 1122 q 1090 1132 1102 1124 q 1079 1156 1079 1139 q 1130 1246 1079 1194 q 1165 1283 1146 1263 q 1185 1325 1185 1303 q 1165 1353 1185 1345 q 1120 1360 1145 1360 q 1042 1344 1078 1360 q 978 1305 1006 1328 q 964 1296 968 1296 q 959 1302 959 1296 q 972 1324 958 1315 q 1041 1362 1000 1347 q 1122 1377 1082 1377 q 1192 1361 1164 1377 q 1222 1311 1220 1345 q 1205 1256 1223 1289 q 1161 1196 1187 1223 q 1126 1157 1136 1171 q 1116 1122 1116 1143 z "},"Ễ":{"ha":673,"x_min":-1,"x_max":1221,"o":"m 260 -193 q 254 -192 258 -193 q 244 -184 250 -191 q 222 -140 231 -170 q 209 -78 214 -111 q 203 -19 205 -45 l 203 1 q 56 60 111 11 q 1 178 2 109 q 30 303 -1 243 q 116 410 60 363 q 246 483 172 456 q 408 510 321 510 l 412 510 q 386 568 394 535 q 213 640 280 591 q 117 755 146 690 q 113 765 114 760 q 113 772 113 770 q 118 780 113 780 q 132 764 125 780 q 382 586 193 625 q 382 602 382 591 q 418 745 381 681 q 516 855 455 809 q 651 926 578 901 q 795 950 724 950 q 966 911 905 950 q 1027 802 1027 872 q 989 704 1027 750 q 886 624 951 659 q 735 571 821 590 q 554 551 650 551 q 443 558 492 551 q 465 507 448 533 q 566 481 532 500 q 601 440 600 461 q 566 418 601 418 q 499 436 536 418 q 432 486 462 454 q 301 446 366 478 q 184 366 237 414 q 101 263 132 318 q 71 156 71 208 q 106 65 73 102 q 205 18 140 28 q 236 137 210 79 q 304 241 262 195 q 396 315 345 288 q 503 342 448 342 q 577 315 545 342 q 609 249 609 287 q 561 121 609 178 q 431 32 513 64 q 248 -1 349 -1 q 236 -1 241 -1 q 224 -1 230 -1 q 223 -11 223 -5 q 223 -21 223 -16 q 228 -78 223 -46 q 241 -136 233 -109 q 262 -177 250 -163 q 269 -187 269 -184 q 260 -193 269 -193 m 542 571 q 699 588 618 571 q 848 638 779 606 q 959 718 917 671 q 1002 823 1002 764 q 953 901 1002 869 q 819 933 904 933 q 682 899 749 933 q 559 811 614 865 q 473 697 505 758 q 440 586 440 637 l 440 576 q 489 572 464 574 q 542 571 515 571 m 576 434 q 587 442 587 434 q 555 469 586 454 q 480 487 525 484 q 527 449 501 463 q 576 434 553 434 m 252 15 q 363 40 306 15 q 469 105 420 66 q 548 189 517 145 q 578 267 578 232 q 557 310 578 295 q 505 326 536 326 q 387 287 448 326 q 280 179 326 249 q 224 16 234 110 q 238 15 231 16 q 252 15 245 15 m 997 1013 q 965 1035 986 1013 q 932 1099 943 1057 q 927 1119 929 1109 q 924 1137 926 1128 q 839 1075 879 1102 q 764 1027 799 1048 q 739 1015 745 1015 q 732 1017 732 1015 q 736 1026 732 1021 q 761 1048 740 1031 q 859 1124 814 1088 q 951 1205 905 1161 q 979 1233 971 1227 q 991 1238 986 1238 q 997 1233 997 1238 q 993 1215 997 1225 q 982 1177 987 1202 q 976 1112 976 1152 q 998 1038 976 1060 q 1005 1029 1002 1031 q 1008 1023 1008 1026 q 1005 1017 1008 1021 q 997 1013 1002 1013 m 892 1264 q 886 1272 886 1264 q 894 1301 886 1284 q 921 1337 903 1318 q 960 1368 940 1357 q 996 1378 981 1378 q 1025 1373 1009 1378 q 1065 1350 1041 1367 q 1108 1327 1090 1333 q 1137 1320 1125 1320 q 1200 1372 1179 1320 q 1213 1384 1207 1384 q 1221 1377 1221 1384 q 1184 1310 1221 1350 q 1145 1280 1166 1291 q 1109 1270 1124 1270 q 1079 1275 1094 1270 q 1033 1301 1063 1281 q 996 1322 1010 1317 q 969 1328 983 1328 q 905 1275 926 1328 q 892 1264 899 1264 z "},"Ȅ":{"ha":673,"x_min":-1,"x_max":1027,"o":"m 260 -193 q 254 -192 258 -193 q 244 -184 250 -191 q 222 -140 231 -170 q 209 -78 214 -111 q 203 -19 205 -45 l 203 1 q 56 60 111 11 q 1 178 2 109 q 30 303 -1 243 q 116 410 60 363 q 246 483 172 456 q 408 510 321 510 l 412 510 q 386 568 394 535 q 213 640 280 591 q 117 755 146 690 q 113 765 114 760 q 113 772 113 770 q 118 780 113 780 q 132 764 125 780 q 382 586 193 625 q 382 602 382 591 q 418 745 381 681 q 516 855 455 809 q 651 926 578 901 q 795 950 724 950 q 966 911 905 950 q 1027 802 1027 872 q 989 704 1027 750 q 886 624 951 659 q 735 571 821 590 q 554 551 650 551 q 443 558 492 551 q 465 507 448 533 q 566 481 532 500 q 601 440 600 461 q 566 418 601 418 q 499 436 536 418 q 432 486 462 454 q 301 446 366 478 q 184 366 237 414 q 101 263 132 318 q 71 156 71 208 q 106 65 73 102 q 205 18 140 28 q 236 137 210 79 q 304 241 262 195 q 396 315 345 288 q 503 342 448 342 q 577 315 545 342 q 609 249 609 287 q 561 121 609 178 q 431 32 513 64 q 248 -1 349 -1 q 236 -1 241 -1 q 224 -1 230 -1 q 223 -11 223 -5 q 223 -21 223 -16 q 228 -78 223 -46 q 241 -136 233 -109 q 262 -177 250 -163 q 269 -187 269 -184 q 260 -193 269 -193 m 542 571 q 699 588 618 571 q 848 638 779 606 q 959 718 917 671 q 1002 823 1002 764 q 953 901 1002 869 q 819 933 904 933 q 682 899 749 933 q 559 811 614 865 q 473 697 505 758 q 440 586 440 637 l 440 576 q 489 572 464 574 q 542 571 515 571 m 576 434 q 587 442 587 434 q 555 469 586 454 q 480 487 525 484 q 527 449 501 463 q 576 434 553 434 m 252 15 q 363 40 306 15 q 469 105 420 66 q 548 189 517 145 q 578 267 578 232 q 557 310 578 295 q 505 326 536 326 q 387 287 448 326 q 280 179 326 249 q 224 16 234 110 q 238 15 231 16 q 252 15 245 15 m 951 1008 q 916 1024 943 1008 q 845 1075 878 1046 q 792 1132 812 1103 q 772 1181 772 1160 q 801 1218 772 1218 q 838 1170 830 1218 q 850 1128 844 1143 q 865 1101 857 1114 q 901 1061 879 1079 q 942 1033 922 1044 q 959 1017 959 1020 q 958 1013 959 1017 q 951 1008 956 1008 m 803 1008 q 768 1024 795 1008 q 697 1075 730 1046 q 644 1132 664 1103 q 624 1181 624 1160 q 653 1218 624 1218 q 690 1170 682 1218 q 702 1128 696 1143 q 718 1101 709 1114 q 753 1061 731 1079 q 794 1033 774 1044 q 811 1017 811 1020 q 810 1013 811 1017 q 803 1008 808 1008 z "},"Ë":{"ha":673,"x_min":-1,"x_max":1057,"o":"m 260 -193 q 254 -192 258 -193 q 244 -184 250 -191 q 222 -140 231 -170 q 209 -78 214 -111 q 203 -19 205 -45 l 203 1 q 56 60 111 11 q 1 178 2 109 q 30 303 -1 243 q 116 410 60 363 q 246 483 172 456 q 408 510 321 510 l 412 510 q 386 568 394 535 q 213 640 280 591 q 117 755 146 690 q 113 765 114 760 q 113 772 113 770 q 118 780 113 780 q 132 764 125 780 q 382 586 193 625 q 382 602 382 591 q 418 745 381 681 q 516 855 455 809 q 651 926 578 901 q 795 950 724 950 q 966 911 905 950 q 1027 802 1027 872 q 989 704 1027 750 q 886 624 951 659 q 735 571 821 590 q 554 551 650 551 q 443 558 492 551 q 465 507 448 533 q 566 481 532 500 q 601 440 600 461 q 566 418 601 418 q 499 436 536 418 q 432 486 462 454 q 301 446 366 478 q 184 366 237 414 q 101 263 132 318 q 71 156 71 208 q 106 65 73 102 q 205 18 140 28 q 236 137 210 79 q 304 241 262 195 q 396 315 345 288 q 503 342 448 342 q 577 315 545 342 q 609 249 609 287 q 561 121 609 178 q 431 32 513 64 q 248 -1 349 -1 q 236 -1 241 -1 q 224 -1 230 -1 q 223 -11 223 -5 q 223 -21 223 -16 q 228 -78 223 -46 q 241 -136 233 -109 q 262 -177 250 -163 q 269 -187 269 -184 q 260 -193 269 -193 m 542 571 q 699 588 618 571 q 848 638 779 606 q 959 718 917 671 q 1002 823 1002 764 q 953 901 1002 869 q 819 933 904 933 q 682 899 749 933 q 559 811 614 865 q 473 697 505 758 q 440 586 440 637 l 440 576 q 489 572 464 574 q 542 571 515 571 m 576 434 q 587 442 587 434 q 555 469 586 454 q 480 487 525 484 q 527 449 501 463 q 576 434 553 434 m 252 15 q 363 40 306 15 q 469 105 420 66 q 548 189 517 145 q 578 267 578 232 q 557 310 578 295 q 505 326 536 326 q 387 287 448 326 q 280 179 326 249 q 224 16 234 110 q 238 15 231 16 q 252 15 245 15 m 988 1019 q 958 1031 970 1019 q 947 1061 947 1043 q 967 1105 947 1085 q 1015 1125 987 1125 q 1045 1113 1034 1125 q 1057 1082 1057 1100 q 1035 1038 1057 1057 q 988 1019 1013 1019 m 785 1019 q 756 1031 768 1019 q 745 1061 745 1043 q 765 1105 745 1085 q 812 1125 785 1125 q 842 1113 831 1125 q 852 1082 852 1100 q 831 1038 852 1057 q 785 1019 810 1019 z "},"Ė":{"ha":673,"x_min":-1,"x_max":1027,"o":"m 260 -193 q 254 -192 258 -193 q 244 -184 250 -191 q 222 -140 231 -170 q 209 -78 214 -111 q 203 -19 205 -45 l 203 1 q 56 60 111 11 q 1 178 2 109 q 30 303 -1 243 q 116 410 60 363 q 246 483 172 456 q 408 510 321 510 l 412 510 q 386 568 394 535 q 213 640 280 591 q 117 755 146 690 q 113 765 114 760 q 113 772 113 770 q 118 780 113 780 q 132 764 125 780 q 382 586 193 625 q 382 602 382 591 q 418 745 381 681 q 516 855 455 809 q 651 926 578 901 q 795 950 724 950 q 966 911 905 950 q 1027 802 1027 872 q 989 704 1027 750 q 886 624 951 659 q 735 571 821 590 q 554 551 650 551 q 443 558 492 551 q 465 507 448 533 q 566 481 532 500 q 601 440 600 461 q 566 418 601 418 q 499 436 536 418 q 432 486 462 454 q 301 446 366 478 q 184 366 237 414 q 101 263 132 318 q 71 156 71 208 q 106 65 73 102 q 205 18 140 28 q 236 137 210 79 q 304 241 262 195 q 396 315 345 288 q 503 342 448 342 q 577 315 545 342 q 609 249 609 287 q 561 121 609 178 q 431 32 513 64 q 248 -1 349 -1 q 236 -1 241 -1 q 224 -1 230 -1 q 223 -11 223 -5 q 223 -21 223 -16 q 228 -78 223 -46 q 241 -136 233 -109 q 262 -177 250 -163 q 269 -187 269 -184 q 260 -193 269 -193 m 542 571 q 699 588 618 571 q 848 638 779 606 q 959 718 917 671 q 1002 823 1002 764 q 953 901 1002 869 q 819 933 904 933 q 682 899 749 933 q 559 811 614 865 q 473 697 505 758 q 440 586 440 637 l 440 576 q 489 572 464 574 q 542 571 515 571 m 576 434 q 587 442 587 434 q 555 469 586 454 q 480 487 525 484 q 527 449 501 463 q 576 434 553 434 m 252 15 q 363 40 306 15 q 469 105 420 66 q 548 189 517 145 q 578 267 578 232 q 557 310 578 295 q 505 326 536 326 q 387 287 448 326 q 280 179 326 249 q 224 16 234 110 q 238 15 231 16 q 252 15 245 15 m 913 1034 q 883 1045 894 1034 q 871 1076 871 1057 q 891 1119 871 1099 q 939 1139 911 1139 q 969 1127 958 1139 q 981 1097 981 1114 q 959 1053 981 1072 q 913 1034 938 1034 z "},"Ẹ":{"ha":673,"x_min":-1,"x_max":1027,"o":"m 260 -193 q 254 -192 258 -193 q 244 -184 250 -191 q 222 -140 231 -170 q 209 -78 214 -111 q 203 -19 205 -45 l 203 1 q 56 60 111 11 q 1 178 2 109 q 30 303 -1 243 q 116 410 60 363 q 246 483 172 456 q 408 510 321 510 l 412 510 q 386 568 394 535 q 213 640 280 591 q 117 755 146 690 q 113 765 114 760 q 113 772 113 770 q 118 780 113 780 q 132 764 125 780 q 382 586 193 625 q 382 602 382 591 q 418 745 381 681 q 516 855 455 809 q 651 926 578 901 q 795 950 724 950 q 966 911 905 950 q 1027 802 1027 872 q 989 704 1027 750 q 886 624 951 659 q 735 571 821 590 q 554 551 650 551 q 443 558 492 551 q 465 507 448 533 q 566 481 532 500 q 601 440 600 461 q 566 418 601 418 q 499 436 536 418 q 432 486 462 454 q 301 446 366 478 q 184 366 237 414 q 101 263 132 318 q 71 156 71 208 q 106 65 73 102 q 205 18 140 28 q 236 137 210 79 q 304 241 262 195 q 396 315 345 288 q 503 342 448 342 q 577 315 545 342 q 609 249 609 287 q 561 121 609 178 q 431 32 513 64 q 248 -1 349 -1 q 236 -1 241 -1 q 224 -1 230 -1 q 223 -11 223 -5 q 223 -21 223 -16 q 228 -78 223 -46 q 241 -136 233 -109 q 262 -177 250 -163 q 269 -187 269 -184 q 260 -193 269 -193 m 542 571 q 699 588 618 571 q 848 638 779 606 q 959 718 917 671 q 1002 823 1002 764 q 953 901 1002 869 q 819 933 904 933 q 682 899 749 933 q 559 811 614 865 q 473 697 505 758 q 440 586 440 637 l 440 576 q 489 572 464 574 q 542 571 515 571 m 576 434 q 587 442 587 434 q 555 469 586 454 q 480 487 525 484 q 527 449 501 463 q 576 434 553 434 m 252 15 q 363 40 306 15 q 469 105 420 66 q 548 189 517 145 q 578 267 578 232 q 557 310 578 295 q 505 326 536 326 q 387 287 448 326 q 280 179 326 249 q 224 16 234 110 q 238 15 231 16 q 252 15 245 15 m 52 -176 q 22 -164 33 -176 q 11 -134 11 -152 q 31 -90 11 -110 q 79 -70 51 -70 q 109 -82 98 -70 q 120 -113 120 -95 q 99 -157 120 -138 q 52 -176 77 -176 z "},"È":{"ha":673,"x_min":-1,"x_max":1027,"o":"m 260 -193 q 254 -192 258 -193 q 244 -184 250 -191 q 222 -140 231 -170 q 209 -78 214 -111 q 203 -19 205 -45 l 203 1 q 56 60 111 11 q 1 178 2 109 q 30 303 -1 243 q 116 410 60 363 q 246 483 172 456 q 408 510 321 510 l 412 510 q 386 568 394 535 q 213 640 280 591 q 117 755 146 690 q 113 765 114 760 q 113 772 113 770 q 118 780 113 780 q 132 764 125 780 q 382 586 193 625 q 382 602 382 591 q 418 745 381 681 q 516 855 455 809 q 651 926 578 901 q 795 950 724 950 q 966 911 905 950 q 1027 802 1027 872 q 989 704 1027 750 q 886 624 951 659 q 735 571 821 590 q 554 551 650 551 q 443 558 492 551 q 465 507 448 533 q 566 481 532 500 q 601 440 600 461 q 566 418 601 418 q 499 436 536 418 q 432 486 462 454 q 301 446 366 478 q 184 366 237 414 q 101 263 132 318 q 71 156 71 208 q 106 65 73 102 q 205 18 140 28 q 236 137 210 79 q 304 241 262 195 q 396 315 345 288 q 503 342 448 342 q 577 315 545 342 q 609 249 609 287 q 561 121 609 178 q 431 32 513 64 q 248 -1 349 -1 q 236 -1 241 -1 q 224 -1 230 -1 q 223 -11 223 -5 q 223 -21 223 -16 q 228 -78 223 -46 q 241 -136 233 -109 q 262 -177 250 -163 q 269 -187 269 -184 q 260 -193 269 -193 m 542 571 q 699 588 618 571 q 848 638 779 606 q 959 718 917 671 q 1002 823 1002 764 q 953 901 1002 869 q 819 933 904 933 q 682 899 749 933 q 559 811 614 865 q 473 697 505 758 q 440 586 440 637 l 440 576 q 489 572 464 574 q 542 571 515 571 m 576 434 q 587 442 587 434 q 555 469 586 454 q 480 487 525 484 q 527 449 501 463 q 576 434 553 434 m 252 15 q 363 40 306 15 q 469 105 420 66 q 548 189 517 145 q 578 267 578 232 q 557 310 578 295 q 505 326 536 326 q 387 287 448 326 q 280 179 326 249 q 224 16 234 110 q 238 15 231 16 q 252 15 245 15 m 905 1000 q 872 1015 898 1000 q 795 1077 829 1042 q 740 1147 760 1112 q 720 1207 720 1182 q 749 1244 720 1244 q 786 1196 778 1244 q 797 1137 791 1158 q 813 1099 803 1115 q 853 1053 829 1073 q 897 1021 877 1033 q 909 1013 905 1015 q 913 1006 913 1010 q 905 1000 913 1000 z "},"Ẻ":{"ha":673,"x_min":-1,"x_max":1027,"o":"m 260 -193 q 254 -192 258 -193 q 244 -184 250 -191 q 222 -140 231 -170 q 209 -78 214 -111 q 203 -19 205 -45 l 203 1 q 56 60 111 11 q 1 178 2 109 q 30 303 -1 243 q 116 410 60 363 q 246 483 172 456 q 408 510 321 510 l 412 510 q 386 568 394 535 q 213 640 280 591 q 117 755 146 690 q 113 765 114 760 q 113 772 113 770 q 118 780 113 780 q 132 764 125 780 q 382 586 193 625 q 382 602 382 591 q 418 745 381 681 q 516 855 455 809 q 651 926 578 901 q 795 950 724 950 q 966 911 905 950 q 1027 802 1027 872 q 989 704 1027 750 q 886 624 951 659 q 735 571 821 590 q 554 551 650 551 q 443 558 492 551 q 465 507 448 533 q 566 481 532 500 q 601 440 600 461 q 566 418 601 418 q 499 436 536 418 q 432 486 462 454 q 301 446 366 478 q 184 366 237 414 q 101 263 132 318 q 71 156 71 208 q 106 65 73 102 q 205 18 140 28 q 236 137 210 79 q 304 241 262 195 q 396 315 345 288 q 503 342 448 342 q 577 315 545 342 q 609 249 609 287 q 561 121 609 178 q 431 32 513 64 q 248 -1 349 -1 q 236 -1 241 -1 q 224 -1 230 -1 q 223 -11 223 -5 q 223 -21 223 -16 q 228 -78 223 -46 q 241 -136 233 -109 q 262 -177 250 -163 q 269 -187 269 -184 q 260 -193 269 -193 m 542 571 q 699 588 618 571 q 848 638 779 606 q 959 718 917 671 q 1002 823 1002 764 q 953 901 1002 869 q 819 933 904 933 q 682 899 749 933 q 559 811 614 865 q 473 697 505 758 q 440 586 440 637 l 440 576 q 489 572 464 574 q 542 571 515 571 m 576 434 q 587 442 587 434 q 555 469 586 454 q 480 487 525 484 q 527 449 501 463 q 576 434 553 434 m 252 15 q 363 40 306 15 q 469 105 420 66 q 548 189 517 145 q 578 267 578 232 q 557 310 578 295 q 505 326 536 326 q 387 287 448 326 q 280 179 326 249 q 224 16 234 110 q 238 15 231 16 q 252 15 245 15 m 890 998 q 865 1007 876 999 q 853 1031 853 1015 q 904 1121 853 1069 q 940 1159 920 1139 q 959 1200 959 1179 q 939 1228 959 1221 q 895 1236 919 1236 q 816 1219 852 1236 q 752 1180 780 1203 q 739 1171 742 1171 q 733 1177 733 1171 q 746 1199 732 1190 q 815 1237 774 1222 q 896 1252 856 1252 q 966 1236 939 1252 q 996 1186 994 1220 q 980 1131 998 1164 q 935 1072 962 1099 q 900 1032 910 1046 q 890 998 890 1018 z "},"Ȇ":{"ha":673,"x_min":-1,"x_max":1060,"o":"m 260 -193 q 254 -192 258 -193 q 244 -184 250 -191 q 222 -140 231 -170 q 209 -78 214 -111 q 203 -19 205 -45 l 203 1 q 56 60 111 11 q 1 178 2 109 q 30 303 -1 243 q 116 410 60 363 q 246 483 172 456 q 408 510 321 510 l 412 510 q 386 568 394 535 q 213 640 280 591 q 117 755 146 690 q 113 765 114 760 q 113 772 113 770 q 118 780 113 780 q 132 764 125 780 q 382 586 193 625 q 382 602 382 591 q 418 745 381 681 q 516 855 455 809 q 651 926 578 901 q 795 950 724 950 q 966 911 905 950 q 1027 802 1027 872 q 989 704 1027 750 q 886 624 951 659 q 735 571 821 590 q 554 551 650 551 q 443 558 492 551 q 465 507 448 533 q 566 481 532 500 q 601 440 600 461 q 566 418 601 418 q 499 436 536 418 q 432 486 462 454 q 301 446 366 478 q 184 366 237 414 q 101 263 132 318 q 71 156 71 208 q 106 65 73 102 q 205 18 140 28 q 236 137 210 79 q 304 241 262 195 q 396 315 345 288 q 503 342 448 342 q 577 315 545 342 q 609 249 609 287 q 561 121 609 178 q 431 32 513 64 q 248 -1 349 -1 q 236 -1 241 -1 q 224 -1 230 -1 q 223 -11 223 -5 q 223 -21 223 -16 q 228 -78 223 -46 q 241 -136 233 -109 q 262 -177 250 -163 q 269 -187 269 -184 q 260 -193 269 -193 m 542 571 q 699 588 618 571 q 848 638 779 606 q 959 718 917 671 q 1002 823 1002 764 q 953 901 1002 869 q 819 933 904 933 q 682 899 749 933 q 559 811 614 865 q 473 697 505 758 q 440 586 440 637 l 440 576 q 489 572 464 574 q 542 571 515 571 m 576 434 q 587 442 587 434 q 555 469 586 454 q 480 487 525 484 q 527 449 501 463 q 576 434 553 434 m 252 15 q 363 40 306 15 q 469 105 420 66 q 548 189 517 145 q 578 267 578 232 q 557 310 578 295 q 505 326 536 326 q 387 287 448 326 q 280 179 326 249 q 224 16 234 110 q 238 15 231 16 q 252 15 245 15 m 718 1033 q 833 1122 768 1085 q 968 1159 898 1159 q 1030 1140 1004 1159 q 1059 1081 1056 1122 q 1056 1033 1060 1056 l 1037 1033 q 1040 1076 1041 1054 q 1022 1122 1038 1109 q 989 1135 1007 1135 q 896 1109 939 1135 q 806 1033 853 1083 l 718 1033 z "},"Ē":{"ha":673,"x_min":-1,"x_max":1078,"o":"m 260 -193 q 254 -192 258 -193 q 244 -184 250 -191 q 222 -140 231 -170 q 209 -78 214 -111 q 203 -19 205 -45 l 203 1 q 56 60 111 11 q 1 178 2 109 q 30 303 -1 243 q 116 410 60 363 q 246 483 172 456 q 408 510 321 510 l 412 510 q 386 568 394 535 q 213 640 280 591 q 117 755 146 690 q 113 765 114 760 q 113 772 113 770 q 118 780 113 780 q 132 764 125 780 q 382 586 193 625 q 382 602 382 591 q 418 745 381 681 q 516 855 455 809 q 651 926 578 901 q 795 950 724 950 q 966 911 905 950 q 1027 802 1027 872 q 989 704 1027 750 q 886 624 951 659 q 735 571 821 590 q 554 551 650 551 q 443 558 492 551 q 465 507 448 533 q 566 481 532 500 q 601 440 600 461 q 566 418 601 418 q 499 436 536 418 q 432 486 462 454 q 301 446 366 478 q 184 366 237 414 q 101 263 132 318 q 71 156 71 208 q 106 65 73 102 q 205 18 140 28 q 236 137 210 79 q 304 241 262 195 q 396 315 345 288 q 503 342 448 342 q 577 315 545 342 q 609 249 609 287 q 561 121 609 178 q 431 32 513 64 q 248 -1 349 -1 q 236 -1 241 -1 q 224 -1 230 -1 q 223 -11 223 -5 q 223 -21 223 -16 q 228 -78 223 -46 q 241 -136 233 -109 q 262 -177 250 -163 q 269 -187 269 -184 q 260 -193 269 -193 m 542 571 q 699 588 618 571 q 848 638 779 606 q 959 718 917 671 q 1002 823 1002 764 q 953 901 1002 869 q 819 933 904 933 q 682 899 749 933 q 559 811 614 865 q 473 697 505 758 q 440 586 440 637 l 440 576 q 489 572 464 574 q 542 571 515 571 m 576 434 q 587 442 587 434 q 555 469 586 454 q 480 487 525 484 q 527 449 501 463 q 576 434 553 434 m 252 15 q 363 40 306 15 q 469 105 420 66 q 548 189 517 145 q 578 267 578 232 q 557 310 578 295 q 505 326 536 326 q 387 287 448 326 q 280 179 326 249 q 224 16 234 110 q 238 15 231 16 q 252 15 245 15 m 709 1041 q 736 1060 724 1050 q 758 1078 749 1069 l 1078 1078 q 1036 1041 1050 1060 l 709 1041 z "},"Ḗ":{"ha":673,"x_min":-1,"x_max":1124,"o":"m 260 -193 q 254 -192 258 -193 q 244 -184 250 -191 q 222 -140 231 -170 q 209 -78 214 -111 q 203 -19 205 -45 l 203 1 q 56 60 111 11 q 1 178 2 109 q 30 303 -1 243 q 116 410 60 363 q 246 483 172 456 q 408 510 321 510 l 412 510 q 386 568 394 535 q 213 640 280 591 q 117 755 146 690 q 113 765 114 760 q 113 772 113 770 q 118 780 113 780 q 132 764 125 780 q 382 586 193 625 q 382 602 382 591 q 418 745 381 681 q 516 855 455 809 q 651 926 578 901 q 795 950 724 950 q 966 911 905 950 q 1027 802 1027 872 q 989 704 1027 750 q 886 624 951 659 q 735 571 821 590 q 554 551 650 551 q 443 558 492 551 q 465 507 448 533 q 566 481 532 500 q 601 440 600 461 q 566 418 601 418 q 499 436 536 418 q 432 486 462 454 q 301 446 366 478 q 184 366 237 414 q 101 263 132 318 q 71 156 71 208 q 106 65 73 102 q 205 18 140 28 q 236 137 210 79 q 304 241 262 195 q 396 315 345 288 q 503 342 448 342 q 577 315 545 342 q 609 249 609 287 q 561 121 609 178 q 431 32 513 64 q 248 -1 349 -1 q 236 -1 241 -1 q 224 -1 230 -1 q 223 -11 223 -5 q 223 -21 223 -16 q 228 -78 223 -46 q 241 -136 233 -109 q 262 -177 250 -163 q 269 -187 269 -184 q 260 -193 269 -193 m 542 571 q 699 588 618 571 q 848 638 779 606 q 959 718 917 671 q 1002 823 1002 764 q 953 901 1002 869 q 819 933 904 933 q 682 899 749 933 q 559 811 614 865 q 473 697 505 758 q 440 586 440 637 l 440 576 q 489 572 464 574 q 542 571 515 571 m 576 434 q 587 442 587 434 q 555 469 586 454 q 480 487 525 484 q 527 449 501 463 q 576 434 553 434 m 252 15 q 363 40 306 15 q 469 105 420 66 q 548 189 517 145 q 578 267 578 232 q 557 310 578 295 q 505 326 536 326 q 387 287 448 326 q 280 179 326 249 q 224 16 234 110 q 238 15 231 16 q 252 15 245 15 m 712 1027 q 740 1045 727 1036 q 762 1063 753 1055 l 1081 1063 q 1040 1027 1053 1046 l 712 1027 m 944 1132 q 938 1136 940 1132 q 937 1140 937 1140 q 954 1156 937 1143 q 995 1185 973 1167 q 1031 1224 1017 1202 q 1046 1252 1040 1237 q 1058 1293 1053 1266 q 1095 1341 1064 1341 q 1115 1333 1107 1341 q 1124 1304 1124 1324 q 1104 1255 1124 1283 q 1051 1198 1084 1227 q 979 1147 1018 1170 q 944 1132 954 1132 z "},"Ḕ":{"ha":673,"x_min":-1,"x_max":1081,"o":"m 260 -193 q 254 -192 258 -193 q 244 -184 250 -191 q 222 -140 231 -170 q 209 -78 214 -111 q 203 -19 205 -45 l 203 1 q 56 60 111 11 q 1 178 2 109 q 30 303 -1 243 q 116 410 60 363 q 246 483 172 456 q 408 510 321 510 l 412 510 q 386 568 394 535 q 213 640 280 591 q 117 755 146 690 q 113 765 114 760 q 113 772 113 770 q 118 780 113 780 q 132 764 125 780 q 382 586 193 625 q 382 602 382 591 q 418 745 381 681 q 516 855 455 809 q 651 926 578 901 q 795 950 724 950 q 966 911 905 950 q 1027 802 1027 872 q 989 704 1027 750 q 886 624 951 659 q 735 571 821 590 q 554 551 650 551 q 443 558 492 551 q 465 507 448 533 q 566 481 532 500 q 601 440 600 461 q 566 418 601 418 q 499 436 536 418 q 432 486 462 454 q 301 446 366 478 q 184 366 237 414 q 101 263 132 318 q 71 156 71 208 q 106 65 73 102 q 205 18 140 28 q 236 137 210 79 q 304 241 262 195 q 396 315 345 288 q 503 342 448 342 q 577 315 545 342 q 609 249 609 287 q 561 121 609 178 q 431 32 513 64 q 248 -1 349 -1 q 236 -1 241 -1 q 224 -1 230 -1 q 223 -11 223 -5 q 223 -21 223 -16 q 228 -78 223 -46 q 241 -136 233 -109 q 262 -177 250 -163 q 269 -187 269 -184 q 260 -193 269 -193 m 542 571 q 699 588 618 571 q 848 638 779 606 q 959 718 917 671 q 1002 823 1002 764 q 953 901 1002 869 q 819 933 904 933 q 682 899 749 933 q 559 811 614 865 q 473 697 505 758 q 440 586 440 637 l 440 576 q 489 572 464 574 q 542 571 515 571 m 576 434 q 587 442 587 434 q 555 469 586 454 q 480 487 525 484 q 527 449 501 463 q 576 434 553 434 m 252 15 q 363 40 306 15 q 469 105 420 66 q 548 189 517 145 q 578 267 578 232 q 557 310 578 295 q 505 326 536 326 q 387 287 448 326 q 280 179 326 249 q 224 16 234 110 q 238 15 231 16 q 252 15 245 15 m 712 1027 q 740 1045 727 1036 q 762 1063 753 1055 l 1081 1063 q 1040 1027 1053 1046 l 712 1027 m 969 1112 q 934 1127 961 1112 q 863 1178 896 1149 q 810 1235 830 1206 q 790 1284 790 1263 q 819 1321 790 1321 q 857 1273 848 1321 q 868 1231 862 1246 q 884 1204 875 1217 q 919 1164 897 1182 q 960 1136 941 1147 q 977 1120 977 1123 q 976 1116 977 1120 q 969 1112 975 1112 z "},"Ę":{"ha":673,"x_min":-1,"x_max":1027,"o":"m 260 -193 q 254 -192 258 -193 q 244 -184 250 -191 q 222 -140 231 -170 q 209 -78 214 -111 q 203 -19 205 -45 l 203 1 q 56 60 111 11 q 1 178 2 109 q 30 303 -1 243 q 116 410 60 363 q 246 483 172 456 q 408 510 321 510 l 412 510 q 386 568 394 535 q 213 640 280 591 q 117 755 146 690 q 113 765 114 760 q 113 772 113 770 q 118 780 113 780 q 132 764 125 780 q 382 586 193 625 q 382 602 382 591 q 418 745 381 681 q 516 855 455 809 q 651 926 578 901 q 795 950 724 950 q 966 911 905 950 q 1027 802 1027 872 q 989 704 1027 750 q 886 624 951 659 q 735 571 821 590 q 554 551 650 551 q 443 558 492 551 q 465 507 448 533 q 566 481 532 500 q 601 440 600 461 q 566 418 601 418 q 499 436 536 418 q 432 486 462 454 q 301 446 366 478 q 184 366 237 414 q 101 263 132 318 q 71 156 71 208 q 106 65 73 102 q 205 18 140 28 q 236 137 210 79 q 304 241 262 195 q 396 315 345 288 q 503 342 448 342 q 577 315 545 342 q 609 249 609 287 q 561 121 609 178 q 431 32 513 64 q 248 -1 349 -1 q 236 -1 241 -1 q 224 -1 230 -1 q 223 -11 223 -5 q 223 -21 223 -16 q 228 -78 223 -46 q 241 -136 233 -109 q 262 -177 250 -163 q 269 -187 269 -184 q 260 -193 269 -193 m 542 571 q 699 588 618 571 q 848 638 779 606 q 959 718 917 671 q 1002 823 1002 764 q 953 901 1002 869 q 819 933 904 933 q 682 899 749 933 q 559 811 614 865 q 473 697 505 758 q 440 586 440 637 l 440 576 q 489 572 464 574 q 542 571 515 571 m 576 434 q 587 442 587 434 q 555 469 586 454 q 480 487 525 484 q 527 449 501 463 q 576 434 553 434 m 252 15 q 363 40 306 15 q 469 105 420 66 q 548 189 517 145 q 578 267 578 232 q 557 310 578 295 q 505 326 536 326 q 387 287 448 326 q 280 179 326 249 q 224 16 234 110 q 238 15 231 16 q 252 15 245 15 m 80 -197 q 35 -181 52 -197 q 18 -142 18 -165 q 38 -90 18 -114 q 83 -48 58 -66 q 155 -9 119 -22 q 203 6 191 4 q 214 2 214 8 q 200 -8 214 -3 q 80 -123 80 -47 q 126 -153 80 -153 q 155 -148 140 -153 l 119 -193 q 100 -196 114 -195 q 80 -197 87 -197 z "},"Ẽ":{"ha":673,"x_min":-1,"x_max":1027,"o":"m 260 -193 q 254 -192 258 -193 q 244 -184 250 -191 q 222 -140 231 -170 q 209 -78 214 -111 q 203 -19 205 -45 l 203 1 q 56 60 111 11 q 1 178 2 109 q 30 303 -1 243 q 116 410 60 363 q 246 483 172 456 q 408 510 321 510 l 412 510 q 386 568 394 535 q 213 640 280 591 q 117 755 146 690 q 113 765 114 760 q 113 772 113 770 q 118 780 113 780 q 132 764 125 780 q 382 586 193 625 q 382 602 382 591 q 418 745 381 681 q 516 855 455 809 q 651 926 578 901 q 795 950 724 950 q 966 911 905 950 q 1027 802 1027 872 q 989 704 1027 750 q 886 624 951 659 q 735 571 821 590 q 554 551 650 551 q 443 558 492 551 q 465 507 448 533 q 566 481 532 500 q 601 440 600 461 q 566 418 601 418 q 499 436 536 418 q 432 486 462 454 q 301 446 366 478 q 184 366 237 414 q 101 263 132 318 q 71 156 71 208 q 106 65 73 102 q 205 18 140 28 q 236 137 210 79 q 304 241 262 195 q 396 315 345 288 q 503 342 448 342 q 577 315 545 342 q 609 249 609 287 q 561 121 609 178 q 431 32 513 64 q 248 -1 349 -1 q 236 -1 241 -1 q 224 -1 230 -1 q 223 -11 223 -5 q 223 -21 223 -16 q 228 -78 223 -46 q 241 -136 233 -109 q 262 -177 250 -163 q 269 -187 269 -184 q 260 -193 269 -193 m 542 571 q 699 588 618 571 q 848 638 779 606 q 959 718 917 671 q 1002 823 1002 764 q 953 901 1002 869 q 819 933 904 933 q 682 899 749 933 q 559 811 614 865 q 473 697 505 758 q 440 586 440 637 l 440 576 q 489 572 464 574 q 542 571 515 571 m 576 434 q 587 442 587 434 q 555 469 586 454 q 480 487 525 484 q 527 449 501 463 q 576 434 553 434 m 252 15 q 363 40 306 15 q 469 105 420 66 q 548 189 517 145 q 578 267 578 232 q 557 310 578 295 q 505 326 536 326 q 387 287 448 326 q 280 179 326 249 q 224 16 234 110 q 238 15 231 16 q 252 15 245 15 m 696 1016 q 690 1023 690 1016 q 726 1089 690 1050 q 800 1130 764 1130 q 829 1124 814 1130 q 870 1101 845 1119 q 912 1078 895 1084 q 942 1072 930 1072 q 1004 1124 983 1072 q 1017 1135 1011 1135 q 1025 1128 1025 1135 q 988 1062 1025 1102 q 950 1031 970 1042 q 913 1021 929 1021 q 883 1027 898 1021 q 836 1054 867 1034 q 800 1074 814 1068 q 773 1079 787 1079 q 710 1027 730 1079 q 696 1016 704 1016 z "},"Ḛ":{"ha":673,"x_min":-73,"x_max":1027,"o":"m 260 -193 q 254 -192 258 -193 q 244 -184 250 -191 q 222 -140 231 -170 q 209 -78 214 -111 q 203 -19 205 -45 l 203 1 q 56 60 111 11 q 1 178 2 109 q 30 303 -1 243 q 116 410 60 363 q 246 483 172 456 q 408 510 321 510 l 412 510 q 386 568 394 535 q 213 640 280 591 q 117 755 146 690 q 113 765 114 760 q 113 772 113 770 q 118 780 113 780 q 132 764 125 780 q 382 586 193 625 q 382 602 382 591 q 418 745 381 681 q 516 855 455 809 q 651 926 578 901 q 795 950 724 950 q 966 911 905 950 q 1027 802 1027 872 q 989 704 1027 750 q 886 624 951 659 q 735 571 821 590 q 554 551 650 551 q 443 558 492 551 q 465 507 448 533 q 566 481 532 500 q 601 440 600 461 q 566 418 601 418 q 499 436 536 418 q 432 486 462 454 q 301 446 366 478 q 184 366 237 414 q 101 263 132 318 q 71 156 71 208 q 106 65 73 102 q 205 18 140 28 q 236 137 210 79 q 304 241 262 195 q 396 315 345 288 q 503 342 448 342 q 577 315 545 342 q 609 249 609 287 q 561 121 609 178 q 431 32 513 64 q 248 -1 349 -1 q 236 -1 241 -1 q 224 -1 230 -1 q 223 -11 223 -5 q 223 -21 223 -16 q 228 -78 223 -46 q 241 -136 233 -109 q 262 -177 250 -163 q 269 -187 269 -184 q 260 -193 269 -193 m 542 571 q 699 588 618 571 q 848 638 779 606 q 959 718 917 671 q 1002 823 1002 764 q 953 901 1002 869 q 819 933 904 933 q 682 899 749 933 q 559 811 614 865 q 473 697 505 758 q 440 586 440 637 l 440 576 q 489 572 464 574 q 542 571 515 571 m 576 434 q 587 442 587 434 q 555 469 586 454 q 480 487 525 484 q 527 449 501 463 q 576 434 553 434 m 252 15 q 363 40 306 15 q 469 105 420 66 q 548 189 517 145 q 578 267 578 232 q 557 310 578 295 q 505 326 536 326 q 387 287 448 326 q 280 179 326 249 q 224 16 234 110 q 238 15 231 16 q 252 15 245 15 m -66 -189 q -73 -182 -73 -189 q -37 -116 -73 -155 q 37 -75 1 -75 q 66 -81 51 -75 q 107 -104 82 -86 q 150 -127 132 -121 q 179 -133 167 -133 q 241 -81 220 -133 q 254 -70 248 -70 q 262 -77 262 -70 q 225 -143 262 -103 q 187 -174 208 -163 q 150 -184 166 -184 q 120 -178 135 -184 q 73 -151 104 -172 q 37 -132 51 -137 q 10 -126 24 -126 q -53 -178 -33 -126 q -66 -189 -59 -189 z "},"Ǝ":{"ha":673,"x_min":-140,"x_max":1082,"o":"m -136 -193 q -139 -191 -138 -193 q -137 -187 -140 -189 q -131 -183 -134 -184 q -119 -177 -127 -181 q -54 -136 -93 -163 q 24 -78 -15 -109 q 91 -21 64 -46 q 102 -11 96 -16 q 113 -1 108 -5 q 100 -1 106 -1 q 87 -1 94 -1 q -59 32 -14 -1 q -90 121 -104 64 q 2 249 -76 178 q 68 295 30 274 q 144 330 106 317 q 211 342 183 342 q 299 295 286 342 q 273 174 312 248 q 153 18 235 100 q 303 65 229 28 q 437 156 377 102 q 525 263 496 208 q 555 366 555 318 q 527 446 555 414 q 439 486 498 478 q 319 436 376 454 q 232 418 262 418 q 220 440 197 418 q 300 481 244 461 q 430 507 356 500 q 470 532 450 519 q 508 558 490 545 q 389 551 452 551 q 191 585 262 551 q 118 675 121 618 q 193 802 116 732 q 373 911 269 872 q 587 950 477 950 q 704 926 658 950 q 761 855 750 901 q 739 745 772 809 q 617 602 705 681 q 608 593 612 597 q 600 586 604 589 q 827 651 715 606 q 1045 764 940 696 q 1077 780 1069 780 q 1074 772 1082 780 q 1064 765 1071 770 q 1050 755 1058 760 q 828 640 950 690 q 576 568 707 591 q 486 510 532 535 l 490 510 q 648 464 606 510 q 660 341 690 417 q 532 178 631 266 q 415 94 481 132 q 276 32 349 56 q 135 1 204 7 l 113 -19 q 43 -78 83 -45 q -39 -140 2 -111 q -109 -184 -79 -170 q -127 -192 -122 -191 q -136 -193 -132 -193 m 423 571 q 477 572 450 571 q 531 576 504 574 l 542 586 q 632 697 599 637 q 670 811 666 758 q 645 899 675 865 q 545 933 615 933 q 375 901 460 933 q 240 823 291 869 q 167 718 176 764 q 191 638 159 671 q 286 588 224 606 q 423 571 347 571 m 239 434 q 304 449 262 434 q 393 487 345 463 q 297 469 345 484 q 237 442 250 454 q 239 434 229 434 m 102 15 q 117 15 109 15 q 131 16 124 16 q 255 179 224 110 q 266 287 286 249 q 191 326 247 326 q 122 310 159 326 q 54 267 84 295 q -3 189 14 232 q -15 105 -20 145 q 19 40 -10 66 q 102 15 48 15 z "},"Ə":{"ha":926,"x_min":216,"x_max":1102,"o":"m 360 -1 q 255 21 292 -1 q 217 84 218 43 q 302 252 216 169 q 556 406 389 335 q 965 524 723 477 l 970 527 q 1019 657 1013 606 q 1025 753 1025 709 q 982 867 1025 819 q 842 914 939 914 q 663 880 745 914 q 517 793 582 845 q 404 687 452 741 q 325 595 355 633 q 291 555 298 562 l 273 564 q 291 583 281 572 q 318 615 300 594 q 405 713 354 658 q 524 820 456 768 q 674 906 591 872 q 858 941 758 941 q 1038 885 975 941 q 1102 740 1102 829 q 1079 604 1102 673 q 1026 477 1056 534 q 972 389 996 420 q 762 161 871 247 q 550 37 653 75 q 360 -1 447 -1 m 370 19 q 508 56 429 19 q 681 177 586 93 q 884 403 777 262 q 939 478 920 448 l 926 488 q 582 390 724 450 q 366 255 441 329 q 288 103 292 181 q 308 40 286 62 q 370 19 330 19 z "},"F":{"ha":850,"x_min":0,"x_max":1517,"o":"m 460 552 q 378 576 409 552 q 347 645 347 600 q 392 759 347 702 q 517 864 436 817 q 709 937 599 911 q 830 955 768 951 q 954 959 892 959 q 1102 947 1027 959 q 1247 935 1177 935 q 1404 969 1344 935 q 1496 1056 1465 1003 q 1505 1066 1501 1064 q 1511 1067 1508 1067 q 1517 1063 1517 1067 q 1516 1057 1517 1060 q 1511 1049 1516 1055 q 1376 922 1461 969 q 1162 875 1291 875 q 974 891 1069 875 q 787 907 880 907 q 634 884 709 907 q 499 824 559 861 q 403 742 439 787 q 367 652 367 696 q 384 598 367 618 q 439 578 401 578 q 537 602 486 578 q 631 665 587 627 q 705 744 675 703 q 738 821 734 786 q 744 835 741 835 q 751 821 751 835 q 725 722 751 770 q 655 636 699 674 q 562 575 612 597 q 460 552 511 552 m 157 -1 q 82 13 118 -1 q 23 49 46 26 q 0 98 0 71 q 21 141 0 128 q 63 155 42 155 q 86 147 75 155 q 98 123 98 140 q 86 100 98 111 q 59 90 75 90 q 42 91 50 90 q 27 96 34 92 l 27 93 q 67 39 27 60 q 163 18 106 18 q 258 33 208 18 q 364 92 307 49 q 486 215 420 134 q 629 426 551 296 q 632 431 629 427 q 378 341 469 395 q 257 236 288 288 q 244 222 250 222 q 239 228 239 222 q 244 239 239 233 q 318 322 262 280 q 458 401 374 365 q 646 458 543 437 q 649 459 648 458 q 823 669 732 588 q 993 788 913 750 q 1119 827 1072 827 q 1135 821 1135 827 q 1129 817 1135 818 q 1106 810 1124 815 q 934 701 1027 787 q 755 485 841 615 q 836 507 798 496 q 899 526 873 517 q 911 536 905 530 q 922 553 917 543 q 951 552 930 553 q 995 548 973 551 q 1025 543 1017 546 q 959 499 994 529 q 895 430 924 469 q 848 348 865 391 q 836 337 842 337 q 828 347 828 337 q 833 367 828 351 q 862 436 849 408 q 892 491 876 465 q 823 473 865 482 q 736 454 781 463 l 733 449 q 535 178 627 277 q 351 40 442 80 q 157 -1 260 -1 z "},"Ḟ":{"ha":850,"x_min":0,"x_max":1517,"o":"m 460 552 q 378 576 409 552 q 347 645 347 600 q 392 759 347 702 q 517 864 436 817 q 709 937 599 911 q 830 955 768 951 q 954 959 892 959 q 1102 947 1027 959 q 1247 935 1177 935 q 1404 969 1344 935 q 1496 1056 1465 1003 q 1505 1066 1501 1064 q 1511 1067 1508 1067 q 1517 1063 1517 1067 q 1516 1057 1517 1060 q 1511 1049 1516 1055 q 1376 922 1461 969 q 1162 875 1291 875 q 974 891 1069 875 q 787 907 880 907 q 634 884 709 907 q 499 824 559 861 q 403 742 439 787 q 367 652 367 696 q 384 598 367 618 q 439 578 401 578 q 537 602 486 578 q 631 665 587 627 q 705 744 675 703 q 738 821 734 786 q 744 835 741 835 q 751 821 751 835 q 725 722 751 770 q 655 636 699 674 q 562 575 612 597 q 460 552 511 552 m 157 -1 q 82 13 118 -1 q 23 49 46 26 q 0 98 0 71 q 21 141 0 128 q 63 155 42 155 q 86 147 75 155 q 98 123 98 140 q 86 100 98 111 q 59 90 75 90 q 42 91 50 90 q 27 96 34 92 l 27 93 q 67 39 27 60 q 163 18 106 18 q 258 33 208 18 q 364 92 307 49 q 486 215 420 134 q 629 426 551 296 q 632 431 629 427 q 378 341 469 395 q 257 236 288 288 q 244 222 250 222 q 239 228 239 222 q 244 239 239 233 q 318 322 262 280 q 458 401 374 365 q 646 458 543 437 q 649 459 648 458 q 823 669 732 588 q 993 788 913 750 q 1119 827 1072 827 q 1135 821 1135 827 q 1129 817 1135 818 q 1106 810 1124 815 q 934 701 1027 787 q 755 485 841 615 q 836 507 798 496 q 899 526 873 517 q 911 536 905 530 q 922 553 917 543 q 951 552 930 553 q 995 548 973 551 q 1025 543 1017 546 q 959 499 994 529 q 895 430 924 469 q 848 348 865 391 q 836 337 842 337 q 828 347 828 337 q 833 367 828 351 q 862 436 849 408 q 892 491 876 465 q 823 473 865 482 q 736 454 781 463 l 733 449 q 535 178 627 277 q 351 40 442 80 q 157 -1 260 -1 m 1037 994 q 1007 1006 1018 994 q 996 1036 996 1018 q 1016 1080 996 1060 q 1063 1100 1036 1100 q 1094 1087 1082 1100 q 1105 1057 1105 1075 q 1083 1013 1105 1032 q 1037 994 1062 994 z "}}}
